<svg width="60" height="60" viewBox="0 0 60 60" fill="none" xmlns="http://www.w3.org/2000/svg">
<path d="M48.4281 48.3659C53.278 43.4838 56 36.8816 56 29.9999C56 23.1183 53.278 16.516 48.4281 11.6338V11.5718H48.3661C43.4839 6.7219 36.8817 4 30 4C23.1183 4 16.5161 6.7219 11.6339 11.5718H11.5719V11.6338C6.72202 16.516 4 23.1183 4 29.9999C4 36.8816 6.72202 43.4838 11.5719 48.3659V48.428H11.6339C16.5161 53.278 23.1183 55.9999 30 55.9999C36.8817 55.9999 43.4839 53.278 48.3661 48.428H48.4281V48.3659ZM43.9979 42.2853C43.7605 42.082 43.4551 41.9758 43.1428 41.9878C42.8306 41.9999 42.5342 42.1294 42.3132 42.3504C42.0922 42.5714 41.9628 42.8677 41.9507 43.18C41.9387 43.4923 42.0449 43.7976 42.2482 44.035L45.7104 47.4973C41.7178 51.1319 36.5947 53.2793 31.2037 53.5779V48.6141C31.2037 48.285 31.0729 47.9694 30.8403 47.7366C30.6076 47.504 30.2919 47.3732 29.9628 47.3732C29.6337 47.3732 29.318 47.504 29.0853 47.7366C28.8526 47.9694 28.7218 48.285 28.7218 48.6141V53.5779C23.3309 53.2793 18.2078 51.1319 14.2151 47.4973L17.6774 44.035C17.8806 43.7976 17.9869 43.4923 17.9748 43.18C17.9628 42.8677 17.8334 42.5714 17.6123 42.3504C17.3913 42.1294 17.095 41.9999 16.7828 41.9878C16.4704 41.9758 16.165 42.082 15.9276 42.2853L12.4654 45.7475C8.85335 41.7462 6.72823 36.6239 6.44678 31.2408H11.3485C11.6776 31.2408 11.9933 31.1102 12.226 30.8774C12.4587 30.6447 12.5895 30.329 12.5895 29.9999C12.5895 29.6708 12.4587 29.3552 12.226 29.1224C11.9933 28.8897 11.6776 28.7589 11.3485 28.7589H6.44678C6.72823 23.3758 8.85335 18.2535 12.4654 14.2522L15.9276 17.7145C16.1602 17.9457 16.4746 18.0753 16.8025 18.0753C17.1304 18.0753 17.4448 17.9457 17.6774 17.7145C17.9086 17.482 18.0382 17.1675 18.0382 16.8396C18.0382 16.5118 17.9086 16.1973 17.6774 15.9647L14.2151 12.5025C18.2164 8.89058 23.3387 6.76533 28.7218 6.48388V11.3856C28.7218 11.7147 28.8526 12.0304 29.0853 12.2631C29.318 12.4959 29.6337 12.6266 29.9628 12.6266C30.2919 12.6266 30.6076 12.4959 30.8403 12.2631C31.0729 12.0304 31.2037 11.7147 31.2037 11.3856V6.48388C36.5868 6.76533 41.7091 8.89058 45.7104 12.5025L42.2482 15.9647C42.0171 16.1973 41.8873 16.5118 41.8873 16.8396C41.8873 17.1675 42.0171 17.482 42.2482 17.7145C42.4807 17.9457 42.7952 18.0753 43.123 18.0753C43.4509 18.0753 43.7654 17.9457 43.9979 17.7145L47.4602 14.2522C51.0948 18.2449 53.2422 23.3681 53.5408 28.7589H48.577C48.2479 28.7589 47.9322 28.8897 47.6995 29.1224C47.4669 29.3552 47.3361 29.6708 47.3361 29.9999C47.3361 30.329 47.4669 30.6447 47.6995 30.8774C47.9322 31.1102 48.2479 31.2408 48.577 31.2408H53.5408C53.2422 36.6318 51.0948 41.755 47.4602 45.7475L43.9979 42.2853Z" fill="#CE2127"/>
<path d="M31.2041 29.4916V21.3137C31.2041 20.9846 31.0734 20.6689 30.8406 20.4362C30.6079 20.2036 30.2922 20.0728 29.9631 20.0728C29.634 20.0728 29.3183 20.2036 29.0857 20.4362C28.853 20.6689 28.7222 20.9846 28.7222 21.3137V30.0004C28.7213 30.1637 28.7526 30.3256 28.8143 30.4768C28.8761 30.6279 28.967 30.7655 29.0821 30.8814L37.7687 39.5681C37.8841 39.6843 38.0214 39.7767 38.1725 39.8397C38.3238 39.9028 38.486 39.9351 38.6498 39.9351C38.8136 39.9351 38.9758 39.9028 39.1271 39.8397C39.2783 39.7767 39.4156 39.6843 39.5309 39.5681C39.6471 39.4527 39.7395 39.3154 39.8025 39.1643C39.8655 39.013 39.8979 38.8508 39.8979 38.687C39.8979 38.5232 39.8655 38.361 39.8025 38.2097C39.7395 38.0586 39.6471 37.9213 39.5309 37.8059L31.2041 29.4916Z" fill="#CE2127"/>
</svg>
