<svg width="60" height="60" viewBox="0 0 60 60" fill="none" xmlns="http://www.w3.org/2000/svg">
<path d="M17.5 23.125C17.8315 23.125 18.1495 22.9932 18.3839 22.7589C18.6182 22.5245 18.75 22.2065 18.75 21.875C18.75 21.5435 18.6182 21.2255 18.3839 20.9911C18.1495 20.7568 17.8315 20.625 17.5 20.625H15.625V18.75C15.625 18.4185 15.4932 18.1005 15.2589 17.8661C15.0245 17.6318 14.7065 17.5 14.375 17.5C14.0435 17.5 13.7255 17.6318 13.4911 17.8661C13.2568 18.1005 13.125 18.4185 13.125 18.75V20.625H11.25C10.9185 20.625 10.6005 20.7568 10.3661 20.9911C10.1317 21.2255 10 21.5435 10 21.875C10 22.2065 10.1317 22.5245 10.3661 22.7589C10.6005 22.9932 10.9185 23.125 11.25 23.125H13.125V25C13.125 25.3315 13.2568 25.6495 13.4911 25.8839C13.7255 26.1182 14.0435 26.25 14.375 26.25C14.7065 26.25 15.0245 26.1182 15.2589 25.8839C15.4932 25.6495 15.625 25.3315 15.625 25V23.125H17.5Z" fill="#CE2127"/>
<path d="M45.625 20C46.3154 20 46.875 19.4404 46.875 18.75C46.875 18.0596 46.3154 17.5 45.625 17.5C44.9346 17.5 44.375 18.0596 44.375 18.75C44.375 19.4404 44.9346 20 45.625 20Z" fill="#CE2127"/>
<path d="M45.625 26.25C46.3154 26.25 46.875 25.6904 46.875 25C46.875 24.3096 46.3154 23.75 45.625 23.75C44.9346 23.75 44.375 24.3096 44.375 25C44.375 25.6904 44.9346 26.25 45.625 26.25Z" fill="#CE2127"/>
<path d="M48.75 23.125C49.4404 23.125 50 22.5654 50 21.875C50 21.1846 49.4404 20.625 48.75 20.625C48.0596 20.625 47.5 21.1846 47.5 21.875C47.5 22.5654 48.0596 23.125 48.75 23.125Z" fill="#CE2127"/>
<path d="M42.5 23.125C43.1904 23.125 43.75 22.5654 43.75 21.875C43.75 21.1846 43.1904 20.625 42.5 20.625C41.8096 20.625 41.25 21.1846 41.25 21.875C41.25 22.5654 41.8096 23.125 42.5 23.125Z" fill="#CE2127"/>
<path d="M20.625 27.5C19.7597 27.5 18.9139 27.7566 18.1944 28.2374C17.4749 28.718 16.9141 29.4014 16.583 30.2008C16.2519 31.0001 16.1652 31.8799 16.3341 32.7285C16.5029 33.5771 16.9195 34.3567 17.5314 34.9686C18.1432 35.5805 18.9229 35.9971 19.7715 36.1659C20.6201 36.3347 21.4999 36.2481 22.2992 35.917C23.0986 35.5859 23.782 35.0251 24.2626 34.3056C24.7434 33.5861 25 32.7403 25 31.875C25 30.7146 24.5391 29.6019 23.7186 28.7814C22.8981 27.9609 21.7854 27.5 20.625 27.5ZM20.625 33.75C20.2541 33.75 19.8916 33.64 19.5832 33.434C19.275 33.228 19.0346 32.9351 18.8927 32.5925C18.7509 32.2499 18.7136 31.8729 18.786 31.5092C18.8584 31.1455 19.037 30.8114 19.2991 30.5491C19.5614 30.287 19.8955 30.1084 20.2592 30.036C20.6229 29.9636 20.9999 30.0009 21.3425 30.1428C21.6851 30.2846 21.978 30.525 22.184 30.8332C22.39 31.1416 22.5 31.5041 22.5 31.875C22.5 32.3723 22.3025 32.8492 21.9509 33.2009C21.5992 33.5525 21.1222 33.75 20.625 33.75Z" fill="#CE2127"/>
<path d="M39.375 27.5C38.5097 27.5 37.6639 27.7566 36.9444 28.2374C36.2249 28.718 35.6641 29.4014 35.333 30.2008C35.0019 31.0001 34.9152 31.8799 35.0841 32.7285C35.2529 33.5771 35.6695 34.3567 36.2814 34.9686C36.8932 35.5805 37.6729 35.9971 38.5215 36.1659C39.3701 36.3347 40.2499 36.2481 41.0492 35.917C41.8486 35.5859 42.532 35.0251 43.0126 34.3056C43.4934 33.5861 43.75 32.7403 43.75 31.875C43.75 30.7146 43.289 29.6019 42.4686 28.7814C41.6481 27.9609 40.5354 27.5 39.375 27.5ZM39.375 33.75C39.0041 33.75 38.6416 33.64 38.3332 33.434C38.025 33.228 37.7846 32.9351 37.6427 32.5925C37.5007 32.2499 37.4636 31.8729 37.536 31.5092C37.6084 31.1455 37.787 30.8114 38.0491 30.5491C38.3114 30.287 38.6455 30.1084 39.0092 30.036C39.3729 29.9636 39.7499 30.0009 40.0925 30.1428C40.4351 30.2846 40.728 30.525 40.934 30.8332C41.14 31.1416 41.25 31.5041 41.25 31.875C41.25 32.3723 41.0525 32.8492 40.7009 33.2009C40.3492 33.5525 39.8722 33.75 39.375 33.75Z" fill="#CE2127"/>
<path d="M27.5 23.75H26.25C25.9185 23.75 25.6005 23.8818 25.3661 24.1161C25.1318 24.3505 25 24.6685 25 25C25 25.3315 25.1318 25.6495 25.3661 25.8839C25.6005 26.1182 25.9185 26.25 26.25 26.25H27.5C27.8315 26.25 28.1495 26.1182 28.3839 25.8839C28.6182 25.6495 28.75 25.3315 28.75 25C28.75 24.6685 28.6182 24.3505 28.3839 24.1161C28.1495 23.8818 27.8315 23.75 27.5 23.75Z" fill="#CE2127"/>
<path d="M33.75 23.75H32.5C32.1685 23.75 31.8505 23.8818 31.6161 24.1161C31.3818 24.3505 31.25 24.6685 31.25 25C31.25 25.3315 31.3818 25.6495 31.6161 25.8839C31.8505 26.1182 32.1685 26.25 32.5 26.25H33.75C34.0815 26.25 34.3995 26.1182 34.6339 25.8839C34.8682 25.6495 35 25.3315 35 25C35 24.6685 34.8682 24.3505 34.6339 24.1161C34.3995 23.8818 34.0815 23.75 33.75 23.75Z" fill="#CE2127"/>
<path d="M55.6024 18.4288C55.2163 16.9865 54.5498 15.6345 53.641 14.4499C52.7321 13.2653 51.5989 12.2714 50.3059 11.5248C49.0129 10.7783 47.5854 10.2939 46.1051 10.0992C44.6249 9.90445 43.1208 10.0033 41.6786 10.39C39.302 11.156 37.199 12.5955 35.6249 14.5338C35.5021 14.6838 35.3469 14.8037 35.1708 14.8845C34.9946 14.9653 34.8024 15.0048 34.6086 15H25.3961C25.2025 15.0045 25.0103 14.9649 24.8343 14.8842C24.6581 14.8033 24.5028 14.6835 24.3799 14.5338C22.8051 12.5952 20.7011 11.1555 18.3236 10.39C16.8814 10.0029 15.377 9.90379 13.8964 10.0983C12.4158 10.2929 10.9881 10.7772 9.6948 11.5238C8.40152 12.2703 7.26799 13.2644 6.35904 14.4492C5.45008 15.634 4.78349 16.9863 4.39738 18.4288C-0.715123 37.5113 0.391129 47.75 7.77988 49.7288C12.3636 50.9588 16.5299 48.1038 20.1936 41.2375C20.3411 41.2463 20.4836 41.25 20.6249 41.25C22.9875 41.2574 25.2639 40.3633 26.9899 38.75H33.0099C34.7359 40.3633 37.0123 41.2574 39.3749 41.25C39.5161 41.25 39.6586 41.25 39.8061 41.2375C42.9149 47.0675 46.3936 50.0063 50.1811 50.0063C50.8704 50.0038 51.5563 49.9105 52.2211 49.7288C59.6086 47.75 60.7149 37.5113 55.6024 18.4288ZM51.5724 47.315C48.1211 48.2388 44.7836 45.5563 41.6399 39.345C41.5219 39.1123 41.3341 38.9224 41.1028 38.8018C40.8715 38.6812 40.6081 38.636 40.3499 38.6725C40.0271 38.721 39.7013 38.7469 39.3749 38.75C38.4489 38.7525 37.5321 38.5662 36.6805 38.2023C35.829 37.8384 35.0606 37.3046 34.4224 36.6338C34.3056 36.5123 34.1654 36.4157 34.0104 36.3497C33.8553 36.2838 33.6884 36.2499 33.5199 36.25H26.4799C26.3114 36.2499 26.1445 36.2838 25.9894 36.3497C25.8344 36.4157 25.6941 36.5123 25.5774 36.6338C24.9391 37.3046 24.1708 37.8384 23.3193 38.2023C22.4676 38.5662 21.5509 38.7525 20.6249 38.75C20.2985 38.7469 19.9726 38.721 19.6499 38.6725C19.3916 38.636 19.1283 38.6812 18.897 38.8018C18.6656 38.9224 18.4779 39.1123 18.3599 39.345C15.2161 45.5563 11.8736 48.24 8.42738 47.315C2.82363 45.815 2.26488 36.0475 6.81113 19.0763C7.31734 17.1934 8.42899 15.5294 9.9746 14.341C11.5202 13.1525 13.4139 12.5057 15.3636 12.5C16.1438 12.5005 16.9204 12.6035 17.6736 12.8063C19.5204 13.426 21.1559 14.5522 22.3936 16.0563C22.7506 16.5097 23.2065 16.8754 23.7264 17.1257C24.2464 17.3758 24.8166 17.5039 25.3936 17.5H34.6061C35.1834 17.5037 35.7538 17.3753 36.2738 17.1247C36.7938 16.8739 37.2495 16.5077 37.6061 16.0538C38.8441 14.5499 40.4795 13.4238 42.3261 12.8038C44.5981 12.1966 47.0183 12.516 49.055 13.6918C51.0916 14.8677 52.5784 16.8038 53.1886 19.075C57.7349 36.0475 57.1761 45.8125 51.5724 47.315Z" fill="#CE2127"/>
</svg>
