<svg width="60" height="60" viewBox="0 0 60 60" fill="none" xmlns="http://www.w3.org/2000/svg">
<g clip-path="url(#clip0_1_357)">
<path d="M57.5 22.4999H52.9398L50.8125 18.7968C50.1793 17.6903 49.2213 16.8051 48.0683 16.2611L39.3354 12.1244C37.6268 11.3112 35.7062 11.0547 33.8441 11.391L11.1124 15.4574C10.8948 14.6659 10.4237 13.9675 9.7712 13.4692C9.11874 12.971 8.32093 12.7004 7.5 12.6989H3.75C2.75577 12.7 1.80257 13.0955 1.09955 13.7985C0.396522 14.5015 0.00108566 15.4547 0 16.4489L0 32.7428C0.00108566 33.737 0.396522 34.6902 1.09955 35.3933C1.80257 36.0963 2.75577 36.4917 3.75 36.4928H7.5C8.40832 36.4913 9.28528 36.1605 9.9682 35.5616C10.6511 34.9627 11.0936 34.1364 11.2137 33.2361L16.9409 35.88C17.1244 35.9645 17.3137 36.0276 17.5 36.1027V46.2503C17.5007 46.9131 17.7644 47.5485 18.2331 48.0171C18.7018 48.4858 19.3372 48.7493 20 48.7499H57.5C58.1629 48.7493 58.7984 48.4857 59.2671 48.017C59.7358 47.5483 59.9993 46.9128 60 46.25V24.9999C59.9993 24.3371 59.7357 23.7016 59.267 23.2329C58.7983 22.7643 58.1628 22.5006 57.5 22.4999ZM8.75004 32.7428C8.74961 33.0742 8.61777 33.3919 8.38343 33.6262C8.1491 33.8606 7.8314 33.9924 7.5 33.9929H3.75C3.4186 33.9924 3.1009 33.8606 2.86657 33.6262C2.63223 33.3919 2.5004 33.0742 2.49996 32.7428V16.4489C2.5004 16.1176 2.63224 15.7999 2.86658 15.5656C3.10092 15.3313 3.41862 15.1995 3.75 15.1991H7.5C7.83142 15.1995 8.14915 15.3313 8.3835 15.5657C8.61785 15.8 8.74967 16.1178 8.75004 16.4492V32.7428ZM11.25 30.4997V17.9737L34.2847 13.8524C35.6346 13.6091 37.0268 13.7951 38.2655 14.3843L46.999 18.5211C47.6904 18.8476 48.2648 19.3787 48.6445 20.0424L50.0568 22.4999H24.7734C24.5495 22.4999 24.3297 22.5601 24.137 22.6741C23.9442 22.7881 23.7857 22.9518 23.6779 23.1481C23.5701 23.3444 23.517 23.566 23.5242 23.7898C23.5314 24.0137 23.5986 24.2314 23.7188 24.4204L25.1585 26.6867C25.6218 27.4137 26.23 28.0374 26.9452 28.5188C27.6604 29.0001 28.4672 29.3288 29.3152 29.4843L39.1986 31.2811C39.5914 31.3527 39.9432 31.5685 40.1848 31.8863C40.4265 32.204 40.5407 32.6006 40.5048 32.9982C40.4689 33.3958 40.2856 33.7656 39.991 34.0349C39.6963 34.3043 39.3116 34.4537 38.9123 34.4538H21.8372C20.5079 34.4558 19.1942 34.1678 17.9877 33.61L11.25 30.4997ZM42.1884 30.4114C43.0437 30.9753 43.7471 31.7409 44.2368 32.6406C44.7265 33.5404 44.9875 34.5468 44.9967 35.5712C45.0058 36.5956 44.763 37.6065 44.2895 38.5149C43.8161 39.4233 43.1265 40.2014 42.2815 40.7806C41.4366 41.3598 40.4621 41.7223 39.4441 41.8362C38.426 41.9502 37.3956 41.812 36.4435 41.434C35.4914 41.0559 34.6468 40.4496 33.9842 39.6683C33.3217 38.887 32.8614 37.9548 32.6439 36.9537H38.9122C39.6728 36.9566 40.4191 36.747 41.067 36.3485C41.7149 35.9501 42.2386 35.3786 42.5791 34.6985C42.9197 34.0184 43.0636 33.2567 42.9945 32.4993C42.9255 31.7418 42.6462 31.0187 42.1883 30.4114H42.1884ZM57.5 46.25H20V36.7929C20.6072 36.8947 21.2215 36.9484 21.8372 36.9536H22.5V39.7734C22.5 40.1049 22.6317 40.4228 22.8661 40.6573C23.1006 40.8917 23.4185 41.0234 23.75 41.0234C24.1414 41.024 24.5166 41.1798 24.7934 41.4566C25.0702 41.7334 25.226 42.1086 25.2266 42.5C25.2266 42.8315 25.3583 43.1494 25.5927 43.3839C25.8272 43.6183 26.1451 43.75 26.4766 43.75H28.7501C28.9152 43.7516 29.0791 43.7205 29.2322 43.6584C29.3852 43.5963 29.5244 43.5044 29.6418 43.3882C29.7592 43.272 29.8523 43.1336 29.9159 42.9812C29.9795 42.8287 30.0122 42.6652 30.0122 42.5C30.0122 42.3348 29.9795 42.1713 29.9159 42.0189C29.8523 41.8664 29.7592 41.7281 29.6418 41.6118C29.5244 41.4956 29.3852 41.4038 29.2322 41.3417C29.0791 41.2796 28.9152 41.2484 28.7501 41.25H27.5256C27.3294 40.662 26.9991 40.1276 26.5608 39.6892C26.1224 39.2509 25.588 38.9206 25 38.7244V36.9537H30.112C30.759 41.1422 34.3977 44.375 38.7499 44.375C40.0602 44.3743 41.3536 44.0793 42.5347 43.5119C43.7158 42.9444 44.7543 42.119 45.5737 41.0965C46.393 40.0739 46.9723 38.8804 47.2686 37.6041C47.565 36.3277 47.5709 35.0011 47.286 33.7222C47.0011 32.4432 46.4326 31.2446 45.6224 30.2148C44.8122 29.185 43.7811 28.3502 42.6052 27.7722C41.4293 27.1942 40.1385 26.8877 38.8283 26.8753C37.5181 26.8629 36.2218 27.1449 35.0351 27.7005C34.9169 27.7578 34.8087 27.8335 34.7143 27.9249L29.7622 27.0245C29.2533 26.9314 28.7692 26.7343 28.34 26.4454C27.9107 26.1566 27.5457 25.7824 27.2678 25.3461L27.048 25H57.5V46.25Z" fill="#CE2127"/>
<path d="M51.0234 27.5001H48.7499C48.5848 27.4985 48.4209 27.5296 48.2679 27.5917C48.1148 27.6538 47.9756 27.7456 47.8582 27.8619C47.7409 27.9781 47.6477 28.1164 47.5841 28.2689C47.5205 28.4213 47.4878 28.5849 47.4878 28.75C47.4878 28.9152 47.5205 29.0788 47.5841 29.2312C47.6477 29.3837 47.7409 29.522 47.8582 29.6382C47.9756 29.7544 48.1148 29.8463 48.2679 29.9084C48.4209 29.9705 48.5848 30.0016 48.7499 30H49.9743C50.1704 30.5881 50.5008 31.1225 50.9391 31.5608C51.3775 31.9992 51.9118 32.3295 52.4999 32.5256V38.7249C51.9119 38.921 51.3776 39.2512 50.9392 39.6895C50.5009 40.1277 50.1705 40.662 49.9743 41.25H48.7499C48.5848 41.2484 48.4209 41.2796 48.2679 41.3417C48.1148 41.4038 47.9756 41.4956 47.8582 41.6118C47.7409 41.7281 47.6477 41.8664 47.5841 42.0188C47.5205 42.1713 47.4878 42.3348 47.4878 42.5C47.4878 42.6652 47.5205 42.8287 47.5841 42.9812C47.6477 43.1336 47.7409 43.2719 47.8582 43.3882C47.9756 43.5044 48.1148 43.5962 48.2679 43.6583C48.4209 43.7204 48.5848 43.7516 48.7499 43.75H51.0234C51.3549 43.75 51.6729 43.6183 51.9073 43.3839C52.1417 43.1494 52.2734 42.8315 52.2734 42.4999C52.2741 42.1085 52.4298 41.7333 52.7066 41.4566C52.9834 41.1798 53.3586 41.024 53.75 41.0234C54.0815 41.0233 54.3994 40.8917 54.6338 40.6573C54.8682 40.4229 54.9999 40.1049 54.9999 39.7735V31.4766C54.9999 31.1451 54.8682 30.8271 54.6338 30.5927C54.3993 30.3582 54.0814 30.2265 53.7499 30.2265C53.3584 30.226 52.9832 30.0702 52.7064 29.7934C52.4296 29.5166 52.2739 29.1414 52.2733 28.75C52.2733 28.4185 52.1416 28.1006 51.9072 27.8662C51.6728 27.6318 51.3549 27.5001 51.0234 27.5001Z" fill="#CE2127"/>
</g>
<defs>
<clipPath id="clip0_1_357">
<rect width="60" height="60" fill="white"/>
</clipPath>
</defs>
</svg>
