<svg width="108" height="108" viewBox="0 0 108 108" fill="none" xmlns="http://www.w3.org/2000/svg">
<g clip-path="url(#clip0_1_1609)">
<path d="M28.6251 3.95175C29.4414 3.81928 30.3253 3.80578 31.0901 4.16691C32.2224 4.62338 33.0236 5.70759 33.2978 6.87619C33.391 7.70728 33.364 8.58816 32.9709 9.34711C32.257 10.9161 30.3582 11.821 28.6914 11.386C26.9811 11.0034 25.7083 9.35766 25.7247 7.60941C25.6918 5.90798 26.9942 4.3538 28.6251 3.95175Z" fill="white"/>
<path d="M77.5441 3.94561C78.371 3.81609 79.2624 3.8144 80.0302 4.19409C81.3013 4.75434 82.1624 6.08072 82.2543 7.45561C82.2531 8.51409 81.8991 9.6194 81.1144 10.3602C80.4474 11.0635 79.4864 11.452 78.5275 11.4955C77.0429 11.5166 75.5461 10.6298 74.9648 9.24478C74.5884 8.50523 74.6348 7.65305 74.6834 6.8519C74.9647 5.43947 76.1481 4.27214 77.5441 3.94561Z" fill="white"/>
<path d="M19.8281 61.6011C39.3778 61.5922 58.9318 61.5905 78.4688 61.6011C78.2258 69.3326 78.4261 77.0653 78.3792 84.7964C58.902 84.7964 39.4248 84.7981 19.9347 84.7951C19.8878 77.0636 20.101 69.3326 19.8281 61.6011Z" fill="white"/>
<path d="M77.5441 3.946C76.1481 4.27253 74.9648 5.43985 74.6834 6.85229C74.6349 7.65343 74.5885 8.50562 74.9648 9.24517C75.5461 10.6302 77.0429 11.517 78.5275 11.4959C79.4864 11.4524 80.4475 11.0639 81.1145 10.3606C81.8991 9.61979 82.2531 8.51448 82.2544 7.456C82.1624 6.0811 81.3013 4.75473 80.0302 4.19448C79.2624 3.81479 78.371 3.81648 77.5441 3.946ZM28.6252 3.9519C26.9942 4.35395 25.6919 5.90814 25.7248 7.60956C25.7083 9.35781 26.9807 11.0035 28.6914 11.3862C30.3583 11.8211 32.2571 10.9162 32.9709 9.34726C33.3641 8.58831 33.3911 7.70743 33.2979 6.87634C33.0237 5.70775 32.2225 4.62353 31.0902 4.16706C30.3253 3.80593 29.4415 3.81943 28.6252 3.9519ZM9.90786 0.589558C11.1279 0.0550423 12.4771 -0.0263795 13.7916 0.00694859C40.8975 0.00990171 68.0034 0.00694859 95.1093 0.00526109C98.0667 -0.0440983 100.948 1.78389 102.143 4.49232C102.647 5.56009 102.861 6.74514 102.84 7.92259C102.828 10.558 102.867 13.1931 102.825 15.8268C101.95 15.494 101.008 15.4054 100.079 15.3991C69.4083 15.4054 38.7384 15.402 8.06807 15.4037C7.09691 15.4294 6.10297 15.4712 5.18582 15.8285C5.14658 13.0906 5.16768 10.3534 5.15882 7.61715C5.14068 4.59948 7.10577 1.70246 9.90786 0.589558Z" fill="#C7C7C7"/>
<path d="M77.0894 38.6923C77.5231 38.513 77.9956 38.5223 78.455 38.5581C78.428 46.2742 78.4584 53.9911 78.4403 61.7068L78.4386 61.776C76.5051 61.7655 74.57 61.7671 72.6353 61.776V61.7085C72.6323 56.3735 72.6306 51.0401 72.6365 45.7047C68.7789 46.9876 64.9285 48.2916 61.0691 49.5669C61.0573 47.825 61.078 46.0827 61.0586 44.3408C66.3953 42.4385 71.7497 40.5835 77.0894 38.6923Z" fill="#C7C7C7"/>
<path d="M29.8825 41.4646C32.2994 39.6231 35.3242 38.6713 38.3453 38.5583C41.3419 38.4528 44.4435 38.9375 47.065 40.4601C49.139 41.6481 50.7801 43.5499 51.6744 45.7635C52.5658 47.9741 52.8489 50.418 52.5781 52.7805C51.998 56.5647 49.0757 59.6216 45.6602 61.1332C46.1483 61.2809 46.6242 61.4661 47.0789 61.6964C46.779 61.7538 46.4765 61.7867 46.1723 61.7778C42.143 61.7492 38.1133 61.8048 34.0865 61.7504C34.0717 60.8759 34.0506 59.9996 34.1063 59.1259C37.0109 59.0567 40.0754 59.412 42.7931 58.1383C45.0261 57.1959 46.687 55.0603 47.0022 52.6497C47.273 50.353 47.041 47.8416 45.68 45.8976C44.6093 44.3586 42.7948 43.5064 40.9803 43.2369C38.5318 42.8951 35.8469 43.139 33.7916 44.6253C31.7678 46.0482 30.6971 48.5597 30.7482 50.9977C28.8839 51.0475 27.0184 51.0095 25.1528 51.0158C25.1891 49.9919 25.2672 48.9617 25.5338 47.9695C26.175 45.3842 27.7579 43.0605 29.8825 41.4646Z" fill="#C7C7C7"/>
<path d="M5.18569 15.8279C6.10285 15.471 7.09679 15.4288 8.06794 15.4031C38.7383 15.4018 69.4081 15.4048 100.078 15.3984C101.007 15.4048 101.95 15.4938 102.825 15.8262C105.476 16.7826 107.622 19.2371 107.9 22.0801C107.36 20.1315 106.195 18.3182 104.453 17.2446C103.191 16.4573 101.718 16.0026 100.228 16.0161C69.4596 16.0372 38.6897 16.0372 7.92029 16.0372C5.60293 15.995 3.26743 16.9948 1.79044 18.7987C1.07326 19.5653 0.698631 20.5546 0.197021 21.4566C0.69399 18.8637 2.72237 16.7029 5.18569 15.8279Z" fill="#4483EF"/>
<path d="M72.5268 61.7176L72.6352 61.7087V61.7762C72.6622 69.4666 72.6411 77.1565 72.6457 84.8469C74.5745 84.8498 76.5021 84.8486 78.4296 84.8486C78.4339 77.1582 78.4144 69.4666 78.4385 61.7762L78.4402 61.707L78.5334 61.7146C79.3839 61.8171 80.2424 61.7551 81.0976 61.7644C88.3454 61.7598 95.594 61.7509 102.841 61.7644C103.679 73.8845 104.466 86.0079 105.295 98.1279C105.376 99.5134 105.552 100.936 105.168 102.295L105.133 102.338C104.778 102.737 104.573 103.234 104.319 103.698C102.959 105.917 100.432 107.411 97.8123 107.386C68.899 107.369 39.988 107.399 11.0764 107.389C10.1698 107.389 9.2455 107.435 8.36125 107.197C6.36325 106.652 4.55172 105.344 3.54597 103.514C3.33504 103.114 3.13929 102.703 2.85747 102.347L2.82161 102.297C2.33814 100.482 2.73133 98.5992 2.79166 96.7594C3.58647 85.1013 4.34374 73.439 5.14952 61.7809C14.7851 61.7568 24.4225 61.7674 34.0577 61.775C34.0669 62.3289 34.0716 62.8832 34.064 63.4371C37.1175 63.4958 40.3132 63.13 43.2056 64.3391C45.1585 65.1014 46.7624 66.7337 47.3801 68.7498C48.0605 70.9811 47.9821 73.4508 47.1826 75.642C46.4372 77.6957 44.6514 79.2828 42.5656 79.8958C40.0331 80.6454 37.2124 80.5809 34.7732 79.5342C32.8743 78.7229 31.3248 77.0873 30.7392 75.094C30.4608 74.2156 30.3523 73.2926 30.3355 72.3758C28.4893 72.3876 26.6432 72.3834 24.7971 72.3775C24.8317 74.7126 25.3983 77.0844 26.7018 79.0448C28.0919 81.1892 30.2481 82.7552 32.6111 83.6736C35.6059 84.8422 38.9156 85.103 42.0821 84.6178C45.1618 84.1301 48.1778 82.7506 50.2695 80.391C52.1907 78.2589 53.1846 75.407 53.3154 72.5627C53.4918 69.8475 52.867 66.9957 51.1428 64.839C50.1733 63.5624 48.8402 62.6406 47.4792 61.8306C48.1415 61.748 48.8102 61.7657 49.4772 61.769C56.3048 61.7627 63.132 61.7703 69.9592 61.7657C70.8144 61.7479 71.6741 61.8184 72.5268 61.7176Z" fill="#4483EF"/>
<path d="M1.79023 18.7991C3.26721 16.9952 5.60271 15.9953 7.92007 16.0375C38.6899 16.0375 69.4594 16.0375 100.228 16.0164C101.718 16.0029 103.191 16.4577 104.453 17.2449C106.195 18.3186 107.361 20.1318 107.9 22.0804C108.049 22.7685 108.008 23.4823 107.93 24.178C106.258 36.6988 104.525 49.2116 102.876 61.7354C95.9211 61.7236 88.9656 61.7418 82.0119 61.7342C80.8521 61.7249 79.6911 61.7776 78.5335 61.7147L78.4398 61.7072C78.458 53.9911 78.428 46.2741 78.455 38.558C77.9956 38.5222 77.5231 38.5129 77.0894 38.6922C71.7498 40.5835 66.3953 42.4389 61.0586 44.3407C61.078 46.0826 61.0569 47.8249 61.0691 49.5673C64.9285 48.292 68.7789 46.9875 72.6365 45.7046C72.6306 51.04 72.6319 56.3734 72.6353 61.7084L72.5268 61.7173C64.445 61.7776 56.3606 61.719 48.2787 61.7493C47.8797 61.7401 47.4582 61.8637 47.0789 61.6966C46.6237 61.4663 46.1483 61.2811 45.6602 61.1334C49.0752 59.6214 51.998 56.5649 52.5781 52.7807C52.8489 50.4182 52.5658 47.9743 51.6744 45.7637C50.78 43.5501 49.1385 41.6483 47.065 40.4603C44.4435 38.9377 41.3414 38.453 38.3449 38.558C35.3242 38.6711 32.299 39.6228 29.8825 41.4648C27.7579 43.0607 26.175 45.384 25.5338 47.9696C25.2671 48.9619 25.1887 49.9917 25.1524 51.016C27.0184 51.0097 28.8839 51.0472 30.7481 50.9979C30.6971 48.5598 31.7678 46.048 33.7916 44.625C35.8469 43.1387 38.5317 42.8949 40.9803 43.2366C42.7948 43.5062 44.6093 44.3584 45.68 45.8974C47.041 47.8414 47.273 50.3532 47.0017 52.6495C46.687 55.0605 45.0261 57.1956 42.7931 58.1385C40.0754 59.4122 37.0109 59.0569 34.1063 59.1261L34.0341 59.1274C34.0641 60.0024 34.0295 60.879 34.0535 61.7552C24.4133 61.7401 14.7717 61.7371 5.13021 61.7565C3.48574 49.4888 1.81596 37.2241 0.162632 24.958C-0.0276331 23.8013 -0.09218 22.6015 0.197226 21.4569C0.698414 20.5549 1.07346 19.5656 1.79023 18.7991Z" fill="#3664D0"/>
<path d="M2.85767 102.347C3.13906 102.702 3.33523 103.113 3.54574 103.514C4.55192 105.343 6.36345 106.652 8.36145 107.197C9.24528 107.435 10.17 107.388 11.0762 107.388C39.9877 107.399 68.8993 107.369 97.812 107.385C100.432 107.411 102.959 105.917 104.319 103.698C104.573 103.234 104.778 102.737 105.133 102.338C104.495 104.809 102.507 106.86 100.077 107.621C98.7216 108.095 97.2687 107.975 95.8609 107.991C67.7007 107.991 39.5405 107.989 11.3808 107.989C10.2574 107.998 9.10817 108.009 8.0269 107.658C5.54838 106.923 3.51115 104.852 2.85767 102.347Z" fill="#3664D0"/>
</g>
<defs>
<clipPath id="clip0_1_1609">
<rect width="108" height="108" fill="white"/>
</clipPath>
</defs>
</svg>
