<svg width="41" height="40" viewBox="0 0 41 40" fill="none" xmlns="http://www.w3.org/2000/svg">
<path fill-rule="evenodd" clip-rule="evenodd" d="M18.0509 0.202008C17.8167 -0.0322417 17.4489 -0.0668452 17.1751 0.119603L0.9682 11.1543C0.787312 11.2775 0.675605 11.4791 0.667183 11.6978C0.658769 11.9165 0.754623 12.1262 0.92551 12.2629L3.7721 14.5403L1.55833 16.754C1.30611 17.0063 1.28783 17.4092 1.51617 17.6833L4.2233 20.9319C2.94789 21.4378 2.04603 22.6828 2.04603 24.1384C2.04603 26.0429 3.58987 27.5868 5.4943 27.5868H6.18391V29.2893C6.18391 31.4703 7.32865 33.4915 9.19934 34.6129L16.0568 38.724C18.8946 40.4253 22.4387 40.4253 25.2766 38.724L32.134 34.6129C34.0047 33.4915 35.1494 31.4703 35.1494 29.2893V27.5868H35.8391C37.7435 27.5868 39.2873 26.0429 39.2873 24.1384C39.2873 22.6828 38.3854 21.4378 37.11 20.9319L39.8172 17.6833C40.0455 17.4092 40.0273 17.0063 39.775 16.754L37.5612 14.5403L40.4079 12.2629C40.566 12.1365 40.6604 11.9468 40.6664 11.7444C40.6723 11.542 40.5889 11.3472 40.4384 11.2117L30.0936 1.90122C29.8706 1.70063 29.5437 1.66703 29.2847 1.81813L26.0102 3.72829L25.4848 0.576301C25.4453 0.338749 25.2847 0.139051 25.0611 0.0494823C24.8375 -0.0400866 24.5835 -0.00655203 24.3908 0.137948L20.7314 2.88257L18.0509 0.202008ZM35.516 20.6901L38.3543 17.284L36.041 14.9708C35.9023 14.832 35.8292 14.6408 35.8401 14.4449C35.851 14.249 35.9448 14.0671 36.0979 13.9445L38.9117 11.6934L29.5449 3.26318L25.8417 5.42341C25.6459 5.53764 25.4065 5.54834 25.2012 5.45202C24.9961 5.35571 24.8512 5.1647 24.814 4.94107L24.3108 1.9221L21.0805 4.34492C20.8059 4.55085 20.4217 4.52355 20.179 4.28086L17.4793 1.58114L2.51615 11.769L5.23543 13.9445C5.38861 14.0671 5.48235 14.249 5.49321 14.4449C5.50405 14.6408 5.43097 14.832 5.29227 14.9708L2.97898 17.284L5.81727 20.6901H6.18391V17.9315C6.18391 17.6815 6.31904 17.4513 6.53714 17.3294L18.2612 10.7775C18.4344 10.6808 18.6409 10.6633 18.828 10.7295C19.0149 10.7957 19.1643 10.9392 19.238 11.1234L21.0037 15.5378L26.5139 12.1704C26.7453 12.029 27.038 12.0364 27.2621 12.189L34.8483 17.3616C35.0367 17.4901 35.1494 17.7034 35.1494 17.9315V20.6901H35.516ZM35.8391 26.2074H35.1494V22.0694H35.8391C36.9817 22.0694 37.908 22.9958 37.908 24.1384C37.908 25.2811 36.9817 26.2074 35.8391 26.2074ZM6.18391 22.0694H5.4943C4.35165 22.0694 3.42534 22.9958 3.42534 24.1384C3.42534 25.2811 4.35165 26.2074 5.4943 26.2074H6.18391V22.0694ZM7.56322 18.3361V29.2893C7.56322 30.9857 8.45357 32.5576 9.90856 33.4299L16.766 37.541C19.1672 38.9806 22.1661 38.9806 24.5673 37.541L31.4248 33.4299C32.8798 32.5576 33.7701 30.9857 33.7701 29.2893V18.2959L26.8531 13.5796L21.0263 17.1406C20.853 17.2465 20.6418 17.2706 20.4492 17.2065C20.2564 17.1425 20.1017 16.9968 20.0263 16.8083L18.2489 12.3646L7.56322 18.3361ZM16.5288 24.1383C16.5288 25.281 15.6025 26.2074 14.4598 26.2074C13.3171 26.2074 12.3908 25.281 12.3908 24.1383C12.3908 22.9957 13.3171 22.0694 14.4598 22.0694C15.6025 22.0694 16.5288 22.9957 16.5288 24.1383ZM26.8736 26.2074C28.0163 26.2074 28.9426 25.281 28.9426 24.1383C28.9426 22.9957 28.0163 22.0694 26.8736 22.0694C25.7309 22.0694 24.8046 22.9957 24.8046 24.1383C24.8046 25.281 25.7309 26.2074 26.8736 26.2074ZM14.4599 19.3107C13.9953 19.3107 13.5991 19.3915 13.3891 19.4965C13.0484 19.6669 12.6341 19.5288 12.4637 19.1881C12.2934 18.8474 12.4315 18.4332 12.7722 18.2628C13.2518 18.023 13.8901 17.9314 14.4599 17.9314C15.0298 17.9314 15.668 18.023 16.1477 18.2628C16.4884 18.4332 16.6265 18.8474 16.4561 19.1881C16.2858 19.5288 15.8716 19.6669 15.5309 19.4965C15.3209 19.3915 14.9246 19.3107 14.4599 19.3107ZM25.8029 19.4965C26.0129 19.3915 26.4091 19.3107 26.8737 19.3107C27.3384 19.3107 27.7347 19.3915 27.9447 19.4965C28.2854 19.6669 28.6996 19.5288 28.8699 19.1881C29.0403 18.8474 28.9022 18.4332 28.5615 18.2628C28.0818 18.023 27.4436 17.9314 26.8737 17.9314C26.3039 17.9314 25.6656 18.023 25.186 18.2628C24.8453 18.4332 24.7072 18.8474 24.8775 19.1881C25.048 19.5288 25.4622 19.6669 25.8029 19.4965ZM15.8391 29.6558C16.2199 29.6558 16.5287 29.9646 16.5287 30.3454C16.5287 30.7821 16.6289 31.2179 16.8275 31.6289C17.0263 32.0403 17.3214 32.4217 17.7018 32.7478C18.0825 33.074 18.5399 33.3374 19.0499 33.5185C19.5601 33.6996 20.1097 33.7938 20.6667 33.7938C21.2236 33.7938 21.7732 33.6996 22.2834 33.5185C22.7935 33.3374 23.2508 33.074 23.6315 32.7478C24.0119 32.4217 24.307 32.0403 24.5058 31.6289C24.7044 31.2179 24.8046 30.7821 24.8046 30.3454C24.8046 29.9646 25.1134 29.6558 25.4942 29.6558C25.8751 29.6558 26.1839 29.9646 26.1839 30.3454C26.1839 30.9955 26.0343 31.6359 25.7477 32.229C25.4613 32.8216 25.0452 33.3527 24.5291 33.7951C24.0131 34.2373 23.4061 34.5836 22.7449 34.8183C22.0836 35.0532 21.3776 35.1731 20.6667 35.1731C19.9557 35.1731 19.2498 35.0532 18.5885 34.8183C17.9272 34.5836 17.3202 34.2373 16.8043 33.7951C16.2881 33.3527 15.872 32.8216 15.5856 32.229C15.299 31.6359 15.1494 30.9955 15.1494 30.3454C15.1494 29.9646 15.4582 29.6558 15.8391 29.6558Z" fill="#CE2127"/>
</svg>
