<svg width="41" height="40" viewBox="0 0 41 40" fill="none" xmlns="http://www.w3.org/2000/svg">
<path d="M29.0013 16.4632C31.0013 15.1824 32.3333 12.9464 32.3333 10.4C32.3333 6.42965 29.1029 3.20005 25.1333 3.20005C24.4477 3.20005 23.7693 3.30245 23.1085 3.49845C21.6413 1.84805 19.5101 0.800049 17.1333 0.800049C12.7221 0.800049 9.13334 4.38885 9.13334 8.80005C9.13334 11.5448 10.5245 13.9712 12.6373 15.412C7.90374 16.3848 4.33334 20.5833 4.33334 25.6V39.2001H29.9333V36H36.3333V26.4C36.3333 21.7328 33.2429 17.7752 29.0013 16.4632ZM24.1109 4.89605C24.4485 4.83205 24.7901 4.80005 25.1333 4.80005C28.2213 4.80005 30.7333 7.31285 30.7333 10.4C30.7333 13.4872 28.2213 16 25.1333 16C24.0349 16 22.9773 15.68 22.0725 15.0848C22.0845 15.0752 22.0941 15.0648 22.1061 15.0552C22.7925 14.508 23.3853 13.8512 23.8621 13.1104C23.8805 13.0816 23.8973 13.0512 23.9157 13.0224C24.0501 12.8072 24.1749 12.5856 24.2885 12.3568C24.3093 12.3144 24.3301 12.2712 24.3501 12.2288C24.4541 12.0112 24.5477 11.788 24.6325 11.56C24.6517 11.5088 24.6709 11.4576 24.6893 11.4056C24.7661 11.1848 24.8309 10.96 24.8885 10.7304C24.9037 10.6712 24.9205 10.612 24.9341 10.5528C24.9845 10.3272 25.0237 10.0976 25.0541 9.86485C25.0629 9.80245 25.0757 9.74165 25.0821 9.67925C25.1141 9.39125 25.1333 9.09765 25.1333 8.80005C25.1333 8.48325 25.1101 8.17205 25.0741 7.86485C25.0629 7.76805 25.0445 7.67285 25.0301 7.57605C24.9965 7.36005 24.9565 7.14725 24.9061 6.93765C24.8821 6.83685 24.8565 6.73685 24.8285 6.63765C24.7629 6.40485 24.6869 6.17765 24.6013 5.95365C24.5781 5.89365 24.5597 5.83205 24.5349 5.77205C24.4133 5.47525 24.2741 5.18805 24.1189 4.91045C24.1157 4.90565 24.1133 4.90085 24.1109 4.89605ZM10.7333 8.80005C10.7333 5.27125 13.6045 2.40005 17.1333 2.40005C19.1149 2.40005 20.8877 3.30565 22.0629 4.72325L22.1141 4.78965C22.1533 4.83765 22.1877 4.88965 22.2253 4.93845C22.6317 5.47365 22.9429 6.05685 23.1621 6.67205C23.1773 6.71445 23.1941 6.75525 23.2077 6.79765C23.3029 7.08325 23.3741 7.37685 23.4277 7.67445C23.4389 7.73765 23.4477 7.80165 23.4573 7.86565C23.5021 8.17365 23.5333 8.48405 23.5333 8.80005C23.5333 9.06245 23.5133 9.32165 23.4813 9.57845C23.4741 9.63925 23.4629 9.69845 23.4541 9.75845C23.4213 9.96965 23.3805 10.1784 23.3269 10.384C23.3157 10.428 23.3053 10.472 23.2933 10.516C23.1485 11.0304 22.9421 11.524 22.6765 11.9848C22.6709 11.9936 22.6653 12.0024 22.6605 12.0112C22.5317 12.232 22.3893 12.444 22.2349 12.6488C22.2205 12.668 22.2061 12.688 22.1917 12.7072C21.8653 13.1296 21.4853 13.512 21.0581 13.8448C21.0357 13.8624 21.0125 13.8784 20.9901 13.896C20.7869 14.0496 20.5749 14.1936 20.3525 14.3232C20.3269 14.3384 20.3021 14.3544 20.2765 14.3696L20.1525 14.4416C19.2517 14.924 18.2245 15.2 17.1333 15.2C13.6045 15.2 10.7333 12.3288 10.7333 8.80005ZM28.3333 37.6H5.93334V25.6C5.93334 20.748 9.88134 16.8 14.7333 16.8H19.5333C20.7293 16.8 21.8701 17.0416 22.9109 17.476L23.0645 17.5448C23.1533 17.584 23.2389 17.6288 23.3261 17.6712C23.5637 17.7848 23.7933 17.9088 24.0173 18.0416C24.1189 18.1024 24.2221 18.1616 24.3213 18.2264C24.4277 18.2952 24.5301 18.368 24.6333 18.4416C24.7397 18.5176 24.8445 18.5961 24.9477 18.6768C25.0397 18.7488 25.1309 18.82 25.2197 18.8952C25.3549 19.0104 25.4853 19.1304 25.6133 19.2536C25.7141 19.3504 25.8125 19.4496 25.9085 19.5512C26.0165 19.6656 26.1237 19.7808 26.2261 19.9C26.3021 19.9896 26.3749 20.0808 26.4469 20.1728C26.5285 20.2768 26.6069 20.3825 26.6845 20.4904C26.7549 20.588 26.8253 20.6856 26.8917 20.7864C26.9829 20.9248 27.0669 21.068 27.1501 21.2112C27.2373 21.3616 27.3181 21.5144 27.3965 21.6696C27.4541 21.7832 27.5101 21.8976 27.5629 22.0144C27.6149 22.1296 27.6637 22.2472 27.7101 22.3648C27.7597 22.4904 27.8053 22.6176 27.8501 22.7456C27.8869 22.8528 27.9269 22.9592 27.9597 23.068C28.0269 23.2912 28.0853 23.5176 28.1349 23.7472C28.1541 23.8352 28.1677 23.9256 28.1845 24.0144C28.2173 24.192 28.2453 24.3713 28.2669 24.552C28.2773 24.6369 28.2877 24.7216 28.2949 24.8072C28.3165 25.0688 28.3333 25.3328 28.3333 25.6V36V37.6ZM34.7333 34.4001H29.9333V25.6C29.9333 25.22 29.9101 24.8456 29.8701 24.476C29.8605 24.3872 29.8421 24.3008 29.8301 24.2129C29.7917 23.9289 29.7477 23.6472 29.6869 23.3713C29.6661 23.2785 29.6389 23.188 29.6157 23.0961C29.5485 22.8272 29.4749 22.5608 29.3877 22.3008C29.3573 22.2104 29.3221 22.1217 29.2893 22.032C29.1957 21.7761 29.0941 21.5248 28.9813 21.2784C28.9397 21.1888 28.8965 21.1008 28.8525 21.012C28.7341 20.7728 28.6077 20.5384 28.4717 20.3096C28.4197 20.2224 28.3677 20.136 28.3141 20.0497C28.1717 19.8256 28.0205 19.6089 27.8621 19.396C27.8021 19.316 27.7445 19.2344 27.6829 19.156C27.5085 18.936 27.3237 18.7264 27.1333 18.5217C27.0773 18.4616 27.0261 18.3992 26.9685 18.34C26.7157 18.0816 26.4525 17.8336 26.1741 17.6024C30.9149 17.7304 34.7333 21.628 34.7333 26.4V34.4001Z" fill="#CE2127"/>
</svg>
