<svg width="1282" height="910" viewBox="0 0 1282 910" fill="none" xmlns="http://www.w3.org/2000/svg">
<circle cx="151" cy="-230.181" r="1131" fill="#CE2127"/>
<path opacity="0.15" fill-rule="evenodd" clip-rule="evenodd" d="M276.867 -1228.4L189.8 -1177.89L104.308 -1231.16L192.883 -1381L276.867 -1228.4ZM186.542 -968.616C177.904 -953.072 168.765 -936.531 159.181 -919.069C88.9852 -791.162 -4.79053 -614.212 -99.2647 -417.828C-193.853 -221.206 -288.465 -6.49731 -360.819 197.163C-433.823 402.654 -481.344 589.236 -487.165 732L-687 723.413C-679.872 548.576 -623.809 338.158 -548.72 126.799C-472.981 -86.3906 -374.991 -308.382 -278.595 -508.761C-182.086 -709.376 -86.4961 -889.726 -15.0728 -1019.87C20.6609 -1084.98 50.4003 -1137.63 71.2524 -1174.07C81.6797 -1192.29 89.8885 -1206.47 95.5173 -1216.14C98.3319 -1220.98 100.502 -1224.69 101.982 -1227.21C102.722 -1228.47 103.29 -1229.44 103.679 -1230.1C103.874 -1230.43 104.024 -1230.68 104.129 -1230.86L104.289 -1231.13C104.3 -1231.15 104.308 -1231.16 189.8 -1177.89C276.867 -1228.4 276.875 -1228.39 276.886 -1228.37L277.457 -1227.33C277.822 -1226.66 278.351 -1225.7 279.042 -1224.43C280.422 -1221.9 282.444 -1218.19 285.064 -1213.35C290.305 -1203.67 297.943 -1189.48 307.634 -1171.24C327.014 -1134.77 354.623 -1082.1 387.718 -1016.95C453.867 -886.747 542.147 -706.308 630.525 -505.586C718.795 -305.107 807.803 -82.9519 874.913 130.433C941.456 342.016 989 552.706 989 727.706H788.99C788.99 585.107 749.135 398.796 684.578 193.529C620.589 -9.93591 534.798 -224.481 448.271 -421.002C361.849 -617.281 275.331 -794.142 210.381 -921.987C202.062 -938.362 194.101 -953.925 186.542 -968.616Z" fill="#EEEEEE"/>
<path opacity="0.15" fill-rule="evenodd" clip-rule="evenodd" d="M25.0954 761.014L112.158 711.82L197.646 763.703L109.076 909.639L25.0954 761.014ZM115.416 507.988C124.053 492.849 133.193 476.739 142.776 459.731C212.968 335.153 306.739 162.81 401.208 -28.4634C495.791 -219.967 590.398 -429.087 662.748 -627.447C735.749 -827.589 783.267 -1009.31 789.087 -1148.36L988.912 -1140C981.785 -969.713 925.725 -764.772 850.64 -558.914C774.905 -351.274 676.919 -135.06 580.529 60.1027C484.024 255.496 388.44 431.152 317.02 557.908C281.289 621.325 251.551 672.599 230.7 708.095C220.273 725.845 212.065 739.656 206.436 749.074C203.622 753.783 201.452 757.394 199.972 759.851C199.232 761.08 198.664 762.02 198.275 762.664C198.08 762.986 197.929 763.234 197.824 763.408L197.665 763.671C197.654 763.689 197.646 763.703 112.158 711.82C25.0954 761.014 25.0876 761.001 25.0771 760.982L24.5054 759.968C24.1413 759.321 23.6115 758.378 22.9214 757.147C21.5411 754.685 19.5193 751.068 16.8989 746.353C11.6581 736.923 4.02124 723.1 -5.66949 705.337C-25.0486 669.817 -52.6556 618.514 -85.7496 555.066C-151.895 428.25 -240.171 252.508 -328.543 57.0108C-416.809 -138.25 -505.813 -354.623 -572.919 -562.454C-639.458 -768.53 -687 -973.735 -687 -1144.18H-487C-487 -1005.29 -447.147 -823.831 -382.594 -623.907C-318.608 -425.738 -232.822 -216.777 -146.299 -25.3715C-59.8821 165.798 26.6316 338.056 91.5784 462.574C99.8969 478.522 107.858 493.68 115.416 507.988Z" fill="#EEEEEE"/>
</svg>
