<svg width="61" height="60" viewBox="0 0 61 60" fill="none" xmlns="http://www.w3.org/2000/svg">
<g clip-path="url(#clip0_1_577)">
<path d="M60.4824 0H0.517578C0.50787 0 0.5 0.00787 0.5 0.0175781V59.9824C0.5 59.9921 0.50787 60 0.517578 60H60.4824C60.4921 60 60.5 59.9921 60.5 59.9824V0.0175781C60.5 0.00787 60.4921 0 60.4824 0Z" fill="#37AEE2"/>
<path d="M23.8203 47.3438C22.5312 47.3438 22.6484 46.875 22.2969 45.7031L18.5469 33.3984L47.2578 16.5234" fill="#C8DAEA"/>
<path d="M23.8203 47.3438C24.6406 47.3438 25.1094 46.875 25.6953 46.4062L30.9688 41.3672L24.4062 37.3828" fill="#A9C9DD"/>
<path d="M24.4065 37.3828L40.2268 48.9844C41.8674 50.0391 43.2737 49.4532 43.7424 47.3438L50.1877 17.1094C50.7737 14.5313 49.1331 13.3594 47.3752 14.1797L9.75805 28.711C7.29711 29.6485 7.29711 31.1719 9.2893 31.7578L19.0159 34.8047L41.2815 20.625C42.3362 20.0391 43.2737 20.2735 42.5706 21.0938" fill="#F6FBFE"/>
</g>
<defs>
<clipPath id="clip0_1_577">
<rect x="0.5" width="60" height="60" rx="10" fill="white"/>
</clipPath>
</defs>
</svg>
