<svg width="61" height="60" viewBox="0 0 61 60" fill="none" xmlns="http://www.w3.org/2000/svg">
<g clip-path="url(#clip0_1_582)">
<path d="M60.4824 0H0.517578C0.50787 0 0.5 0.00787 0.5 0.0175781V59.9824C0.5 59.9921 0.50787 60 0.517578 60H60.4824C60.4921 60 60.5 59.9921 60.5 59.9824V0.0175781C60.5 0.00787 60.4921 0 60.4824 0Z" fill="#0077FF"/>
<path d="M32.4249 43.226C18.7499 43.226 10.95 33.851 10.625 18.251H17.475C17.7 29.701 22.7499 34.551 26.7499 35.551V18.251H33.2001V28.126C37.1501 27.701 41.2996 23.201 42.6996 18.251H49.1497C48.0747 24.351 43.5748 28.851 40.3748 30.701C43.5748 32.201 48.7 36.126 50.65 43.226H43.5498C42.0247 38.476 38.2251 34.801 33.2001 34.301V43.226H32.4249Z" fill="white"/>
</g>
<defs>
<clipPath id="clip0_1_582">
<rect x="0.5" width="60" height="60" rx="10" fill="white"/>
</clipPath>
</defs>
</svg>
