<svg width="61" height="60" viewBox="0 0 61 60" fill="none" xmlns="http://www.w3.org/2000/svg">
<g clip-path="url(#clip0_1_585)">
<path d="M60.4824 0H0.517578C0.50787 0 0.5 0.00787 0.5 0.0175781V59.9824C0.5 59.9921 0.50787 60 0.517578 60H60.4824C60.4921 60 60.5 59.9921 60.5 59.9824V0.0175781C60.5 0.00787 60.4921 0 60.4824 0Z" fill="#25D366"/>
<path fill-rule="evenodd" clip-rule="evenodd" d="M30.6789 15.1733C27.1225 15.0599 23.6469 16.248 20.9042 18.5148C18.1615 20.7816 16.3402 23.9713 15.7819 27.4854C15.2237 30.9996 15.967 34.5967 17.8722 37.6018L18.2142 38.1412L16.9843 43.8515L22.6067 42.2702L23.1664 42.5783C26.2835 44.2943 29.9197 44.8138 33.3926 44.0395C36.8655 43.2652 39.9366 41.2502 42.0296 38.3727C44.1226 35.4951 45.0936 31.9527 44.7606 28.4101C44.4276 24.8676 42.8133 21.5682 40.2207 19.1312C37.6281 16.6941 34.2353 15.2868 30.6789 15.1733ZM18.9165 16.1099C22.2449 13.359 26.4626 11.9172 30.7784 12.0549C35.0942 12.1926 39.2114 13.9004 42.3576 16.8578C45.5038 19.8153 47.4627 23.8191 47.8669 28.1181C48.271 32.4171 47.0926 36.7159 44.5527 40.2079C42.0129 43.6999 38.2861 46.1451 34.0716 47.0847C30.0693 47.9771 25.8883 47.4534 22.2379 45.615L12.8439 48.2571L14.8988 38.7164C12.8383 35.1865 12.0573 31.0458 12.7006 26.996C13.378 22.7315 15.5882 18.8607 18.9165 16.1099Z" fill="white"/>
<path d="M36.5936 31.992C36.242 31.7576 35.8904 31.6404 35.5389 32.1092L34.1326 33.9842C33.7811 34.2186 33.5467 34.3357 33.0779 34.1014C31.3201 33.1639 28.8592 32.1092 26.7498 28.5936C26.6326 28.1248 26.867 27.8904 27.1014 27.6561L28.1561 26.0154C28.3904 25.7811 28.2733 25.5467 28.1561 25.3123L26.7498 21.9139C26.3983 20.9764 26.0467 21.0936 25.6951 21.0936H24.7576C24.5233 21.0936 24.0545 21.2107 23.5858 21.6795C21.0076 24.2576 22.0623 27.8904 23.9373 30.2342C24.2889 30.7029 26.6326 34.9217 31.6717 37.1482C35.4217 38.7889 36.242 38.5545 37.2967 38.3201C38.5857 38.2029 39.8748 37.1482 40.4607 36.0936C40.5779 35.742 41.1639 34.2186 40.6951 33.9842" fill="white"/>
</g>
<defs>
<clipPath id="clip0_1_585">
<rect x="0.5" width="60" height="60" rx="10" fill="white"/>
</clipPath>
</defs>
</svg>
