<svg width="40" height="40" viewBox="0 0 40 40" fill="none" xmlns="http://www.w3.org/2000/svg">
<rect y="0.0358887" width="39.8887" height="39.9282" rx="19.9444" fill="#CE2127"/>
<path d="M29.8881 24.956V27.956C29.8892 28.2345 29.8322 28.5102 29.7206 28.7653C29.6091 29.0205 29.4454 29.2496 29.2402 29.4379C29.035 29.6261 28.7927 29.7695 28.5289 29.8587C28.265 29.9479 27.9855 29.9811 27.7081 29.956C24.631 29.6216 21.6751 28.5701 19.0781 26.886C16.6619 25.3507 14.6135 23.3022 13.0781 20.886C11.3881 18.2772 10.3364 15.307 10.0081 12.216C9.98313 11.9395 10.016 11.6607 10.1046 11.3976C10.1932 11.1345 10.3357 10.8927 10.5229 10.6876C10.7101 10.4825 10.9379 10.3187 11.1919 10.2065C11.4459 10.0943 11.7205 10.0362 11.9981 10.036H14.9981C15.4834 10.0312 15.9539 10.2031 16.3219 10.5195C16.6898 10.836 16.9302 11.2754 16.9981 11.756C17.1247 12.7161 17.3596 13.6587 17.6981 14.566C17.8327 14.9239 17.8618 15.3129 17.782 15.6869C17.7023 16.0608 17.517 16.4041 17.2481 16.676L15.9781 17.946C17.4017 20.4495 19.4746 22.5224 21.9781 23.946L23.2481 22.676C23.52 22.4071 23.8633 22.2218 24.2372 22.1421C24.6112 22.0623 25.0002 22.0914 25.3581 22.226C26.2654 22.5645 27.2081 22.7994 28.1681 22.926C28.6539 22.9945 29.0975 23.2392 29.4146 23.6135C29.7318 23.9878 29.9003 24.4656 29.8881 24.956Z" stroke="white" stroke-linecap="round" stroke-linejoin="round"/>
</svg>
