<svg width="600" height="200" viewBox="0 0 600 200" fill="none" xmlns="http://www.w3.org/2000/svg">
<g filter="url(#filter0_b_1_734)">
<g clip-path="url(#clip0_1_734)">
<rect width="600" height="200" rx="30" fill="white" fill-opacity="0.3"/>
<path d="M59.84 54.288C63.704 54.288 67.136 51.816 68.096 48.192H64.328C63.632 49.896 61.736 50.928 59.84 50.928C56.576 50.928 54.416 48.528 54.416 45.48C54.416 42.432 56.576 40.032 59.84 40.032C61.736 40.032 63.632 41.064 64.328 42.768H68.096C67.136 39.144 63.704 36.672 59.84 36.672C54.68 36.672 50.912 40.56 50.912 45.48C50.912 50.4 54.68 54.288 59.84 54.288ZM82.6706 54H87.1826L78.7106 45.144L85.7186 36.96H81.4226L75.2786 44.184V36.96H71.8226V54H75.2786V46.272L82.6706 54ZM92.6866 54L101.447 42.864V54H104.903V36.96H101.903L93.1906 48.072V36.96H89.6866V54H92.6866ZM122.686 57.552H125.83V50.688H123.646V36.96H111.166V45.84C111.166 49.608 110.134 50.688 108.982 50.688H108.694V57.552H111.838V54H122.686V57.552ZM114.646 40.272H120.166V50.688H113.734C114.382 49.56 114.646 48.336 114.646 46.152V40.272ZM140.552 54H145.064L136.592 45.144L143.6 36.96H139.304L133.16 44.184V36.96H129.704V54H133.16V46.272L140.552 54ZM145.696 54H149.296L150.928 50.112H158.2L159.856 54H163.504L156.136 36.96H153.04L145.696 54ZM154.576 41.544L156.904 47.064H152.224L154.576 41.544ZM177.435 54.264C180.987 54.264 183.387 52.056 183.387 48.648C183.387 45.192 181.323 42.768 178.083 42.768C177.123 42.768 176.307 42.984 175.731 43.344L176.379 40.152H182.139V36.96H173.835L171.915 46.632L174.819 47.52C175.203 46.488 176.139 45.744 177.483 45.744C179.019 45.744 180.099 46.872 180.099 48.384C180.099 49.848 179.139 51.024 177.435 51.024C176.115 51.024 175.059 50.184 174.771 49.056H171.363C171.483 52.104 174.315 54.264 177.435 54.264ZM193.137 54.264C196.857 54.264 199.473 51.432 199.473 47.52V43.392C199.473 39.504 196.857 36.672 193.137 36.672C189.393 36.672 186.777 39.504 186.777 43.392V47.52C186.777 51.432 189.393 54.264 193.137 54.264ZM193.137 51.024C191.313 51.024 190.065 49.728 190.065 47.52V43.392C190.065 41.184 191.313 39.912 193.137 39.912C194.961 39.912 196.185 41.184 196.185 43.392V47.52C196.185 49.728 194.961 51.024 193.137 51.024ZM209.958 54L220.758 36.96H217.35L206.55 54H209.958ZM220.014 54.192C222.606 54.192 224.742 52.056 224.742 49.464C224.742 46.848 222.606 44.736 220.014 44.736C217.398 44.736 215.286 46.848 215.286 49.464C215.286 52.056 217.398 54.192 220.014 54.192ZM220.014 51.408C218.934 51.408 218.094 50.52 218.094 49.464C218.094 48.408 218.934 47.52 220.014 47.52C221.094 47.52 221.91 48.408 221.91 49.464C221.91 50.52 221.094 51.408 220.014 51.408ZM207.294 46.224C209.886 46.224 212.022 44.088 212.022 41.496C212.022 38.88 209.886 36.768 207.294 36.768C204.678 36.768 202.566 38.88 202.566 41.496C202.566 44.088 204.678 46.224 207.294 46.224ZM207.294 43.44C206.214 43.44 205.374 42.552 205.374 41.496C205.374 40.44 206.214 39.552 207.294 39.552C208.374 39.552 209.214 40.44 209.214 41.496C209.214 42.552 208.374 43.44 207.294 43.44ZM52.256 84H54.488V76.32H63.824V84H66.056V66.96H63.824V74.232H54.488V66.96H52.256V84ZM69.6487 84H71.9527L74.1127 79.032H82.0567L84.2647 84H86.5927L79.0327 66.96H77.1847L69.6487 84ZM78.0727 69.984L81.1687 77.016H75.0007L78.0727 69.984ZM96.3794 84H102.475C105.931 84 108.187 81.864 108.187 79.032C108.187 76.752 106.891 75.552 105.235 74.952C106.315 74.28 107.059 73.176 107.059 71.472C107.059 69.072 105.139 66.96 101.971 66.96H96.3794V84ZM98.6114 81.984V76.2H102.595C104.875 76.2 106.003 77.448 106.003 79.104C106.003 80.808 104.875 81.984 102.571 81.984H98.6114ZM98.6114 74.28V68.976H101.971C103.795 68.976 104.875 70.2 104.875 71.64C104.875 73.176 103.795 74.28 101.971 74.28H98.6114ZM115.567 84H117.751V69.072H123.055V66.96H110.263V69.072H115.567V84ZM133.693 82.176C129.973 82.176 127.141 79.224 127.141 75.48C127.141 71.736 129.973 68.784 133.693 68.784C137.437 68.784 140.269 71.736 140.269 75.48C140.269 79.224 137.437 82.176 133.693 82.176ZM133.693 84.288C138.613 84.288 142.501 80.4 142.501 75.48C142.501 70.56 138.613 66.672 133.693 66.672C128.797 66.672 124.885 70.56 124.885 75.48C124.885 80.4 128.797 84.288 133.693 84.288ZM158.129 72.384C158.129 69.312 155.825 66.96 152.273 66.96H147.065V84H149.297V77.784H152.273C155.825 77.784 158.129 75.456 158.129 72.384ZM155.921 72.384C155.921 74.28 154.625 75.72 152.273 75.72H149.297V69.048H152.273C154.625 69.048 155.921 70.488 155.921 72.384ZM169.96 82.176C166.24 82.176 163.408 79.224 163.408 75.48C163.408 71.736 166.24 68.784 169.96 68.784C173.704 68.784 176.536 71.736 176.536 75.48C176.536 79.224 173.704 82.176 169.96 82.176ZM169.96 84.288C174.88 84.288 178.768 80.4 178.768 75.48C178.768 70.56 174.88 66.672 169.96 66.672C165.064 66.672 161.152 70.56 161.152 75.48C161.152 80.4 165.064 84.288 169.96 84.288ZM185.277 84L195.645 70.728V84H197.853V66.96H195.933L185.565 80.208V66.96H183.333V84H185.277ZM190.821 65.784C192.933 65.784 194.637 64.32 194.637 61.992H193.053C193.053 63.432 192.165 64.368 190.821 64.368C189.477 64.368 188.589 63.432 188.589 61.992H187.005C187.005 64.32 188.709 65.784 190.821 65.784ZM218.256 84.288C222.552 84.288 225.648 81.456 226.416 78.384H224.064C223.296 80.52 221.088 82.176 218.256 82.176C214.464 82.176 211.656 79.248 211.656 75.48C211.656 71.712 214.464 68.784 218.256 68.784C221.088 68.784 223.296 70.44 224.064 72.576H226.416C225.648 69.504 222.552 66.672 218.256 66.672C213.24 66.672 209.424 70.488 209.424 75.48C209.424 80.472 213.24 84.288 218.256 84.288ZM230.69 84H240.626V81.888H232.922V76.344H239.186V74.232H232.922V69.072H240.626V66.96H230.69V84ZM243.138 84H245.442L247.602 79.032H255.546L257.754 84H260.082L252.522 66.96H250.674L243.138 84ZM251.562 69.984L254.658 77.016H248.49L251.562 69.984ZM263.676 84H265.908V76.32H275.244V84H277.476V66.96H275.244V74.232H265.908V66.96H263.676V84ZM290.861 84.288C295.157 84.288 298.253 81.456 299.021 78.384H296.669C295.901 80.52 293.693 82.176 290.861 82.176C287.069 82.176 284.261 79.248 284.261 75.48C284.261 71.712 287.069 68.784 290.861 68.784C293.693 68.784 295.901 70.44 296.669 72.576H299.021C298.253 69.504 295.157 66.672 290.861 66.672C285.845 66.672 282.029 70.488 282.029 75.48C282.029 80.472 285.845 84.288 290.861 84.288Z" fill="white"/>
<rect x="51" y="111" width="255" height="58" rx="29" stroke="white" stroke-width="2"/>
<path d="M98.7293 146H101.049V134.64H91.6093V146H93.9293V136.848H98.7293V146ZM109.578 143.952C107.594 143.952 106.042 142.304 106.042 140.32C106.042 138.336 107.594 136.688 109.578 136.688C111.562 136.688 113.114 138.336 113.114 140.32C113.114 142.304 111.562 143.952 109.578 143.952ZM109.578 146.192C112.826 146.192 115.45 143.568 115.45 140.32C115.45 137.072 112.826 134.448 109.578 134.448C106.33 134.448 103.706 137.072 103.706 140.32C103.706 143.568 106.33 146.192 109.578 146.192ZM118.749 142.016C118.749 143.648 118.301 144.016 117.533 144.016C117.213 144.016 117.005 144.016 116.765 143.968V146.112C117.085 146.16 117.389 146.176 117.853 146.192C119.885 146.176 121.069 144.864 121.069 142.304V136.848H124.749V146H127.069V134.64H118.749V142.016ZM131.248 146.08C131.68 146.16 131.952 146.192 132.608 146.192C134.32 146.192 135.408 145.312 136.48 143.232L140.832 134.64H138.192L135.2 140.624L132.112 134.64H129.456L133.872 143.216C133.408 143.904 132.912 144 132.272 144C131.904 144 131.552 143.984 131.248 143.936V146.08ZM151.242 146V134.64H148.906V137.28C148.906 139.088 147.834 139.872 146.554 139.872C145.322 139.872 144.538 139.216 144.538 137.728V134.64H142.202V138.32C142.202 140.576 143.882 142.096 146.074 142.096C147.29 142.096 148.234 141.712 148.906 140.928V146H151.242ZM156.562 146L162.402 138.576V146H164.706V134.64H162.706L156.898 142.048V134.64H154.562V146H156.562ZM170.13 146H172.466V136.848H175.522V134.64H167.106V136.848H170.13V146ZM180.264 138.736V134.64H177.928V146H182.152C184.408 146 186.024 144.48 186.024 142.368C186.024 140.256 184.408 138.736 182.152 138.736H180.264ZM180.264 143.856V140.88H182.104C183.112 140.88 183.768 141.392 183.768 142.368C183.768 143.376 183.112 143.856 182.104 143.856H180.264ZM197.855 146.192C200.431 146.192 202.719 144.544 203.359 142.128H200.847C200.383 143.264 199.119 143.952 197.855 143.952C195.679 143.952 194.239 142.352 194.239 140.32C194.239 138.288 195.679 136.688 197.855 136.688C199.119 136.688 200.383 137.376 200.847 138.512H203.359C202.719 136.096 200.431 134.448 197.855 134.448C194.415 134.448 191.903 137.04 191.903 140.32C191.903 143.6 194.415 146.192 197.855 146.192ZM213.076 146H216.084L210.436 140.096L215.108 134.64H212.244L208.148 139.456V134.64H205.844V146H208.148V140.848L213.076 146ZM219.753 146L225.593 138.576V146H227.897V134.64H225.897L220.089 142.048V134.64H217.753V146H219.753ZM239.753 148.368H241.849V143.792H240.393V134.64H232.073V140.56C232.073 143.072 231.385 143.792 230.617 143.792H230.425V148.368H232.521V146H239.753V148.368ZM234.393 136.848H238.073V143.792H233.785C234.217 143.04 234.393 142.224 234.393 140.768V136.848ZM251.663 146H254.671L249.023 140.096L253.695 134.64H250.831L246.735 139.456V134.64H244.431V146H246.735V140.848L251.663 146ZM257.189 146.08C257.621 146.16 257.893 146.192 258.549 146.192C260.261 146.192 261.349 145.312 262.421 143.232L266.773 134.64H264.133L261.141 140.624L258.053 134.64H255.397L259.813 143.216C259.349 143.904 258.853 144 258.213 144C257.845 144 257.493 143.984 257.189 143.936V146.08Z" fill="white"/>
<path d="M567.604 112.684L457.676 200.044C455.492 201.864 454.764 205.504 456.948 207.688C458.04 209.144 459.496 209.872 461.316 209.872C462.408 209.872 463.864 209.508 464.592 208.78L574.52 121.42C576.704 119.6 577.432 115.96 575.248 113.776C573.428 111.228 570.152 110.864 567.604 112.684Z" fill="#CE2127"/>
<path d="M487.16 151.632C488.616 151.632 490.072 151.632 491.528 151.268C506.452 149.084 517.008 134.888 514.46 119.6C513.368 112.32 509.364 105.768 503.54 101.4C497.716 97.0316 490.436 95.2116 483.156 96.3036C475.876 97.3956 469.324 101.4 464.956 107.224C460.588 113.048 458.768 120.328 459.86 127.608C462.044 141.804 474.056 151.632 487.16 151.632ZM484.612 107.588C485.34 107.588 486.432 107.224 487.16 107.224C495.168 107.224 502.448 113.048 503.54 121.42C504.996 130.52 498.808 138.892 489.708 140.348C480.608 141.804 472.236 135.616 470.78 126.516C469.324 117.416 475.876 109.044 484.612 107.588Z" fill="#CE2127"/>
<path d="M545.4 169.832C530.112 169.832 517.736 182.208 517.736 197.496C517.736 212.784 530.112 225.16 545.4 225.16C560.688 225.16 573.064 212.784 573.064 197.496C572.7 182.208 560.324 169.832 545.4 169.832ZM545.4 213.876C536.3 213.876 528.656 206.232 528.656 197.132C528.656 188.032 536.3 180.388 545.4 180.388C554.5 180.388 562.144 188.032 562.144 197.132C561.78 206.596 554.5 213.876 545.4 213.876Z" fill="#CE2127"/>
<path d="M681.536 157.092C681.536 156.728 681.9 156 681.9 155.636C681.9 139.984 665.52 131.976 651.324 125.06C641.132 119.964 630.212 114.504 627.3 107.952C624.388 101.036 628.392 89.7516 632.396 79.1956C637.856 64.2716 643.316 48.9836 633.124 38.7916C622.932 28.5996 608.372 32.2396 593.812 35.5156C583.62 37.6996 573.064 40.2476 566.148 37.3356C559.232 34.4236 553.408 25.3236 547.948 16.5876C539.94 4.21162 531.204 -9.98438 515.916 -9.98438C500.628 -9.98438 491.892 4.21162 484.248 16.9516C478.788 26.0516 473.328 35.1516 466.412 38.0636C459.496 40.9756 448.576 38.4276 438.384 35.8796C423.824 32.2396 408.9 28.5996 399.072 38.4276C388.88 48.6196 393.976 63.9076 398.708 78.8316C402.348 89.7516 405.624 100.672 402.712 107.952C399.8 114.868 389.608 119.964 379.78 125.06C365.948 132.34 350.296 140.348 350.296 155.636C350.296 156 350.296 156.728 350.66 157.092C350.66 157.456 350.296 158.184 350.296 158.548C350.296 173.836 365.948 182.208 379.78 189.124C389.608 194.22 399.8 199.316 402.712 206.232C405.624 213.148 401.984 224.432 398.708 235.352C393.976 250.276 388.88 265.564 399.072 275.756C409.264 285.948 424.188 281.944 438.384 278.304C448.576 275.756 459.496 273.208 466.412 276.12C473.328 279.032 478.788 288.132 484.248 297.232C491.892 309.972 500.628 324.168 515.916 324.168C531.204 324.168 540.304 309.972 547.948 297.596C553.408 288.86 559.232 279.76 566.148 276.848C573.428 273.936 583.62 276.12 593.812 278.668C608.008 281.944 622.932 285.584 633.124 275.392C643.316 265.2 637.856 249.912 632.396 234.988C628.392 224.068 624.388 213.148 627.3 206.232C630.212 199.316 640.768 194.22 651.324 189.124C665.52 181.844 681.9 173.836 681.9 158.548C681.9 157.82 681.536 157.456 681.536 157.092ZM646.228 179.296C634.216 185.484 621.476 191.672 617.108 202.228C612.376 213.148 617.472 226.252 621.84 238.992C626.208 251.004 630.576 262.652 625.116 267.748C619.292 273.572 608.008 271.024 595.996 268.112C583.984 265.2 571.972 262.652 561.416 267.02C551.224 271.388 544.672 281.58 538.484 291.772C531.568 302.692 525.016 313.248 515.552 313.248C506.452 313.248 499.9 302.692 492.984 291.408C486.796 280.852 480.244 270.296 470.052 265.928C459.496 261.56 447.12 264.472 435.108 267.748C423.096 270.66 411.812 273.572 405.988 268.112C400.528 262.652 404.168 251.004 408.172 238.992C412.176 226.252 416.544 213.148 411.812 202.592C407.444 192.036 395.432 185.848 383.784 180.024C371.772 173.836 360.488 168.012 360.488 158.912C360.488 158.548 360.488 157.82 360.124 157.456C360.124 157.092 360.488 156.364 360.488 156C360.488 147.264 371.772 141.44 383.784 134.888C395.432 129.064 407.444 122.876 411.812 112.32C416.18 101.4 412.176 88.2956 408.172 75.9196C404.168 63.5436 400.528 51.8956 405.988 46.7996C411.812 40.9756 423.096 43.8876 435.108 47.1636C447.12 50.0756 459.496 53.3516 470.052 48.9836C480.244 44.6156 486.796 34.0596 492.984 23.5036C499.9 12.2196 506.088 1.66362 515.552 1.66362C525.016 1.66362 531.568 12.2196 538.484 23.1396C545.036 33.3316 551.588 43.5236 561.416 47.8916C571.972 52.2596 583.984 49.3476 595.996 46.7996C608.008 43.8876 619.292 41.3396 625.116 47.1636C630.576 52.2596 626.208 63.9076 621.84 75.9196C617.108 88.6596 612.376 101.764 617.108 112.684C621.476 123.24 634.216 129.428 646.228 135.616C658.968 141.804 670.616 147.992 670.616 156.728C670.616 157.092 670.616 157.82 670.98 158.184C670.98 158.548 670.616 159.276 670.616 159.64C670.98 166.92 658.968 173.108 646.228 179.296Z" fill="#CE2127"/>
</g>
</g>
<defs>
<filter id="filter0_b_1_734" x="-20" y="-20" width="640" height="240" filterUnits="userSpaceOnUse" color-interpolation-filters="sRGB">
<feFlood flood-opacity="0" result="BackgroundImageFix"/>
<feGaussianBlur in="BackgroundImageFix" stdDeviation="10"/>
<feComposite in2="SourceAlpha" operator="in" result="effect1_backgroundBlur_1_734"/>
<feBlend mode="normal" in="SourceGraphic" in2="effect1_backgroundBlur_1_734" result="shape"/>
</filter>
<clipPath id="clip0_1_734">
<rect width="600" height="200" rx="30" fill="white"/>
</clipPath>
</defs>
</svg>
