<svg width="600" height="200" viewBox="0 0 600 200" fill="none" xmlns="http://www.w3.org/2000/svg">
<g filter="url(#filter0_b_1_992)">
<g clip-path="url(#clip0_1_992)">
<rect width="600" height="200" rx="30" fill="white" fill-opacity="0.3"/>
<path fill-rule="evenodd" clip-rule="evenodd" d="M509.424 77.4965L501.858 80.7604C496.642 68.5548 488.567 57.7828 478.314 49.353C472.368 44.5228 465.766 40.5625 458.705 37.5912L461.911 30C469.692 33.2732 476.966 37.6388 483.514 42.9652C494.798 52.2287 503.685 64.073 509.424 77.4965ZM542.398 80.7603C547.61 68.5538 555.686 57.7823 565.942 49.3569C571.884 44.5244 578.486 40.564 585.546 37.5951L582.34 30.0039C574.559 33.2755 567.284 37.6413 560.737 42.9691C549.452 52.2337 540.563 64.0795 534.823 77.5046L542.398 80.7603ZM570.442 73.7132C578.289 65.4415 587.652 58.7541 598.021 54.0139C611.6 47.8535 626.494 45.1493 641.372 46.1424L641.908 37.9001C625.667 36.8273 609.413 39.7861 594.592 46.5133C583.27 51.6941 573.046 58.9982 564.475 68.0301L570.442 73.7132ZM512.239 95.2767C512.225 95.892 512.068 96.4953 511.781 97.0393L431.335 254.262L428.244 265.76L444.193 270.046L442.05 278L402.24 267.326L404.383 259.372L420.29 263.658L423.381 252.119L432.324 75.774C432.365 75.1612 432.537 74.5645 432.828 74.0242C433.12 73.4839 433.524 73.0124 434.014 72.6419C434.511 72.2768 435.084 72.0279 435.691 71.9137C436.297 71.8 436.921 71.8231 437.517 71.9826L509.184 91.1872C509.776 91.3447 510.324 91.634 510.788 92.0337C511.252 92.4335 511.62 92.9329 511.863 93.4951C512.124 94.0518 512.253 94.6618 512.239 95.2767ZM502.137 97.8223L440.32 81.2552L437.311 140.27C439.337 140.052 441.381 140.038 443.41 140.229C446.701 140.713 450.061 140.196 453.054 138.746C456.113 137.475 458.714 135.304 460.513 132.523C463.176 128.636 466.894 125.591 471.228 123.744C475.469 121.715 480.207 120.956 484.869 121.56C486.567 121.773 488.285 121.76 489.98 121.519L502.137 97.8223ZM442.751 148.43C440.8 148.213 438.829 148.283 436.899 148.636L432.572 233.78L485.735 129.885L485.62 129.876H485.62H485.62H485.62C485.128 129.838 484.669 129.803 484.21 129.803C480.937 129.299 477.588 129.802 474.608 131.245C471.535 132.531 468.92 134.715 467.107 137.509C464.457 141.381 460.753 144.413 456.433 146.246C452.185 148.299 447.427 149.059 442.751 148.43ZM623.959 263.658L639.866 259.372L642.009 267.326L602.199 278L600.056 270.046L616.005 265.76L612.914 254.262L532.469 97.0393C532.192 96.492 532.041 95.8895 532.027 95.2767C532.013 94.6634 532.135 94.0547 532.386 93.4951C532.629 92.9329 532.997 92.4335 533.461 92.0337C533.925 91.634 534.473 91.3447 535.065 91.1872L606.732 71.9826C607.328 71.8231 607.952 71.8 608.559 71.9137C609.165 72.0279 609.738 72.2768 610.235 72.6419C610.725 73.0124 611.13 73.4839 611.421 74.0242C611.713 74.5645 611.884 75.1612 611.925 75.774L620.868 252.119L623.959 263.658ZM542.153 97.8223L554.27 121.519C555.964 121.76 557.682 121.773 559.38 121.56C564.043 120.956 568.78 121.715 573.021 123.744C577.355 125.591 581.073 128.636 583.736 132.523C585.535 135.304 588.136 137.475 591.195 138.746C594.188 140.196 597.549 140.713 600.839 140.229C602.868 140.038 604.912 140.052 606.938 140.27L603.93 81.2552L542.153 97.8223ZM558.629 129.876L558.514 129.885L611.678 233.78L607.35 148.636C605.406 148.282 603.421 148.213 601.457 148.43C596.794 149.056 592.051 148.296 587.816 146.246C583.496 144.413 579.792 141.381 577.142 137.509C575.329 134.715 572.715 132.531 569.642 131.245C566.661 129.802 563.312 129.299 560.039 129.803C559.58 129.803 559.121 129.838 558.629 129.876ZM473.81 73.7131C465.964 65.442 456.601 58.7544 446.232 54.0141C432.651 47.8579 417.759 45.1539 402.881 46.1427L402.345 37.9003C418.586 36.8268 434.84 39.7857 449.66 46.5136C460.984 51.6933 471.207 58.9975 479.778 68.03L473.81 73.7131Z" fill="#CE2127"/>
<path d="M65.264 57.552H67.328V51.888H65.216V36.96H53.312V45.96C53.312 50.832 52.304 51.888 51.104 51.888H50.792V57.552H52.856V54H65.264V57.552ZM55.544 39.072H62.984V51.888H54.464C55.112 50.856 55.544 49.344 55.544 46.32V39.072ZM71.6435 54H81.5795V51.888H73.8755V46.344H80.1395V44.232H73.8755V39.072H81.5795V36.96H71.6435V54ZM86.2029 54H88.4349V46.32H97.7709V54H100.003V36.96H97.7709V44.232H88.4349V36.96H86.2029V54ZM107.94 43.8V36.96H105.708V54H111.108C114.66 54 116.916 51.936 116.916 48.888C116.916 45.84 114.66 43.8 111.108 43.8H107.94ZM107.94 51.936V45.864H111.036C113.412 45.864 114.708 46.968 114.708 48.888C114.708 50.88 113.412 51.936 111.036 51.936H107.94ZM138.461 42.384C138.461 39.312 136.157 36.96 132.605 36.96H127.397V54H129.629V47.784H132.605C136.157 47.784 138.461 45.456 138.461 42.384ZM136.253 42.384C136.253 44.28 134.957 45.72 132.605 45.72H129.629V39.048H132.605C134.957 39.048 136.253 40.488 136.253 42.384ZM150.291 52.176C146.571 52.176 143.739 49.224 143.739 45.48C143.739 41.736 146.571 38.784 150.291 38.784C154.035 38.784 156.867 41.736 156.867 45.48C156.867 49.224 154.035 52.176 150.291 52.176ZM150.291 54.288C155.211 54.288 159.099 50.4 159.099 45.48C159.099 40.56 155.211 36.672 150.291 36.672C145.395 36.672 141.483 40.56 141.483 45.48C141.483 50.4 145.395 54.288 150.291 54.288ZM180.708 54H183.66L175.068 45.528L182.964 36.96H180.228L172.956 44.856V36.96H170.724V44.856L163.452 36.96H160.716L168.612 45.528L160.02 54H162.972L170.724 46.392V54H172.956V46.392L180.708 54ZM199.903 57.552H201.967V51.888H199.855V36.96H187.951V45.96C187.951 50.832 186.943 51.888 185.743 51.888H185.431V57.552H187.495V54H199.903V57.552ZM190.183 39.072H197.623V51.888H189.103C189.751 50.856 190.183 49.344 190.183 46.32V39.072ZM206.283 54H216.219V51.888H208.515V46.344H214.779V44.232H208.515V39.072H216.219V36.96H206.283V54ZM220.842 54H223.074V46.32H232.41V54H234.642V36.96H232.41V44.232H223.074V36.96H220.842V54ZM242.291 54L252.659 40.728V54H254.867V36.96H252.947L242.579 50.208V36.96H240.347V54H242.291ZM268.977 54H271.185V36.96H266.097C262.521 36.96 260.337 39.048 260.337 41.976C260.337 44.352 261.801 46.2 264.369 46.752L258.129 54H260.913L266.841 47.064H268.977V54ZM262.545 41.976C262.545 40.176 263.841 39.024 266.169 39.024H268.977V45H266.169C263.841 45 262.545 43.824 262.545 41.976ZM59.696 80.928C56.72 80.928 54.392 78.456 54.392 75.48C54.392 72.504 56.72 70.032 59.696 70.032C62.672 70.032 65 72.504 65 75.48C65 78.456 62.672 80.928 59.696 80.928ZM59.696 84.288C64.568 84.288 68.504 80.352 68.504 75.48C68.504 70.608 64.568 66.672 59.696 66.672C54.824 66.672 50.888 70.608 50.888 75.48C50.888 80.352 54.824 84.288 59.696 84.288ZM74.9197 84H78.4237V70.272H83.0077V66.96H70.3837V70.272H74.9197V84ZM94.3027 84H97.5907V66.96H93.1027L90.7027 70.2H94.3027V84ZM109.595 84H112.883V80.112H115.115V77.088H112.883V66.96H109.955L101.123 77.448V80.112H109.595V84ZM105.155 77.088L109.595 71.832V77.088H105.155ZM118.477 84H122.557L127.645 77.088C128.917 75.312 129.637 74.28 129.637 72.552C129.637 69.24 127.309 66.672 123.685 66.672C120.061 66.672 117.733 69.24 117.733 72.552C117.733 75.912 120.397 77.928 122.869 78L118.477 84ZM123.685 75.192C122.173 75.192 121.045 73.968 121.045 72.504C121.045 70.992 122.149 69.84 123.685 69.84C125.221 69.84 126.325 71.016 126.325 72.504C126.325 73.968 125.221 75.192 123.685 75.192ZM139.245 84.264C142.965 84.264 145.581 81.432 145.581 77.52V73.392C145.581 69.504 142.965 66.672 139.245 66.672C135.501 66.672 132.885 69.504 132.885 73.392V77.52C132.885 81.432 135.501 84.264 139.245 84.264ZM139.245 81.024C137.421 81.024 136.173 79.728 136.173 77.52V73.392C136.173 71.184 137.421 69.912 139.245 69.912C141.069 69.912 142.293 71.184 142.293 73.392V77.52C142.293 79.728 141.069 81.024 139.245 81.024ZM155.838 77.88H157.878V79.536H155.838V80.928H157.878V84H161.166V80.928H165.054V79.536H161.166V77.88H163.014C166.374 77.88 168.822 75.768 168.822 72.432C168.822 69.168 166.374 66.96 163.014 66.96H157.878V74.712H155.838V77.88ZM161.166 74.712V70.152H162.966C164.478 70.152 165.438 70.896 165.438 72.432C165.438 73.944 164.478 74.712 162.966 74.712H161.166Z" fill="white"/>
<rect x="51" y="111" width="308" height="58" rx="29" stroke="white" stroke-width="2"/>
<path d="M99.1662 138.464C99.1662 136.304 97.4862 134.64 95.1822 134.64H91.4062V146H93.7262V142.288H95.1822C97.4862 142.288 99.1662 140.624 99.1662 138.464ZM96.9102 138.464C96.9102 139.408 96.2222 140.112 95.1502 140.112H93.7262V136.816H95.1502C96.2222 136.816 96.9102 137.52 96.9102 138.464ZM99.6926 146H102.093L103.181 143.408H108.029L109.133 146H111.565L106.653 134.64H104.589L99.6926 146ZM105.613 137.696L107.165 141.376H104.045L105.613 137.696ZM118.443 146.192C121.019 146.192 123.307 144.544 123.947 142.128H121.435C120.971 143.264 119.707 143.952 118.443 143.952C116.267 143.952 114.827 142.352 114.827 140.32C114.827 138.288 116.267 136.688 118.443 136.688C119.707 136.688 120.971 137.376 121.435 138.512H123.947C123.307 136.096 121.019 134.448 118.443 134.448C115.003 134.448 112.491 137.04 112.491 140.32C112.491 143.6 115.003 146.192 118.443 146.192ZM131.727 146.192C134.303 146.192 136.591 144.544 137.231 142.128H134.719C134.255 143.264 132.991 143.952 131.727 143.952C129.551 143.952 128.111 142.352 128.111 140.32C128.111 138.288 129.551 136.688 131.727 136.688C132.991 136.688 134.255 137.376 134.719 138.512H137.231C136.591 136.096 134.303 134.448 131.727 134.448C128.287 134.448 125.775 137.04 125.775 140.32C125.775 143.6 128.287 146.192 131.727 146.192ZM148.18 146V134.64H145.844V137.28C145.844 139.088 144.772 139.872 143.492 139.872C142.26 139.872 141.476 139.216 141.476 137.728V134.64H139.14V138.32C139.14 140.576 140.82 142.096 143.012 142.096C144.228 142.096 145.172 141.712 145.844 140.928V146H148.18ZM153.5 146L159.34 138.576V146H161.644V134.64H159.644L153.836 142.048V134.64H151.5V146H153.5ZM167.068 146H169.404V136.848H172.46V134.64H164.044V136.848H167.068V146ZM172.493 146H174.893L175.981 143.408H180.829L181.933 146H184.365L179.453 134.64H177.389L172.493 146ZM178.413 137.696L179.965 141.376H176.845L178.413 137.696ZM187.418 146H189.754V136.848H192.81V134.64H184.394V136.848H187.418V146ZM197.552 138.736V134.64H195.216V146H199.44C201.696 146 203.312 144.48 203.312 142.368C203.312 140.256 201.696 138.736 199.44 138.736H197.552ZM197.552 143.856V140.88H199.392C200.4 140.88 201.056 141.392 201.056 142.368C201.056 143.376 200.4 143.856 199.392 143.856H197.552ZM215.143 146.192C217.719 146.192 220.007 144.544 220.647 142.128H218.135C217.671 143.264 216.407 143.952 215.143 143.952C212.967 143.952 211.527 142.352 211.527 140.32C211.527 138.288 212.967 136.688 215.143 136.688C216.407 136.688 217.671 137.376 218.135 138.512H220.647C220.007 136.096 217.719 134.448 215.143 134.448C211.703 134.448 209.191 137.04 209.191 140.32C209.191 143.6 211.703 146.192 215.143 146.192ZM225.071 146H227.407V136.848H230.463V134.64H222.047V136.848H225.071V146ZM237.6 143.952C235.616 143.952 234.064 142.304 234.064 140.32C234.064 138.336 235.616 136.688 237.6 136.688C239.584 136.688 241.136 138.336 241.136 140.32C241.136 142.304 239.584 143.952 237.6 143.952ZM237.6 146.192C240.848 146.192 243.472 143.568 243.472 140.32C243.472 137.072 240.848 134.448 237.6 134.448C234.352 134.448 231.728 137.072 231.728 140.32C231.728 143.568 234.352 146.192 237.6 146.192ZM248.122 146L253.962 138.576V146H256.266V134.64H254.266L248.458 142.048V134.64H246.122V146H248.122ZM259.594 134.64V146H261.914V138.608L265.402 143.392L268.89 138.608V146H271.21V134.64H269.098L265.402 139.712L261.706 134.64H259.594ZM279.734 143.952C277.75 143.952 276.198 142.304 276.198 140.32C276.198 138.336 277.75 136.688 279.734 136.688C281.718 136.688 283.27 138.336 283.27 140.32C283.27 142.304 281.718 143.952 279.734 143.952ZM279.734 146.192C282.982 146.192 285.606 143.568 285.606 140.32C285.606 137.072 282.982 134.448 279.734 134.448C276.486 134.448 273.862 137.072 273.862 140.32C273.862 143.568 276.486 146.192 279.734 146.192ZM293.552 146.192C296.128 146.192 298.416 144.544 299.056 142.128H296.544C296.08 143.264 294.816 143.952 293.552 143.952C291.376 143.952 289.936 142.352 289.936 140.32C289.936 138.288 291.376 136.688 293.552 136.688C294.816 136.688 296.08 137.376 296.544 138.512H299.056C298.416 136.096 296.128 134.448 293.552 134.448C290.112 134.448 287.6 137.04 287.6 140.32C287.6 143.6 290.112 146.192 293.552 146.192ZM303.48 146H305.816V136.848H308.872V134.64H300.456V136.848H303.48V146ZM313.614 138.736V134.64H311.278V146H315.502C317.758 146 319.374 144.48 319.374 142.368C319.374 140.256 317.758 138.736 315.502 138.736H313.614ZM313.614 143.856V140.88H315.454C316.462 140.88 317.118 141.392 317.118 142.368C317.118 143.376 316.462 143.856 315.454 143.856H313.614Z" fill="white"/>
</g>
</g>
<defs>
<filter id="filter0_b_1_992" x="-20" y="-20" width="640" height="240" filterUnits="userSpaceOnUse" color-interpolation-filters="sRGB">
<feFlood flood-opacity="0" result="BackgroundImageFix"/>
<feGaussianBlur in="BackgroundImageFix" stdDeviation="10"/>
<feComposite in2="SourceAlpha" operator="in" result="effect1_backgroundBlur_1_992"/>
<feBlend mode="normal" in="SourceGraphic" in2="effect1_backgroundBlur_1_992" result="shape"/>
</filter>
<clipPath id="clip0_1_992">
<rect width="600" height="200" rx="30" fill="white"/>
</clipPath>
</defs>
</svg>
