<svg width="600" height="200" viewBox="0 0 600 200" fill="none" xmlns="http://www.w3.org/2000/svg">
<g filter="url(#filter0_b_1_1008)">
<g clip-path="url(#clip0_1_1008)">
<rect width="600" height="200" rx="30" fill="white" fill-opacity="0.3"/>
<path d="M63.512 54H66.656L56.696 45.072L64.808 36.96H61.904L54.464 44.352V36.96H52.256V54H54.464V45.888L63.512 54ZM75.6661 52.176C71.9461 52.176 69.1141 49.224 69.1141 45.48C69.1141 41.736 71.9461 38.784 75.6661 38.784C79.4101 38.784 82.2421 41.736 82.2421 45.48C82.2421 49.224 79.4101 52.176 75.6661 52.176ZM75.6661 54.288C80.5861 54.288 84.4741 50.4 84.4741 45.48C84.4741 40.56 80.5861 36.672 75.6661 36.672C70.7701 36.672 66.8581 40.56 66.8581 45.48C66.8581 50.4 70.7701 54.288 75.6661 54.288ZM89.0388 36.96V54H91.2708V40.752L97.4148 49.008L103.559 40.752V54H105.767V36.96H103.751L97.3908 45.456L91.0788 36.96H89.0388ZM109.385 54H111.689L113.849 49.032H121.793L124.001 54H126.329L118.769 36.96H116.921L109.385 54ZM117.809 39.984L120.905 47.016H114.737L117.809 39.984ZM129.923 54H132.155V46.32H141.491V54H143.723V36.96H141.491V44.232H132.155V36.96H129.923V54ZM162.436 57.552H164.5V51.888H162.388V36.96H150.484V45.96C150.484 50.832 149.476 51.888 148.276 51.888H147.964V57.552H150.028V54H162.436V57.552ZM152.716 39.072H160.156V51.888H151.636C152.284 50.856 152.716 49.344 152.716 46.32V39.072ZM168.815 54H171.047V46.32H180.383V54H182.615V36.96H180.383V44.232H171.047V36.96H168.815V54ZM190.552 43.8V36.96H188.32V54H193.72C197.272 54 199.528 51.936 199.528 48.888C199.528 45.84 197.272 43.8 193.72 43.8H190.552ZM190.552 51.936V45.864H193.648C196.024 45.864 197.32 46.968 197.32 48.888C197.32 50.88 196.024 51.936 193.648 51.936H190.552ZM201.952 54H204.184V36.96H201.952V54ZM211.831 54L222.199 40.728V54H224.407V36.96H222.487L212.119 50.208V36.96H209.887V54H211.831ZM217.375 35.784C219.487 35.784 221.191 34.32 221.191 31.992H219.607C219.607 33.432 218.719 34.368 217.375 34.368C216.031 34.368 215.143 33.432 215.143 31.992H213.559C213.559 34.32 215.263 35.784 217.375 35.784ZM239.363 44.016V39.072H247.475V36.96H237.131V54H243.299C246.635 54 249.059 52.176 249.059 49.008C249.059 45.792 246.635 44.016 243.299 44.016H239.363ZM246.827 49.008C246.827 50.856 245.579 51.936 243.299 51.936H239.363V46.08H243.299C245.579 46.08 246.827 47.112 246.827 49.008ZM260.94 52.176C257.22 52.176 254.388 49.224 254.388 45.48C254.388 41.736 257.22 38.784 260.94 38.784C264.684 38.784 267.516 41.736 267.516 45.48C267.516 49.224 264.684 52.176 260.94 52.176ZM260.94 54.288C265.86 54.288 269.748 50.4 269.748 45.48C269.748 40.56 265.86 36.672 260.94 36.672C256.044 36.672 252.132 40.56 252.132 45.48C252.132 50.4 256.044 54.288 260.94 54.288ZM274.312 54H276.544V46.32H285.88V54H288.112V36.96H285.88V44.232H276.544V36.96H274.312V54ZM294.777 54.144C295.257 54.216 295.641 54.288 296.481 54.288C298.545 54.288 299.721 53.28 301.185 50.544L308.361 36.96H305.937L300.345 47.544L294.921 36.96H292.401L299.073 49.944L298.857 50.352C298.113 51.768 297.273 52.2 296.241 52.2C295.593 52.2 295.185 52.176 294.777 52.104V54.144ZM318.728 54.288C323.024 54.288 326.12 51.456 326.888 48.384H324.536C323.768 50.52 321.56 52.176 318.728 52.176C314.936 52.176 312.128 49.248 312.128 45.48C312.128 41.712 314.936 38.784 318.728 38.784C321.56 38.784 323.768 40.44 324.536 42.576H326.888C326.12 39.504 323.024 36.672 318.728 36.672C313.712 36.672 309.896 40.488 309.896 45.48C309.896 50.472 313.712 54.288 318.728 54.288ZM53.648 84H56.936V66.96H52.448L50.048 70.2H53.648V84ZM67.6199 84.264C71.3399 84.264 73.9559 81.432 73.9559 77.52V73.392C73.9559 69.504 71.3399 66.672 67.6199 66.672C63.8759 66.672 61.2599 69.504 61.2599 73.392V77.52C61.2599 81.432 63.8759 84.264 67.6199 84.264ZM67.6199 81.024C65.7959 81.024 64.5479 79.728 64.5479 77.52V73.392C64.5479 71.184 65.7959 69.912 67.6199 69.912C69.4439 69.912 70.6679 71.184 70.6679 73.392V77.52C70.6679 79.728 69.4439 81.024 67.6199 81.024ZM83.9606 84.264C87.6806 84.264 90.2966 81.432 90.2966 77.52V73.392C90.2966 69.504 87.6806 66.672 83.9606 66.672C80.2166 66.672 77.6006 69.504 77.6006 73.392V77.52C77.6006 81.432 80.2166 84.264 83.9606 84.264ZM83.9606 81.024C82.1366 81.024 80.8886 79.728 80.8886 77.52V73.392C80.8886 71.184 82.1366 69.912 83.9606 69.912C85.7846 69.912 87.0086 71.184 87.0086 73.392V77.52C87.0086 79.728 85.7846 81.024 83.9606 81.024ZM100.301 84.264C104.021 84.264 106.637 81.432 106.637 77.52V73.392C106.637 69.504 104.021 66.672 100.301 66.672C96.5572 66.672 93.9412 69.504 93.9412 73.392V77.52C93.9412 81.432 96.5572 84.264 100.301 84.264ZM100.301 81.024C98.4772 81.024 97.2292 79.728 97.2292 77.52V73.392C97.2292 71.184 98.4772 69.912 100.301 69.912C102.125 69.912 103.349 71.184 103.349 73.392V77.52C103.349 79.728 102.125 81.024 100.301 81.024ZM116.895 77.88H118.935V79.536H116.895V80.928H118.935V84H122.223V80.928H126.111V79.536H122.223V77.88H124.071C127.431 77.88 129.879 75.768 129.879 72.432C129.879 69.168 127.431 66.96 124.071 66.96H118.935V74.712H116.895V77.88ZM122.223 74.712V70.152H124.023C125.535 70.152 126.495 70.896 126.495 72.432C126.495 73.944 125.535 74.712 124.023 74.712H122.223Z" fill="white"/>
<rect x="51" y="111" width="220" height="58" rx="29" stroke="white" stroke-width="2"/>
<path d="M93.4681 137.76C93.7081 137.072 94.2841 136.576 95.1001 136.576C96.0441 136.576 96.5241 137.12 96.5241 137.872C96.5241 138.64 96.0761 139.184 95.1961 139.184H93.9801V141.136H95.3241C96.3321 141.136 96.9081 141.68 96.9081 142.496C96.9081 143.392 96.3161 144.016 95.1481 144.016C94.1241 144.016 93.3401 143.52 93.0681 142.56H90.7481C91.0521 144.944 93.0201 146.192 95.1641 146.192C97.3241 146.192 99.1641 144.896 99.1641 142.672C99.1641 141.52 98.6681 140.512 97.6281 139.936C98.5401 139.216 98.7641 138.304 98.7641 137.472C98.7641 135.648 97.2761 134.448 95.1481 134.448C93.4361 134.448 91.5801 135.344 91.1641 137.76H93.4681ZM100.43 146H102.83L103.918 143.408H108.766L109.87 146H112.302L107.39 134.64H105.326L100.43 146ZM106.35 137.696L107.902 141.376H104.782L106.35 137.696ZM116.705 138.896V136.848H121.857V134.64H114.369V146H118.961C121.185 146 122.833 144.528 122.833 142.448C122.833 140.336 121.185 138.896 118.961 138.896H116.705ZM120.577 142.448C120.577 143.36 119.905 143.856 118.929 143.856H116.705V141.024H118.929C119.905 141.024 120.577 141.536 120.577 142.448ZM133.116 138.464C133.116 136.304 131.436 134.64 129.132 134.64H125.356V146H127.676V142.288H129.132C131.436 142.288 133.116 140.624 133.116 138.464ZM130.86 138.464C130.86 139.408 130.172 140.112 129.1 140.112H127.676V136.816H129.1C130.172 136.816 130.86 137.52 130.86 138.464ZM133.643 146H136.043L137.131 143.408H141.979L143.083 146H145.515L140.603 134.64H138.539L133.643 146ZM139.563 137.696L141.115 141.376H137.995L139.563 137.696ZM148.568 146H150.904V136.848H153.96V134.64H145.544V136.848H148.568V146ZM158.702 138.736V134.64H156.366V146H160.59C162.846 146 164.462 144.48 164.462 142.368C164.462 140.256 162.846 138.736 160.59 138.736H158.702ZM158.702 143.856V140.88H160.542C161.55 140.88 162.206 141.392 162.206 142.368C162.206 143.376 161.55 143.856 160.542 143.856H158.702ZM173.333 138.896V136.848H178.485V134.64H170.997V146H175.589C177.813 146 179.461 144.528 179.461 142.448C179.461 140.336 177.813 138.896 175.589 138.896H173.333ZM177.205 142.448C177.205 143.36 176.533 143.856 175.557 143.856H173.333V141.024H175.557C176.533 141.024 177.205 141.536 177.205 142.448ZM187.184 143.952C185.2 143.952 183.648 142.304 183.648 140.32C183.648 138.336 185.2 136.688 187.184 136.688C189.168 136.688 190.72 138.336 190.72 140.32C190.72 142.304 189.168 143.952 187.184 143.952ZM187.184 146.192C190.432 146.192 193.056 143.568 193.056 140.32C193.056 137.072 190.432 134.448 187.184 134.448C183.936 134.448 181.312 137.072 181.312 140.32C181.312 143.568 183.936 146.192 187.184 146.192ZM195.706 146H198.026V141.376H202.954V146H205.274V134.64H202.954V139.168H198.026V134.64H195.706V146ZM209.448 146.08C209.88 146.16 210.152 146.192 210.808 146.192C212.52 146.192 213.608 145.312 214.68 143.232L219.032 134.64H216.392L213.4 140.624L210.312 134.64H207.656L212.072 143.216C211.608 143.904 211.112 144 210.472 144C210.104 144 209.752 143.984 209.448 143.936V146.08ZM225.712 146.192C228.288 146.192 230.576 144.544 231.216 142.128H228.704C228.24 143.264 226.976 143.952 225.712 143.952C223.536 143.952 222.096 142.352 222.096 140.32C222.096 138.288 223.536 136.688 225.712 136.688C226.976 136.688 228.24 137.376 228.704 138.512H231.216C230.576 136.096 228.288 134.448 225.712 134.448C222.272 134.448 219.76 137.04 219.76 140.32C219.76 143.6 222.272 146.192 225.712 146.192Z" fill="white"/>
<path d="M494.789 63.5898C506.797 63.5898 516.566 53.8205 516.566 41.8125C516.566 29.8045 506.797 20.0352 494.789 20.0352C482.781 20.0352 473.012 29.8045 473.012 41.8125C473.012 53.8205 482.781 63.5898 494.789 63.5898ZM494.789 28.7461C501.994 28.7461 507.855 34.6077 507.855 41.8125C507.855 49.0173 501.994 54.8789 494.789 54.8789C487.584 54.8789 481.723 49.0173 481.723 41.8125C481.723 34.6077 487.584 28.7461 494.789 28.7461Z" fill="#CE2127"/>
<path d="M455.59 76.6562C465.196 76.6562 473.012 68.8408 473.012 59.2344C473.012 49.628 465.196 41.8125 455.59 41.8125C445.983 41.8125 438.168 49.628 438.168 59.2344C438.168 68.8408 445.983 76.6562 455.59 76.6562ZM455.59 50.5234C460.393 50.5234 464.301 54.4312 464.301 59.2344C464.301 64.0376 460.393 67.9453 455.59 67.9453C450.787 67.9453 446.879 64.0376 446.879 59.2344C446.879 54.4312 450.787 50.5234 455.59 50.5234Z" fill="#CE2127"/>
<path d="M420.311 94.0781C429.677 94.0781 437.297 86.4582 437.297 77.0918C437.297 67.7254 429.677 60.1055 420.311 60.1055C410.944 60.1055 403.324 67.7254 403.324 77.0918C403.324 86.4582 410.944 94.0781 420.311 94.0781ZM420.311 68.8164C424.874 68.8164 428.586 72.5286 428.586 77.0918C428.586 81.655 424.874 85.3672 420.311 85.3672C415.747 85.3672 412.035 81.655 412.035 77.0918C412.035 72.5286 415.747 68.8164 420.311 68.8164Z" fill="#CE2127"/>
<path d="M603.676 76.6562H594.965V63.5898C594.965 61.1843 593.014 59.2344 590.609 59.2344H560.121V50.5234C560.121 48.1179 558.171 46.168 555.766 46.168C553.361 46.168 551.41 48.1179 551.41 50.5234C551.41 60.6669 551.41 62.893 551.41 72.3008H473.012C464.909 72.3008 458.08 77.8614 456.141 85.3672H446.879C437.272 85.3672 429.457 93.1826 429.457 102.789H420.746C411.14 102.789 403.324 110.605 403.324 120.211V172.477C403.324 180.579 408.885 187.408 416.391 189.347C416.391 193.543 416.391 202.533 416.391 207.32H403.324C400.919 207.32 398.969 209.271 398.969 211.676C398.969 214.081 400.919 216.031 403.324 216.031C415.321 216.031 597.211 216.031 603.676 216.031C606.081 216.031 608.031 214.081 608.031 211.676C608.031 209.271 606.081 207.32 603.676 207.32H560.121V94.0781H568.832V107.145C568.832 109.55 570.782 111.5 573.188 111.5H603.676C606.081 111.5 608.031 109.55 608.031 107.145V81.0117C608.031 78.6062 606.081 76.6562 603.676 76.6562ZM425.102 133.277C425.102 130.872 423.152 128.922 420.746 128.922C418.341 128.922 416.391 130.872 416.391 133.277V180.009C413.791 178.5 412.035 175.693 412.035 172.477V120.211C412.035 115.408 415.943 111.5 420.746 111.5H429.457V155.055C429.457 163.158 435.018 169.987 442.523 171.925V207.32H425.102C425.102 162.38 425.102 175.552 425.102 133.277ZM451.234 124.566C451.234 122.161 449.284 120.211 446.879 120.211C444.473 120.211 442.523 122.161 442.523 124.566V162.587C439.924 161.078 438.168 158.271 438.168 155.055V102.789C438.168 97.9859 442.076 94.0781 446.879 94.0781H455.59V141.988C455.59 150.091 461.15 156.92 468.656 158.859V207.32H451.234C451.234 205.726 451.234 126.844 451.234 124.566ZM499.145 207.32V155.055C499.145 152.65 497.195 150.699 494.789 150.699C492.384 150.699 490.434 152.65 490.434 155.055V207.32H477.367C477.367 204.529 477.367 101.425 477.367 98.4336C477.367 96.0281 475.417 94.0781 473.012 94.0781C470.606 94.0781 468.656 96.0281 468.656 98.4336V149.521C466.057 148.011 464.301 145.204 464.301 141.988V89.7227C464.301 84.9194 468.209 81.0117 473.012 81.0117H550.241C548.732 83.6137 545.917 85.3672 542.699 85.3672H516.566C514.161 85.3672 512.211 87.3171 512.211 89.7227V207.32H499.145ZM520.922 207.32V94.0781H542.699C545.871 94.0781 548.845 93.2218 551.41 91.7344V207.32H520.922ZM560.121 67.9453H586.254C586.254 73.2381 586.254 80.1855 586.254 85.3672C583.092 85.3672 563.304 85.3672 560.121 85.3672V67.9453ZM599.32 102.789H577.543V94.0781H590.609C593.014 94.0781 594.965 92.1282 594.965 89.7227V85.3672H599.32V102.789Z" fill="#CE2127"/>
</g>
</g>
<defs>
<filter id="filter0_b_1_1008" x="-20" y="-20" width="640" height="240" filterUnits="userSpaceOnUse" color-interpolation-filters="sRGB">
<feFlood flood-opacity="0" result="BackgroundImageFix"/>
<feGaussianBlur in="BackgroundImageFix" stdDeviation="10"/>
<feComposite in2="SourceAlpha" operator="in" result="effect1_backgroundBlur_1_1008"/>
<feBlend mode="normal" in="SourceGraphic" in2="effect1_backgroundBlur_1_1008" result="shape"/>
</filter>
<clipPath id="clip0_1_1008">
<rect width="600" height="200" rx="30" fill="white"/>
</clipPath>
</defs>
</svg>
