<svg width="55" height="69" viewBox="0 0 55 69" fill="none" xmlns="http://www.w3.org/2000/svg">
<path opacity="0.2" fill-rule="evenodd" clip-rule="evenodd" d="M26.3375 9.51724C25.7845 6.80101 23.4037 4.75862 20.5126 4.75862C17.2287 4.75862 14.5666 7.41255 14.5666 10.7269V31.8037C9.91633 27.4529 4.60747 24.2078 1.22616 27.5904C-3.50041 32.3187 6.42595 41.5963 14.188 55.743C19.5656 65.544 27.3794 69 34.7833 69C45.9487 69 55 59.9453 55 48.7759V34.5341C55 31.2488 52.3607 28.5855 49.0539 28.5855C47.7153 28.5855 46.48 29.0241 45.4862 29.7678V29.7357C45.4862 26.4537 42.847 23.7931 39.5402 23.7931C38.0315 23.7931 36.6541 24.3594 35.6058 25.2876C34.7711 23.0257 32.6011 21.4138 30.0264 21.4138C28.6878 21.4138 27.4525 21.8547 26.4587 22.5996V11.8966H43.2267L35.4968 19.6293L37.2806 21.4138L47.9836 10.7069L37.2806 0L35.4968 1.78448L43.2267 9.51724H26.3375ZM34.7803 66.6207C44.6337 66.6207 52.6216 58.0903 52.6216 48.7759C52.6216 48.7759 52.6216 54.2798 52.6216 48.7759V39.8515V34.504C52.6216 32.5307 51.038 30.931 49.0539 30.931C47.0835 30.931 45.4862 32.528 45.4862 34.504V35.6897H43.1078V29.7567C43.1078 27.7772 41.5243 26.1724 39.5402 26.1724C37.5698 26.1724 35.9725 27.7702 35.9725 29.7567V33.3103H33.5941V27.3774C33.5941 25.3978 32.0105 23.7931 30.0264 23.7931C28.056 23.7931 26.4587 25.3909 26.4587 27.3774V35.6897H24.0803V10.7194C24.0803 8.74139 22.4967 7.13793 20.5126 7.13793C18.5423 7.13793 16.945 8.72524 16.945 10.7194V37.5931C12.0492 32.3576 5.60372 26.5986 2.96223 29.2553C0.376467 31.856 7.03966 39.0224 16.3441 54.6839C20.5364 61.7405 25.841 66.6196 34.7803 66.6207Z" fill="black"/>
</svg>
