<svg width="80" height="81" viewBox="0 0 80 81" fill="none" xmlns="http://www.w3.org/2000/svg">
<path d="M64 11.7C64 6.40558 59.6944 2.09998 54.4 2.09998H48C44.6624 2.09998 41.7216 3.81358 40 6.40398C38.2784 3.81198 35.3376 2.09998 32 2.09998H25.6C20.3056 2.09998 16 6.40558 16 11.7C16 14.1608 16.9376 16.3992 18.464 18.1H1.60001V37.3H4.80001V78.9H32H35.2H44.8H48H75.2V37.3H78.4V18.1H61.536C63.0624 16.3992 64 14.1608 64 11.7ZM48 5.29998H54.4C57.9296 5.29998 60.8 8.17038 60.8 11.7C60.8 15.2296 57.9296 18.1 54.4 18.1H48H44.8H41.6V11.7C41.6 8.17038 44.4704 5.29998 48 5.29998ZM19.2 11.7C19.2 8.17038 22.0704 5.29998 25.6 5.29998H32C35.5296 5.29998 38.4 8.17038 38.4 11.7V18.1H35.2H32H25.6C22.0704 18.1 19.2 15.2296 19.2 11.7ZM4.80001 21.3H25.6H32V34.1H4.80001V21.3ZM32 75.7H8.00001V37.3H32V75.7ZM44.8 75.7H35.2V37.3V34.1V21.3H38.4H41.6H44.8V34.1V37.3V75.7ZM72 75.7H48V37.3H72V75.7ZM75.2 34.1H48V21.3H54.4H75.2V34.1Z" fill="#CE2127"/>
</svg>
