<svg width="50" height="40" viewBox="0 0 50 40" fill="none" xmlns="http://www.w3.org/2000/svg">
<g clip-path="url(#clip0_1_2458)">
<path d="M50 23.5006C50 22.1955 49.6934 20.9086 49.105 19.7436C48.5165 18.5786 47.6627 17.5681 46.6122 16.7936C45.5617 16.019 44.344 15.502 43.0571 15.2843C41.7702 15.0665 40.4502 15.154 39.2034 15.5398L38.3409 13.5007H40.8334C41.0544 13.5006 41.2663 13.4128 41.4225 13.2565C42.0201 12.6578 42.3556 11.8465 42.3556 11.0007C42.3556 10.1548 42.0201 9.34355 41.4225 8.74487C41.2663 8.58858 41.0544 8.50075 40.8334 8.5007H36.6667C36.5279 8.50371 36.3921 8.54246 36.2726 8.6132L33.2676 1.50906C33.2037 1.35831 33.0969 1.2297 32.9604 1.1393C32.8239 1.0489 32.6638 1.0007 32.5001 1.00073H26.6668V2.66739H31.9476L33.2242 5.68405C32.4361 5.38567 31.5858 5.28941 30.7509 5.40405C28.7658 5.7036 26.8111 6.17765 24.9093 6.82071C24.4576 6.96071 23.9821 7.10654 23.4826 7.25821L19.0526 8.5007H7.53602C6.80984 8.50017 6.09026 8.63849 5.41602 8.9082L4.45519 9.29236C4.1138 9.42896 3.82116 9.66471 3.61502 9.96921C3.40889 10.2737 3.29872 10.633 3.29872 11.0007C3.29872 11.3684 3.40889 11.7277 3.61502 12.0322C3.82116 12.3367 4.1138 12.5724 4.45519 12.709L5.41519 13.0932C6.08968 13.363 6.80956 13.5013 7.53602 13.5007H14.4585L15.5243 15.8982L13.9252 17.3398C13.0413 16.5352 11.9945 15.9303 10.856 15.5664C9.71748 15.2025 8.51393 15.088 7.32722 15.2309C6.14052 15.3737 4.9985 15.7704 3.97884 16.3941C2.95919 17.0178 2.08582 17.8538 1.41815 18.8452C0.750476 19.8366 0.304166 20.9602 0.109576 22.1395C-0.0850141 23.3188 -0.0233191 24.5262 0.290464 25.6795C0.604248 26.8329 1.16276 27.9051 1.928 28.8233C2.69325 29.7415 3.64728 30.4841 4.72519 31.0006H0.000213655V32.6673H50V31.0006H45.275C46.6884 30.3216 47.8816 29.2577 48.7174 27.931C49.5533 26.6043 49.9978 25.0687 50 23.5006ZM37.5001 10.1674H40.4425C40.6037 10.4154 40.6894 10.7049 40.6894 11.0007C40.6894 11.2965 40.6037 11.5859 40.4425 11.834H37.6359L37.5001 11.5132V10.1674ZM35.8259 11.834H35.6809C35.7117 11.7924 35.7451 11.7507 35.7742 11.7115L35.8259 11.834ZM23.9468 8.8607C24.4668 8.70403 24.9468 8.5557 25.4018 8.41403C27.2188 7.796 29.0873 7.34115 30.9851 7.05487C31.8148 6.93712 32.6589 7.12841 33.3567 7.59237C33.9484 7.98864 34.392 8.56974 34.6184 9.24486C34.7004 9.49382 34.7249 9.75812 34.6902 10.0179C34.6554 10.2777 34.5622 10.5262 34.4176 10.7449C34.1949 11.0799 33.8928 11.3548 33.5382 11.5448C33.1835 11.7348 32.7874 11.8342 32.3851 11.834H20.0001V9.96653L23.9468 8.8607ZM6.03519 11.5449L5.07519 11.1607C5.04295 11.1482 5.01525 11.1262 4.99571 11.0976C4.97618 11.0691 4.96573 11.0353 4.96573 11.0007C4.96573 10.9661 4.97618 10.9323 4.99571 10.9038C5.01525 10.8752 5.04295 10.8532 5.07519 10.8407L6.03519 10.4565C6.51202 10.2649 7.02127 10.1667 7.53518 10.1674H18.3335V11.834H7.53602C7.02182 11.8348 6.51228 11.7366 6.03519 11.5449ZM19.1668 13.5007H36.5309L36.5926 13.6448L36.8834 14.334H34.1667C33.9918 14.334 33.8212 14.389 33.6793 14.4913C33.5373 14.5936 33.4312 14.738 33.3759 14.904L29.3993 26.834H22.2085L16.2826 13.5007H19.1668ZM12.2402 22.099C12.1514 21.8556 12.0398 21.6213 11.9068 21.399L13.7968 19.6957C14.2295 20.3167 14.5528 21.0072 14.7527 21.7373L12.2402 22.099ZM7.57851 23.854C7.6457 23.9975 7.75241 24.1189 7.88614 24.2039C8.01986 24.2889 8.17505 24.334 8.33351 24.334C8.37311 24.3341 8.41265 24.3313 8.45184 24.3256L10.7852 23.9923C10.6921 24.4564 10.4691 24.8846 10.1422 25.227C9.81534 25.5694 9.39797 25.8119 8.93864 25.9264C8.47932 26.0409 7.99694 26.0226 7.54759 25.8737C7.09825 25.7248 6.70041 25.4514 6.40037 25.0852C6.10032 24.7191 5.91039 24.2753 5.85267 23.8055C5.79495 23.3356 5.87181 22.8591 6.07431 22.4312C6.27681 22.0033 6.59664 21.6417 6.99658 21.3885C7.39652 21.1352 7.86014 21.0007 8.33351 21.0006C8.74787 21.0035 9.15482 21.1107 9.51684 21.3123L7.77601 22.8815C7.64319 23.001 7.55229 23.16 7.51673 23.3351C7.48117 23.5102 7.50283 23.6921 7.57851 23.854ZM15.0418 18.5773L16.236 17.5007L17.9168 21.284L16.4168 21.4998C16.1545 20.4449 15.6873 19.4519 15.0418 18.5773ZM1.66687 23.5006C1.66514 22.2238 2.03064 20.9733 2.7198 19.8984C3.40896 18.8235 4.39271 17.9694 5.55377 17.438C6.71482 16.9066 8.0042 16.7203 9.26818 16.9014C10.5322 17.0824 11.7174 17.6231 12.6827 18.459L10.7968 20.1581C10.0859 19.6253 9.22195 19.3363 8.33351 19.334C7.51934 19.3306 6.72201 19.5658 6.04003 20.0105C5.35805 20.4552 4.82131 21.09 4.49613 21.8365C4.17095 22.5829 4.07158 23.4082 4.21029 24.2105C4.349 25.0128 4.71973 25.7568 5.27665 26.3507C5.83358 26.9446 6.5523 27.3624 7.34402 27.5523C8.13573 27.7422 8.96574 27.696 9.7315 27.4194C10.4973 27.1429 11.1652 26.648 11.6528 25.996C12.1404 25.3439 12.4263 24.5633 12.4752 23.7506L14.9943 23.3898C14.9943 23.4281 15.0001 23.4648 15.0001 23.5031C14.9998 25.2712 14.2971 26.9668 13.0467 28.2168C11.7962 29.4668 10.1004 30.1689 8.33226 30.1685C6.56416 30.1682 4.86861 29.4655 3.6186 28.215C2.3686 26.9646 1.66654 25.2687 1.66687 23.5006ZM11.9418 31.0006C13.3552 30.3216 14.5484 29.2577 15.3843 27.931C16.2201 26.6043 16.6646 25.0687 16.6668 23.5006C16.6668 23.3823 16.6543 23.2673 16.6493 23.1498L18.6218 22.8665L20.9051 28.0056C20.9706 28.153 21.0774 28.2782 21.2126 28.366C21.3478 28.4539 21.5056 28.5006 21.6668 28.5006H30.0001C30.1751 28.5007 30.3456 28.4456 30.4875 28.3433C30.6295 28.241 30.7356 28.0966 30.7909 27.9306L34.7676 16.0007H37.5892L37.6726 16.1915C36.3274 16.9248 35.2109 18.0151 34.4459 19.3425C33.6809 20.6698 33.2972 22.1826 33.3371 23.714C33.377 25.2455 33.839 26.7362 34.672 28.0219C35.5051 29.3076 36.6769 30.3384 38.0584 31.0006H11.9418ZM41.6667 30.1673C40.2003 30.1688 38.7744 29.6863 37.6102 28.7947C36.4459 27.9031 35.6085 26.6523 35.2277 25.2362C34.8469 23.8201 34.944 22.3179 35.5041 20.9627C36.0641 19.6074 37.0557 18.4749 38.3251 17.7407L39.31 20.074C38.4612 20.6595 37.8599 21.5393 37.6228 22.5429C37.3857 23.5464 37.5296 24.6023 38.0267 25.5058C38.5237 26.4093 39.3386 27.0961 40.3132 27.433C41.2878 27.77 42.3528 27.7331 43.3017 27.3295C44.2507 26.9259 45.016 26.1843 45.4493 25.2486C45.8826 24.3128 45.9531 23.2495 45.6471 22.2648C45.3411 21.28 44.6803 20.4439 43.7929 19.9186C42.9056 19.3933 41.8548 19.2161 40.8442 19.4215L39.8592 17.094C40.7776 16.8298 41.742 16.7661 42.6872 16.9072C43.6323 17.0484 44.5361 17.391 45.3372 17.9121C46.1383 18.4331 46.818 19.1202 47.3303 19.9269C47.8426 20.7337 48.1755 21.6411 48.3063 22.5877C48.4372 23.5343 48.3631 24.498 48.0889 25.4135C47.8147 26.3289 47.3469 27.1747 46.7172 27.8936C46.0875 28.6124 45.3107 29.1874 44.4393 29.5797C43.5679 29.972 42.6223 30.1724 41.6667 30.1673ZM40.8992 23.8256L42.4342 23.1756L41.5175 21.0156C41.5667 21.0156 41.6142 21.0006 41.6642 21.0006C42.2534 20.9943 42.8262 21.1945 43.2832 21.5664C43.7402 21.9383 44.0527 22.4584 44.1663 23.0365C44.2799 23.6147 44.1876 24.2144 43.9053 24.7316C43.623 25.2488 43.1685 25.6508 42.6208 25.8679C42.073 26.0851 41.4666 26.1036 40.9066 25.9204C40.3466 25.7371 39.8684 25.3636 39.555 24.8646C39.2417 24.3656 39.1128 23.7727 39.1909 23.1887C39.269 22.6047 39.5491 22.0664 39.9825 21.6673L40.8992 23.8256Z" fill="#CE2127"/>
</g>
<defs>
<clipPath id="clip0_1_2458">
<rect width="50" height="40" fill="white"/>
</clipPath>
</defs>
</svg>
