<svg width="32" height="40" viewBox="0 0 32 40" fill="none" xmlns="http://www.w3.org/2000/svg">
<path d="M24.668 16.4632C26.668 15.1824 28 12.9464 28 10.4C28 6.42965 24.7696 3.20005 20.8 3.20005C20.1144 3.20005 19.436 3.30245 18.7752 3.49845C17.308 1.84805 15.1768 0.800049 12.8 0.800049C8.3888 0.800049 4.8 4.38885 4.8 8.80005C4.8 11.5448 6.1912 13.9712 8.304 15.412C3.5704 16.3848 0 20.5833 0 25.6V39.2001H25.6V36H32V26.4C32 21.7328 28.9096 17.7752 24.668 16.4632ZM19.7776 4.89605C20.1152 4.83205 20.4568 4.80005 20.8 4.80005C23.888 4.80005 26.4 7.31285 26.4 10.4C26.4 13.4872 23.888 16 20.8 16C19.7016 16 18.644 15.68 17.7392 15.0848C17.7512 15.0752 17.7608 15.0648 17.7728 15.0552C18.4592 14.508 19.052 13.8512 19.5288 13.1104C19.5472 13.0816 19.564 13.0512 19.5824 13.0224C19.7168 12.8072 19.8416 12.5856 19.9552 12.3568C19.976 12.3144 19.9968 12.2712 20.0168 12.2288C20.1208 12.0112 20.2144 11.788 20.2992 11.56C20.3184 11.5088 20.3376 11.4576 20.356 11.4056C20.4328 11.1848 20.4976 10.96 20.5552 10.7304C20.5704 10.6712 20.5872 10.612 20.6008 10.5528C20.6512 10.3272 20.6904 10.0976 20.7208 9.86485C20.7296 9.80245 20.7424 9.74165 20.7488 9.67925C20.7808 9.39125 20.8 9.09765 20.8 8.80005C20.8 8.48325 20.7768 8.17205 20.7408 7.86485C20.7296 7.76805 20.7112 7.67285 20.6968 7.57605C20.6632 7.36005 20.6232 7.14725 20.5728 6.93765C20.5488 6.83685 20.5232 6.73685 20.4952 6.63765C20.4296 6.40485 20.3536 6.17765 20.268 5.95365C20.2448 5.89365 20.2264 5.83205 20.2016 5.77205C20.08 5.47525 19.9408 5.18805 19.7856 4.91045C19.7824 4.90565 19.78 4.90085 19.7776 4.89605ZM6.4 8.80005C6.4 5.27125 9.2712 2.40005 12.8 2.40005C14.7816 2.40005 16.5544 3.30565 17.7296 4.72325L17.7808 4.78965C17.82 4.83765 17.8544 4.88965 17.892 4.93845C18.2984 5.47365 18.6096 6.05685 18.8288 6.67205C18.844 6.71445 18.8608 6.75525 18.8744 6.79765C18.9696 7.08325 19.0408 7.37685 19.0944 7.67445C19.1056 7.73765 19.1144 7.80165 19.124 7.86565C19.1688 8.17365 19.2 8.48405 19.2 8.80005C19.2 9.06245 19.18 9.32165 19.148 9.57845C19.1408 9.63925 19.1296 9.69845 19.1208 9.75845C19.088 9.96965 19.0472 10.1784 18.9936 10.384C18.9824 10.428 18.972 10.472 18.96 10.516C18.8152 11.0304 18.6088 11.524 18.3432 11.9848C18.3376 11.9936 18.332 12.0024 18.3272 12.0112C18.1984 12.232 18.056 12.444 17.9016 12.6488C17.8872 12.668 17.8728 12.688 17.8584 12.7072C17.532 13.1296 17.152 13.512 16.7248 13.8448C16.7024 13.8624 16.6792 13.8784 16.6568 13.896C16.4536 14.0496 16.2416 14.1936 16.0192 14.3232C15.9936 14.3384 15.9688 14.3544 15.9432 14.3696L15.8192 14.4416C14.9184 14.924 13.8912 15.2 12.8 15.2C9.2712 15.2 6.4 12.3288 6.4 8.80005ZM24 37.6H1.6V25.6C1.6 20.748 5.548 16.8 10.4 16.8H15.2C16.396 16.8 17.5368 17.0416 18.5776 17.476L18.7312 17.5448C18.82 17.584 18.9056 17.6288 18.9928 17.6712C19.2304 17.7848 19.46 17.9088 19.684 18.0416C19.7856 18.1024 19.8888 18.1616 19.988 18.2264C20.0944 18.2952 20.1968 18.368 20.3 18.4416C20.4064 18.5176 20.5112 18.5961 20.6144 18.6768C20.7064 18.7488 20.7976 18.82 20.8864 18.8952C21.0216 19.0104 21.152 19.1304 21.28 19.2536C21.3808 19.3504 21.4792 19.4496 21.5752 19.5512C21.6832 19.6656 21.7904 19.7808 21.8928 19.9C21.9688 19.9896 22.0416 20.0808 22.1136 20.1728C22.1952 20.2768 22.2736 20.3825 22.3512 20.4904C22.4216 20.588 22.492 20.6856 22.5584 20.7864C22.6496 20.9248 22.7336 21.068 22.8168 21.2112C22.904 21.3616 22.9848 21.5144 23.0632 21.6696C23.1208 21.7832 23.1768 21.8976 23.2296 22.0144C23.2816 22.1296 23.3304 22.2472 23.3768 22.3648C23.4264 22.4904 23.472 22.6176 23.5168 22.7456C23.5536 22.8528 23.5936 22.9592 23.6264 23.068C23.6936 23.2912 23.752 23.5176 23.8016 23.7472C23.8208 23.8352 23.8344 23.9256 23.8512 24.0144C23.884 24.192 23.912 24.3713 23.9336 24.552C23.944 24.6369 23.9544 24.7216 23.9616 24.8072C23.9832 25.0688 24 25.3328 24 25.6V36V37.6ZM30.4 34.4001H25.6V25.6C25.6 25.22 25.5768 24.8456 25.5368 24.476C25.5272 24.3872 25.5088 24.3008 25.4968 24.2129C25.4584 23.9289 25.4144 23.6472 25.3536 23.3713C25.3328 23.2785 25.3056 23.188 25.2824 23.0961C25.2152 22.8272 25.1416 22.5608 25.0544 22.3008C25.024 22.2104 24.9888 22.1217 24.956 22.032C24.8624 21.7761 24.7608 21.5248 24.648 21.2784C24.6064 21.1888 24.5632 21.1008 24.5192 21.012C24.4008 20.7728 24.2744 20.5384 24.1384 20.3096C24.0864 20.2224 24.0344 20.136 23.9808 20.0497C23.8384 19.8256 23.6872 19.6089 23.5288 19.396C23.4688 19.316 23.4112 19.2344 23.3496 19.156C23.1752 18.936 22.9904 18.7264 22.8 18.5217C22.744 18.4616 22.6928 18.3992 22.6352 18.34C22.3824 18.0816 22.1192 17.8336 21.8408 17.6024C26.5816 17.7304 30.4 21.628 30.4 26.4V34.4001Z" fill="#CE2127"/>
</svg>
