<svg width="40" height="40" viewBox="0 0 40 40" fill="none" xmlns="http://www.w3.org/2000/svg">
<g clip-path="url(#clip0_1_2413)">
<path d="M1.04214 25.6356H24.9258C25.1492 25.6357 25.3637 25.5483 25.5235 25.3923C25.6834 25.2363 25.7759 25.024 25.7813 24.8007V0.896448C25.7813 0.669574 25.6911 0.451993 25.5307 0.291562C25.3703 0.131137 25.1527 0.0410156 24.9258 0.0410156H1.04214C0.815265 0.0410156 0.597684 0.131137 0.437259 0.291562C0.276835 0.451993 0.186707 0.669574 0.186707 0.896448V24.8007C0.192065 25.024 0.284554 25.2363 0.444404 25.3923C0.604247 25.5483 0.818775 25.6357 1.04214 25.6356ZM1.89757 1.75188H24.0704V23.9247H1.89757V1.75188Z" fill="#CE2127"/>
<path d="M25.0285 28.0855C24.8016 28.0855 24.584 28.1756 24.4236 28.336C24.2632 28.4964 24.173 28.714 24.173 28.9409V33.526L19.3826 30.3575C19.2205 30.256 19.0293 30.2113 18.839 30.2304C18.6487 30.2495 18.4701 30.3312 18.3314 30.4629C18.1927 30.5946 18.1017 30.7686 18.0727 30.9577C18.0438 31.1467 18.0785 31.34 18.1713 31.5072L19.8069 34.2446H6.32529L7.95404 31.6441C8.05046 31.4792 8.0894 31.2869 8.06469 31.0974C8.03999 30.9079 7.95308 30.7321 7.81764 30.5973C7.68214 30.4626 7.50572 30.3767 7.31616 30.3531C7.12652 30.3295 6.9345 30.3696 6.77012 30.467L1.89757 33.5602V28.9409C1.89757 28.714 1.80744 28.4964 1.64702 28.336C1.48659 28.1756 1.26901 28.0855 1.04214 28.0855C0.815265 28.0855 0.597684 28.1756 0.437259 28.336C0.276835 28.4964 0.186707 28.714 0.186707 28.9409V35.1C0.195042 35.2355 0.233824 35.3675 0.300171 35.4859C0.366525 35.6044 0.458734 35.7064 0.56994 35.7844L6.66062 39.8562C6.8003 39.9499 6.96468 39.9999 7.13282 39.9999C7.28173 39.999 7.42784 39.9595 7.55698 39.8853C7.68605 39.8111 7.79376 39.7048 7.86959 39.5766C7.94534 39.4484 7.98668 39.3028 7.98948 39.154C7.99229 39.005 7.9565 38.858 7.8856 38.7271L6.25001 35.9897H19.7522L18.1508 38.5765C18.0498 38.7404 18.007 38.9336 18.0294 39.1248C18.0518 39.316 18.138 39.4941 18.2741 39.6303C18.4102 39.7664 18.5884 39.8526 18.7796 39.875C18.9708 39.8974 19.164 39.8546 19.3279 39.7536L25.487 35.846C25.6411 35.7499 25.759 35.6055 25.8223 35.4354C25.8652 35.3334 25.8884 35.2242 25.8907 35.1137V28.9546C25.8926 28.8405 25.8716 28.7273 25.829 28.6214C25.7864 28.5156 25.723 28.4194 25.6427 28.3383C25.5623 28.2574 25.4666 28.1933 25.3611 28.1499C25.2557 28.1064 25.1426 28.0845 25.0285 28.0855Z" fill="#CE2127"/>
<path d="M39.9883 18.1625C39.8531 18.0236 39.6756 17.9334 39.4836 17.9062C39.2917 17.8789 39.0961 17.9162 38.9276 18.012L36.1902 19.6544V6.17964L38.7907 7.80838C38.9546 7.90939 39.1477 7.95223 39.339 7.92985C39.5302 7.90748 39.7083 7.82118 39.8445 7.68506C39.9806 7.54895 40.0668 7.37081 40.0892 7.17961C40.1116 6.9884 40.0688 6.79521 39.9678 6.63131L36.1286 0.540633C36.0648 0.381954 35.9553 0.245824 35.8139 0.149557C35.6726 0.05329 35.5058 0.00123182 35.3348 0H29.1757C28.9487 0 28.7312 0.0901285 28.5708 0.250553C28.4104 0.410977 28.3202 0.628558 28.3202 0.855433C28.3202 1.08231 28.4104 1.29989 28.5708 1.46031C28.7312 1.62074 28.9487 1.71087 29.1757 1.71087H33.7539L30.558 6.50128C30.4596 6.66286 30.4175 6.85249 30.4383 7.04055C30.4592 7.22861 30.5418 7.40441 30.6731 7.54053C30.8045 7.67665 30.9774 7.76534 31.1646 7.79278C31.3518 7.82015 31.5428 7.78477 31.7077 7.69204L34.4451 6.05646V19.5381L31.8378 17.9572C31.6734 17.8599 31.4813 17.8198 31.2917 17.8434C31.1021 17.867 30.9257 17.9529 30.7902 18.0876C30.6547 18.2223 30.5678 18.3982 30.5431 18.5877C30.5185 18.7771 30.5574 18.9694 30.6538 19.1343L33.7334 24.0137H29.1414C28.9145 24.0137 28.697 24.1038 28.5366 24.2642C28.3761 24.4247 28.286 24.6423 28.286 24.8691C28.286 25.096 28.3761 25.3136 28.5366 25.474C28.697 25.6344 28.9145 25.7246 29.1414 25.7246H35.3006C35.4037 25.7213 35.5055 25.7004 35.6017 25.663C35.7746 25.6054 35.9238 25.4924 36.026 25.3413L40.0499 19.2233C40.1607 19.0654 40.2149 18.8747 40.2038 18.6822C40.1925 18.4897 40.1166 18.3065 39.9883 18.1625Z" fill="#CE2127"/>
</g>
<defs>
<clipPath id="clip0_1_2413">
<rect width="40" height="40" fill="white"/>
</clipPath>
</defs>
</svg>
