<svg width="40" height="40" viewBox="0 0 40 40" fill="none" xmlns="http://www.w3.org/2000/svg">
<g clip-path="url(#clip0_1_2481)">
<path d="M37.5353 18.1616H36.2425V11.8587C36.2425 9.46367 34.2941 7.51516 31.899 7.51516H28.1011V6.84859C28.1011 5.83484 27.2763 5.01016 26.2627 5.01016H23.7173V3.71727C23.7173 1.66758 22.0497 0 20 0C17.9503 0 16.2827 1.66758 16.2827 3.71727V5.01008H13.7373C12.7236 5.01008 11.8989 5.83484 11.8989 6.84852V7.51508H8.10102C5.70602 7.51508 3.7575 9.46359 3.7575 11.8586V18.1615H2.46469C1.45094 18.1615 0.626251 18.9862 0.626251 19.9999V27.515C0.626251 28.5287 1.45102 29.3534 2.46469 29.3534H3.7575V35.6564C3.7575 38.0514 5.70594 39.9999 8.10102 39.9999H31.8989C34.2939 39.9999 36.2424 38.0515 36.2424 35.6564V29.3534H37.5352C38.549 29.3534 39.3737 28.5287 39.3737 27.515V20C39.3738 18.9862 38.549 18.1616 37.5353 18.1616ZM17.4546 3.71727C17.4546 2.31375 18.5965 1.17188 20 1.17188C21.4035 1.17188 22.5454 2.31375 22.5454 3.71727V5.01008H17.4547V3.71727H17.4546ZM13.0709 6.84852C13.0709 6.48094 13.3699 6.18195 13.7374 6.18195H26.2626C26.6302 6.18195 26.9291 6.48102 26.9291 6.84852V7.51508H13.0709V6.84852ZM38.2019 27.5151C38.2019 27.8827 37.9028 28.1816 37.5353 28.1816H36.2425V22.5052C36.2425 22.1816 35.9802 21.9193 35.6566 21.9193C35.333 21.9193 35.0706 22.1816 35.0706 22.5052V35.6564C35.0706 37.4052 33.6479 38.828 31.899 38.828H8.10102C6.35219 38.828 4.92938 37.4053 4.92938 35.6564V22.5048C4.92938 22.1812 4.66703 21.9188 4.34344 21.9188C4.01985 21.9188 3.7575 22.1812 3.7575 22.5048V28.1817H2.46469C2.09711 28.1817 1.79813 27.8827 1.79813 27.5152V20C1.79813 19.6324 2.09719 19.3334 2.46469 19.3334H3.7575V20.0002C3.7575 20.3238 4.01985 20.5861 4.34344 20.5861C4.66703 20.5861 4.92938 20.3238 4.92938 20.0002V11.8587C4.92938 10.1098 6.35211 8.68703 8.10102 8.68703H31.8989C33.6477 8.68703 35.0705 10.1098 35.0705 11.8587V20C35.0705 20.3236 35.3329 20.5859 35.6565 20.5859C35.9801 20.5859 36.2424 20.3236 36.2424 20V19.3334H37.5352C37.9028 19.3334 38.2018 19.6325 38.2018 20V27.5151H38.2019Z" fill="#CE2127"/>
<path d="M28.1413 29.4343H11.8587C10.8449 29.4343 10.0202 30.2591 10.0202 31.2728V32.5253C10.0202 33.539 10.845 34.3637 11.8587 34.3637H28.1414C29.1552 34.3637 29.9798 33.5389 29.9798 32.5253V31.2728C29.9798 30.2591 29.1551 29.4343 28.1413 29.4343ZM17.4546 30.6062H19.4141V33.1919H17.4546V30.6062ZM16.2827 33.1919H14.3233V30.6062H16.2827V33.1919ZM20.5859 30.6062H22.5454V33.1919H20.5859V30.6062ZM23.7172 30.6062H25.6766V33.1919H23.7172V30.6062ZM11.192 32.5253V31.2728C11.192 30.9053 11.4911 30.6063 11.8586 30.6063H13.1514V33.192H11.8586C11.4911 33.1919 11.192 32.8928 11.192 32.5253ZM28.808 32.5253C28.808 32.8929 28.5089 33.1919 28.1414 33.1919H26.8486V30.6062H28.1414C28.509 30.6062 28.808 30.9053 28.808 31.2728V32.5253Z" fill="#CE2127"/>
<path d="M10.868 24.4338C10.5892 24.2693 10.23 24.362 10.0656 24.6407C9.9011 24.9193 9.99376 25.2786 10.2724 25.4431C11.1577 25.9654 12.1396 26.22 13.1147 26.22C14.5605 26.22 15.9911 25.66 17.068 24.5832C18.8711 22.7801 19.2246 19.9857 17.9279 17.7875C17.7635 17.5089 17.4043 17.4161 17.1255 17.5807C16.8468 17.745 16.7541 18.1043 16.9186 18.3831C17.9438 20.1207 17.6644 22.3296 16.2394 23.7546C15.5334 24.4605 14.6351 24.8848 13.697 25.0092V16.2448C14.2692 16.3218 14.833 16.5111 15.3542 16.8186C15.6328 16.983 15.9922 16.8904 16.1566 16.6118C16.3211 16.3331 16.2284 15.9738 15.9498 15.8093C13.7517 14.5125 10.9573 14.8661 9.15423 16.6692C7.35118 18.4722 6.99758 21.2668 8.29438 23.4648C8.40368 23.65 8.59899 23.7531 8.79954 23.7531C8.90071 23.7531 9.00329 23.7269 9.09673 23.6717C9.3754 23.5073 9.46805 23.148 9.3036 22.8693C8.27844 21.1317 8.55782 18.9229 9.98282 17.4978C10.6888 16.7918 11.5871 16.3675 12.5252 16.2432V25.0075C11.953 24.9306 11.3893 24.7413 10.868 24.4338Z" fill="#CE2127"/>
<path d="M30.8997 17.5807C30.621 17.745 30.5284 18.1043 30.6928 18.3831C31.718 20.1207 31.4386 22.3295 30.0136 23.7546C29.3077 24.4605 28.4093 24.8849 27.4712 25.0092V16.2448C28.0434 16.3218 28.6071 16.5111 29.1284 16.8186C29.407 16.983 29.7663 16.8904 29.9308 16.6118C30.0952 16.3331 30.0026 15.9738 29.7239 15.8093C27.5259 14.5125 24.7313 14.8661 22.9283 16.6692C21.1252 18.4723 20.7716 21.2668 22.0684 23.4648C22.1777 23.65 22.373 23.7531 22.5737 23.7531C22.6748 23.7531 22.7773 23.7269 22.8709 23.6717C23.1495 23.5073 23.2422 23.148 23.0777 22.8693C22.0526 21.1317 22.332 18.9229 23.757 17.4978C24.4629 16.7918 25.3612 16.3675 26.2994 16.2432V25.0075C25.7272 24.9305 25.1634 24.7413 24.6422 24.4337C24.3635 24.2693 24.0043 24.3618 23.8398 24.6406C23.6753 24.9193 23.768 25.2786 24.0466 25.443C24.932 25.9654 25.9138 26.2199 26.8889 26.2199C28.3347 26.2199 29.7654 25.66 30.8423 24.5832C32.6454 22.78 32.9989 19.9856 31.7021 17.7875C31.5377 17.5089 31.1785 17.4162 30.8997 17.5807Z" fill="#CE2127"/>
</g>
<defs>
<clipPath id="clip0_1_2481">
<rect width="40" height="40" fill="white"/>
</clipPath>
</defs>
</svg>
