<svg width="40" height="40" viewBox="0 0 40 40" fill="none" xmlns="http://www.w3.org/2000/svg">
<path d="M32.2854 32.244C35.5187 28.9893 37.3334 24.5878 37.3334 20C37.3334 15.4123 35.5187 11.0107 32.2854 7.75596V7.7146H32.2441C28.9893 4.48135 24.5878 2.66675 20 2.66675C15.4122 2.66675 11.0107 4.48135 7.75599 7.7146H7.71462V7.75596C4.48137 11.0107 2.66669 15.4123 2.66669 20C2.66669 24.5878 4.48137 28.9893 7.71462 32.244V32.2854H7.75599C11.0107 35.5187 15.4122 37.3333 20 37.3333C24.5878 37.3333 28.9893 35.5187 32.2441 32.2854H32.2854V32.244ZM29.332 28.1903C29.1737 28.0548 28.9701 27.9839 28.7619 27.992C28.5537 28 28.3562 28.0864 28.2088 28.2337C28.0615 28.381 27.9752 28.5785 27.9672 28.7867C27.9591 28.995 28.03 29.1985 28.1655 29.3568L30.4736 31.6649C27.8119 34.088 24.3965 35.5196 20.8025 35.7187V32.4095C20.8025 32.1901 20.7153 31.9797 20.5602 31.8245C20.4051 31.6694 20.1946 31.5822 19.9752 31.5822C19.7558 31.5822 19.5453 31.6694 19.3902 31.8245C19.2351 31.9797 19.1479 32.1901 19.1479 32.4095V35.7187C15.5539 35.5196 12.1385 34.088 9.47677 31.6649L11.7849 29.3568C11.9204 29.1985 11.9913 28.995 11.9832 28.7867C11.9752 28.5785 11.8889 28.381 11.7416 28.2337C11.5942 28.0864 11.3967 28 11.1885 27.992C10.9803 27.9839 10.7767 28.0548 10.6184 28.1903L8.31028 30.4984C5.90226 27.8309 4.48551 24.416 4.29787 20.8273H7.56571C7.78511 20.8273 7.99557 20.7402 8.15069 20.585C8.30581 20.4299 8.39301 20.2194 8.39301 20C8.39301 19.7806 8.30581 19.5702 8.15069 19.415C7.99557 19.2599 7.78511 19.1727 7.56571 19.1727H4.29787C4.48551 15.584 5.90226 12.1691 8.31028 9.50157L10.6184 11.8097C10.7735 11.9639 10.9831 12.0503 11.2017 12.0503C11.4203 12.0503 11.6299 11.9639 11.7849 11.8097C11.9391 11.6548 12.0255 11.4451 12.0255 11.2265C12.0255 11.0079 11.9391 10.7983 11.7849 10.6432L9.47677 8.33507C12.1443 5.92714 15.5592 4.5103 19.1479 4.32267V7.5905C19.1479 7.8099 19.2351 8.02037 19.3902 8.17549C19.5453 8.33069 19.7558 8.4178 19.9752 8.4178C20.1946 8.4178 20.4051 8.33069 20.5602 8.17549C20.7153 8.02037 20.8025 7.8099 20.8025 7.5905V4.32267C24.3912 4.5103 27.8061 5.92714 30.4736 8.33507L28.1655 10.6432C28.0114 10.7983 27.9249 11.0079 27.9249 11.2265C27.9249 11.4451 28.0114 11.6548 28.1655 11.8097C28.3205 11.9639 28.5301 12.0503 28.7487 12.0503C28.9673 12.0503 29.1769 11.9639 29.332 11.8097L31.6401 9.50157C34.0632 12.1633 35.4949 15.5788 35.6939 19.1727H32.3847C32.1653 19.1727 31.9548 19.2599 31.7997 19.415C31.6446 19.5702 31.5574 19.7806 31.5574 20C31.5574 20.2194 31.6446 20.4299 31.7997 20.585C31.9548 20.7402 32.1653 20.8273 32.3847 20.8273H35.6939C35.4949 24.4213 34.0632 27.8368 31.6401 30.4984L29.332 28.1903Z" fill="#CE2127"/>
<path d="M20.8027 19.6613V14.2094C20.8027 13.99 20.7156 13.7795 20.5604 13.6244C20.4052 13.4693 20.1948 13.3821 19.9754 13.3821C19.756 13.3821 19.5455 13.4693 19.3904 13.6244C19.2353 13.7795 19.1481 13.99 19.1481 14.2094V20.0005C19.1475 20.1094 19.1684 20.2173 19.2095 20.3181C19.2507 20.4188 19.3113 20.5106 19.388 20.5879L25.1791 26.379C25.256 26.4565 25.3475 26.518 25.4483 26.5601C25.5491 26.6021 25.6573 26.6237 25.7665 26.6237C25.8757 26.6237 25.9838 26.6021 26.0847 26.5601C26.1855 26.518 26.277 26.4565 26.3539 26.379C26.4314 26.302 26.4929 26.2105 26.535 26.1098C26.577 26.0089 26.5986 25.9008 26.5986 25.7916C26.5986 25.6824 26.577 25.5742 26.535 25.4734C26.4929 25.3726 26.4314 25.2811 26.3539 25.2042L20.8027 19.6613Z" fill="#CE2127"/>
</svg>
