<svg width="80" height="80" viewBox="0 0 80 80" fill="none" xmlns="http://www.w3.org/2000/svg">
<path d="M57.336 32.926C61.336 30.3644 64 25.8924 64 20.7996C64 12.8588 57.5392 6.39961 49.6 6.39961C48.2288 6.39961 46.872 6.60441 45.5504 6.99641C42.616 3.69561 38.3536 1.59961 33.6 1.59961C24.7776 1.59961 17.6 8.77721 17.6 17.5996C17.6 23.0892 20.3824 27.942 24.608 30.8236C15.1408 32.7692 8 41.166 8 51.1996V78.3996H59.2V71.9996H72V52.7996C72 43.4652 65.8192 35.55 57.336 32.926ZM47.5552 9.79161C48.2304 9.66361 48.9136 9.59961 49.6 9.59961C55.776 9.59961 60.8 14.6252 60.8 20.7996C60.8 26.974 55.776 31.9996 49.6 31.9996C47.4032 31.9996 45.288 31.3596 43.4784 30.1692C43.5024 30.15 43.5216 30.1292 43.5456 30.11C44.9184 29.0156 46.104 27.702 47.0576 26.2204C47.0944 26.1628 47.128 26.102 47.1648 26.0444C47.4336 25.614 47.6832 25.1708 47.9104 24.7132C47.952 24.6284 47.9936 24.542 48.0336 24.4572C48.2416 24.022 48.4288 23.5756 48.5984 23.1196C48.6368 23.0172 48.6752 22.9148 48.712 22.8108C48.8656 22.3692 48.9952 21.9196 49.1104 21.4604C49.1408 21.342 49.1744 21.2236 49.2016 21.1052C49.3024 20.654 49.3808 20.1948 49.4416 19.7292C49.4592 19.6044 49.4848 19.4828 49.4976 19.358C49.5616 18.782 49.6 18.1948 49.6 17.5996C49.6 16.966 49.5536 16.3436 49.4816 15.7292C49.4592 15.5356 49.4224 15.3452 49.3936 15.1516C49.3264 14.7196 49.2464 14.294 49.1456 13.8748C49.0976 13.6732 49.0464 13.4732 48.9904 13.2748C48.8592 12.8092 48.7072 12.3548 48.536 11.9068C48.4896 11.7868 48.4528 11.6636 48.4032 11.5436C48.16 10.95 47.8816 10.3756 47.5712 9.82041C47.5648 9.81081 47.56 9.80121 47.5552 9.79161ZM20.8 17.5996C20.8 10.542 26.5424 4.79961 33.6 4.79961C37.5632 4.79961 41.1088 6.61081 43.4592 9.44601L43.5616 9.57881C43.64 9.67481 43.7088 9.77881 43.784 9.87641C44.5968 10.9468 45.2192 12.1132 45.6576 13.3436C45.688 13.4284 45.7216 13.51 45.7488 13.5948C45.9392 14.166 46.0816 14.7532 46.1888 15.3484C46.2112 15.4748 46.2288 15.6028 46.248 15.7308C46.3376 16.3468 46.4 16.9676 46.4 17.5996C46.4 18.1244 46.36 18.6428 46.296 19.1564C46.2816 19.278 46.2592 19.3964 46.2416 19.5164C46.176 19.9388 46.0944 20.3564 45.9872 20.7676C45.9648 20.8556 45.944 20.9436 45.92 21.0316C45.6304 22.0604 45.2176 23.0476 44.6864 23.9692C44.6752 23.9868 44.664 24.0044 44.6544 24.022C44.3968 24.4636 44.112 24.8876 43.8032 25.2972C43.7744 25.3356 43.7456 25.3756 43.7168 25.414C43.064 26.2588 42.304 27.0236 41.4496 27.6892C41.4048 27.7244 41.3584 27.7564 41.3136 27.7916C40.9072 28.0988 40.4832 28.3868 40.0384 28.646C39.9872 28.6764 39.9376 28.7084 39.8864 28.7388L39.6384 28.8828C37.8368 29.8476 35.7824 30.3996 33.6 30.3996C26.5424 30.3996 20.8 24.6572 20.8 17.5996ZM56 75.1996H11.2V51.1996C11.2 41.4956 19.096 33.5996 28.8 33.5996H38.4C40.792 33.5996 43.0736 34.0828 45.1552 34.9516L45.4624 35.0892C45.64 35.1676 45.8112 35.2572 45.9856 35.342C46.4608 35.5692 46.92 35.8172 47.368 36.0828C47.5712 36.2044 47.7776 36.3228 47.976 36.4524C48.1888 36.59 48.3936 36.7356 48.6 36.8828C48.8128 37.0348 49.0224 37.1916 49.2288 37.3532C49.4128 37.4972 49.5952 37.6396 49.7728 37.79C50.0432 38.0204 50.304 38.2604 50.56 38.5068C50.7616 38.7004 50.9584 38.8988 51.1504 39.102C51.3664 39.3308 51.5808 39.5612 51.7856 39.7996C51.9376 39.9788 52.0832 40.1612 52.2272 40.3452C52.3904 40.5532 52.5472 40.7644 52.7024 40.9804C52.8432 41.1756 52.984 41.3708 53.1168 41.5724C53.2992 41.8492 53.4672 42.1356 53.6336 42.422C53.808 42.7228 53.9696 43.0284 54.1264 43.3388C54.2416 43.566 54.3536 43.7948 54.4592 44.0284C54.5632 44.2588 54.6608 44.494 54.7536 44.7292C54.8528 44.9804 54.944 45.2348 55.0336 45.4908C55.1072 45.7052 55.1872 45.918 55.2528 46.1356C55.3872 46.582 55.504 47.0348 55.6032 47.494C55.6416 47.67 55.6688 47.8508 55.7024 48.0284C55.768 48.3836 55.824 48.742 55.8672 49.1036C55.888 49.2732 55.9088 49.4428 55.9232 49.614C55.9664 50.1372 56 50.6652 56 51.1996V71.9996V75.1996ZM68.8 68.7996H59.2V51.1996C59.2 50.4396 59.1536 49.6908 59.0736 48.9516C59.0544 48.774 59.0176 48.6012 58.9936 48.4252C58.9168 47.8572 58.8288 47.294 58.7072 46.742C58.6656 46.5564 58.6112 46.3756 58.5648 46.1916C58.4304 45.654 58.2832 45.1212 58.1088 44.6012C58.048 44.4204 57.9776 44.2428 57.912 44.0636C57.7248 43.5516 57.5216 43.0492 57.296 42.5564C57.2128 42.3772 57.1264 42.2012 57.0384 42.0236C56.8016 41.5452 56.5488 41.0764 56.2768 40.6188C56.1728 40.4444 56.0688 40.2716 55.9616 40.0988C55.6768 39.6508 55.3744 39.2172 55.0576 38.7916C54.9376 38.6316 54.8224 38.4684 54.6992 38.3116C54.3504 37.8716 53.9808 37.4524 53.6 37.0428C53.488 36.9228 53.3856 36.798 53.2704 36.6796C52.7648 36.1628 52.2384 35.6668 51.6816 35.2044C61.1632 35.4604 68.8 43.2556 68.8 52.7996V68.7996Z" fill="#CE2127"/>
</svg>
