<svg width="69" height="55" viewBox="0 0 69 55" fill="none" xmlns="http://www.w3.org/2000/svg">
<path opacity="0.2" fill-rule="evenodd" clip-rule="evenodd" d="M9.51724 28.6625C6.80101 29.2155 4.75862 31.5963 4.75862 34.4874C4.75862 37.7713 7.41254 40.4334 10.7269 40.4334L31.8037 40.4334C27.4529 45.0837 24.2078 50.3925 27.5904 53.7738C32.3187 58.5004 41.5963 48.574 55.743 40.812C65.544 35.4344 69 27.6206 69 20.2167C69 9.05133 59.9453 -2.62029e-06 48.7759 -2.13206e-06L34.5341 -1.50953e-06C31.2488 -1.36593e-06 28.5855 2.63926 28.5855 5.94609C28.5855 7.28469 29.0241 8.51997 29.7678 9.51375L29.7357 9.51375C26.4537 9.51375 23.7931 12.153 23.7931 15.4598C23.7931 16.9685 24.3594 18.3459 25.2876 19.3942C23.0257 20.2289 21.4138 22.3989 21.4138 24.9736C21.4138 26.3122 21.8547 27.5475 22.5996 28.5413L11.8966 28.5413L11.8966 11.7733L19.6293 19.5032L21.4138 17.7194L10.7069 7.0164L-1.62959e-06 17.7194L1.78448 19.5032L9.51724 11.7733L9.51724 28.6625ZM66.6207 20.2197C66.6207 10.3662 58.0903 2.37843 48.7759 2.37843C48.7759 2.37843 54.2798 2.37843 48.7759 2.37843L39.8515 2.37844L34.504 2.37844C32.5307 2.37844 30.931 3.96199 30.931 5.94609C30.931 7.91646 32.528 9.51375 34.504 9.51375L35.6897 9.51375L35.6897 11.8922L29.7567 11.8922C27.7772 11.8922 26.1724 13.4757 26.1724 15.4598C26.1724 17.4302 27.7702 19.0275 29.7567 19.0275L33.3103 19.0275L33.3103 21.4059L27.3774 21.4059C25.3978 21.4059 23.7931 22.9895 23.7931 24.9736C23.7931 26.944 25.3909 28.5413 27.3774 28.5413L35.6897 28.5413L35.6897 30.9197L10.7194 30.9197C8.74139 30.9197 7.13793 32.5033 7.13793 34.4874C7.13793 36.4577 8.72524 38.055 10.7194 38.055L37.5931 38.055C32.3576 42.9508 26.5986 49.3963 29.2553 52.0378C31.856 54.6235 39.0224 47.9603 54.6839 38.6559C61.7405 34.4636 66.6196 29.159 66.6207 20.2197Z" fill="black"/>
</svg>
