<svg width="50" height="50" viewBox="0 0 50 50" fill="none" xmlns="http://www.w3.org/2000/svg">
<path d="M41.3032 33.1836L49.9224 12.9888C49.9671 12.8846 49.9909 12.7727 49.9924 12.6594C49.9938 12.5461 49.9729 12.4336 49.9309 12.3284C49.8889 12.2231 49.8266 12.1272 49.7475 12.046C49.6684 11.9648 49.5741 11.9001 49.4699 11.8554C49.3658 11.8106 49.2539 11.7869 49.1405 11.7854C49.0272 11.784 48.9147 11.8049 48.8095 11.8469C48.7042 11.8889 48.6083 11.9512 48.5271 12.0303C48.446 12.1094 48.3812 12.2037 48.3365 12.3079L39.9414 31.9769H13.7132L8.6192 9.01533C8.57542 8.8209 8.4656 8.64764 8.30845 8.52507C8.1513 8.40249 7.95653 8.33816 7.75728 8.34303H0.86192C0.633325 8.34303 0.414092 8.43384 0.252451 8.59548C0.0908092 8.75712 0 8.97636 0 9.20495C0 9.43355 0.0908092 9.65278 0.252451 9.81442C0.414092 9.97606 0.633325 10.0669 0.86192 10.0669H7.06775L13.6873 39.8031C13.7311 39.9976 13.8409 40.1708 13.998 40.2934C14.1552 40.416 14.35 40.4803 14.5492 40.4754H40.5103C40.7388 40.4754 40.9581 40.3846 41.1197 40.223C41.2814 40.0613 41.3722 39.8421 41.3722 39.6135C41.3722 39.3849 41.2814 39.1657 41.1197 39.004C40.9581 38.8424 40.7388 38.7516 40.5103 38.7516H15.2215L14.0924 33.7007H40.5103C40.6785 33.7013 40.8432 33.6527 40.9841 33.5608C41.125 33.4689 41.2359 33.3378 41.3032 33.1836Z" fill="black"/>
<path d="M19.1433 42.1738C18.369 42.1738 17.6121 42.4036 16.9684 42.8339C16.3247 43.2643 15.8231 43.8759 15.5272 44.5915C15.2313 45.307 15.1543 46.0942 15.306 46.8535C15.4577 47.6128 15.8312 48.3101 16.3794 48.857C16.9275 49.4039 17.6255 49.7759 18.3852 49.9259C19.1448 50.0759 19.9319 49.9972 20.6467 49.6997C21.3616 49.4022 21.9722 48.8993 22.4011 48.2547C22.8301 47.6101 23.0581 46.8526 23.0564 46.0783C23.0564 45.5649 22.9551 45.0564 22.7584 44.5822C22.5616 44.1079 22.2732 43.6771 21.9098 43.3144C21.5463 42.9517 21.1148 42.6643 20.6401 42.4686C20.1654 42.2729 19.6568 42.1727 19.1433 42.1738ZM19.1433 48.2676C18.7103 48.2676 18.287 48.1392 17.927 47.8987C17.567 47.6581 17.2864 47.3162 17.1207 46.9161C16.955 46.5161 16.9116 46.0759 16.9961 45.6512C17.0805 45.2266 17.2891 44.8365 17.5952 44.5303C17.9014 44.2241 18.2915 44.0156 18.7162 43.9311C19.1409 43.8467 19.581 43.89 19.9811 44.0557C20.3811 44.2214 20.723 44.502 20.9636 44.862C21.2042 45.2221 21.3326 45.6453 21.3326 46.0783C21.3326 46.659 21.1019 47.2158 20.6913 47.6264C20.2808 48.037 19.7239 48.2676 19.1433 48.2676Z" fill="black"/>
<path d="M34.9078 42.174C34.1321 42.1671 33.3718 42.391 32.7236 42.8172C32.0754 43.2434 31.5685 43.8527 31.2672 44.5676C30.966 45.2825 30.8841 46.0708 31.0319 46.8323C31.1796 47.5939 31.5504 48.2944 32.0972 48.8447C32.6439 49.3951 33.3419 49.7705 34.1024 49.9234C34.863 50.0762 35.6518 49.9995 36.3687 49.7031C37.0856 49.4066 37.6982 48.9037 38.1287 48.2584C38.5592 47.613 38.7881 46.8542 38.7865 46.0785C38.7865 45.0474 38.3787 44.0582 37.652 43.3267C36.9254 42.5952 35.9389 42.1808 34.9078 42.174ZM34.9078 48.2678C34.4734 48.2746 34.0468 48.152 33.6823 47.9157C33.3177 47.6793 33.0318 47.3398 32.8608 46.9404C32.6898 46.5411 32.6415 46.0998 32.722 45.6729C32.8025 45.246 33.0083 44.8527 33.313 44.543C33.6178 44.2334 34.0078 44.0214 34.4334 43.9341C34.859 43.8468 35.3009 43.8881 35.703 44.0528C36.105 44.2174 36.449 44.4979 36.6911 44.8587C36.9332 45.2194 37.0626 45.644 37.0626 46.0785C37.0627 46.6532 36.8368 47.2049 36.4336 47.6145C36.0305 48.0241 35.4824 48.2587 34.9078 48.2678Z" fill="black"/>
<path d="M15.6094 13.1184V25.3922C15.6094 26.0948 15.8879 26.7687 16.3839 27.2663C16.8799 27.7639 17.5529 28.0446 18.2555 28.0469H36.7954C37.498 28.0446 38.171 27.7639 38.667 27.2663C39.163 26.7687 39.4415 26.0948 39.4415 25.3922V13.1184C39.9948 12.963 40.4826 12.6317 40.8309 12.1745C41.1792 11.7173 41.3692 11.1591 41.3722 10.5844V9.40355C41.3722 8.70097 41.0937 8.02703 40.5977 7.52942C40.1017 7.03182 39.4287 6.75112 38.7261 6.74884H34.5458C34.9327 6.1536 35.1393 5.45914 35.1405 4.74918V3.7235C35.1382 2.73666 34.7452 1.7909 34.0474 1.0931C33.3496 0.395303 32.4038 0.00227644 31.417 0H30.3913C29.8414 0.00230285 29.2988 0.12639 28.8025 0.363346C28.3063 0.600302 27.8686 0.944243 27.5211 1.37045C27.1761 0.943523 26.7402 0.598954 26.2452 0.361869C25.7501 0.124783 25.2084 0.00115633 24.6595 0H23.6339C22.647 0.00227644 21.7013 0.395303 21.0035 1.0931C20.3057 1.7909 19.9126 2.73666 19.9104 3.7235V4.74918C19.9116 5.45914 20.1181 6.1536 20.5051 6.74884H16.3248C15.6222 6.75112 14.9492 7.03182 14.4532 7.52942C13.9572 8.02703 13.6787 8.70097 13.6787 9.40355V10.5844C13.6816 11.1591 13.8716 11.7173 14.2199 12.1745C14.5683 12.6317 15.056 12.963 15.6094 13.1184ZM17.3332 25.3922V13.2305H23.5649V26.323H18.2555C18.1336 26.3231 18.013 26.2989 17.9005 26.252C17.7881 26.2051 17.686 26.1364 17.6003 26.0499C17.5145 25.9633 17.4468 25.8606 17.4009 25.7478C17.3551 25.6349 17.3321 25.514 17.3332 25.3922ZM25.2887 26.323V13.2305H29.7621V26.323H25.2887ZM25.2887 8.47268H29.7621V11.5066H25.2887V8.47268ZM37.7176 25.3922C37.7188 25.514 37.6958 25.6349 37.6499 25.7478C37.6041 25.8606 37.5363 25.9633 37.4506 26.0499C37.3648 26.1364 37.2628 26.2051 37.1503 26.252C37.0379 26.2989 36.9172 26.3231 36.7954 26.323H31.4859V13.2305H37.7176V25.3922ZM39.6483 9.40355V10.5844C39.6483 10.829 39.5512 11.0636 39.3782 11.2365C39.2053 11.4095 38.9707 11.5066 38.7261 11.5066H31.4859V8.47268H38.7261C38.8479 8.47267 38.9685 8.49681 39.081 8.54369C39.1935 8.59058 39.2955 8.65929 39.3813 8.74584C39.467 8.83239 39.5348 8.93508 39.5806 9.04797C39.6265 9.16086 39.6495 9.28172 39.6483 9.40355ZM30.3913 1.72384H31.417C31.9473 1.72384 32.456 1.93452 32.831 2.30953C33.206 2.68453 33.4166 3.19315 33.4166 3.7235V4.74918C33.4166 5.27952 33.206 5.78814 32.831 6.16315C32.456 6.53816 31.9473 6.74884 31.417 6.74884H28.3917V3.7235C28.3917 3.19315 28.6023 2.68453 28.9773 2.30953C29.3523 1.93452 29.861 1.72384 30.3913 1.72384ZM21.6342 4.74918V3.7235C21.6342 3.4609 21.6859 3.20087 21.7864 2.95826C21.8869 2.71565 22.0342 2.49521 22.2199 2.30953C22.4056 2.12384 22.626 1.97655 22.8686 1.87606C23.1112 1.77556 23.3713 1.72384 23.6339 1.72384H24.6595C25.1907 1.72384 25.7002 1.93424 26.0766 2.309C26.4529 2.68376 26.6655 3.19236 26.6678 3.7235V6.74884H23.6339C23.3713 6.74884 23.1112 6.69711 22.8686 6.59662C22.626 6.49613 22.4056 6.34884 22.2199 6.16315C22.0342 5.97747 21.8869 5.75703 21.7864 5.51442C21.6859 5.27181 21.6342 5.01178 21.6342 4.74918ZM15.4025 9.40355C15.4014 9.28172 15.4244 9.16086 15.4702 9.04797C15.5161 8.93508 15.5838 8.83239 15.6696 8.74584C15.7553 8.65929 15.8574 8.59058 15.9698 8.54369C16.0823 8.49681 16.2029 8.47267 16.3248 8.47268H23.5649V11.5066H16.3248C16.0802 11.5066 15.8456 11.4095 15.6726 11.2365C15.4997 11.0636 15.4025 10.829 15.4025 10.5844V9.40355Z" fill="black"/>
</svg>
