<svg width="50" height="50" viewBox="0 0 50 50" fill="none" xmlns="http://www.w3.org/2000/svg">
<path d="M41.3032 33.1841L49.9224 12.9893C49.9671 12.8851 49.9909 12.7732 49.9924 12.6599C49.9938 12.5466 49.9729 12.4341 49.9309 12.3288C49.8889 12.2236 49.8266 12.1276 49.7475 12.0465C49.6684 11.9653 49.5741 11.9006 49.4699 11.8558C49.3658 11.8111 49.2539 11.7874 49.1405 11.7859C49.0272 11.7845 48.9147 11.8053 48.8095 11.8474C48.7042 11.8894 48.6083 11.9517 48.5271 12.0308C48.446 12.1099 48.3812 12.2042 48.3365 12.3084L39.9414 31.9774H13.7132L8.6192 9.01582C8.57542 8.82138 8.4656 8.64813 8.30845 8.52556C8.1513 8.40298 7.95653 8.33865 7.75728 8.34352H0.86192C0.633325 8.34352 0.414092 8.43433 0.252451 8.59597C0.0908092 8.75761 0 8.97684 0 9.20544C0 9.43403 0.0908092 9.65327 0.252451 9.81491C0.414092 9.97655 0.633325 10.0674 0.86192 10.0674H7.06775L13.6873 39.8036C13.7311 39.998 13.8409 40.1713 13.998 40.2939C14.1552 40.4164 14.35 40.4808 14.5492 40.4759H40.5103C40.7388 40.4759 40.9581 40.3851 41.1197 40.2235C41.2814 40.0618 41.3722 39.8426 41.3722 39.614C41.3722 39.3854 41.2814 39.1662 41.1197 39.0045C40.9581 38.8429 40.7388 38.7521 40.5103 38.7521H15.2215L14.0924 33.7012H40.5103C40.6785 33.7018 40.8432 33.6531 40.9841 33.5613C41.125 33.4694 41.2359 33.3382 41.3032 33.1841Z" fill="#CE2127"/>
<path d="M19.1431 42.1738C18.3688 42.1738 17.6119 42.4036 16.9682 42.8339C16.3245 43.2643 15.8229 43.8759 15.527 44.5915C15.2311 45.307 15.1541 46.0942 15.3058 46.8535C15.4575 47.6128 15.831 48.3101 16.3792 48.857C16.9273 49.4039 17.6253 49.7759 18.385 49.9259C19.1446 50.0759 19.9317 49.9972 20.6466 49.6997C21.3614 49.4022 21.972 48.8993 22.4009 48.2547C22.8299 47.6101 23.0579 46.8526 23.0562 46.0783C23.0562 45.5649 22.9549 45.0564 22.7582 44.5822C22.5614 44.1079 22.273 43.6771 21.9096 43.3144C21.5461 42.9517 21.1146 42.6643 20.6399 42.4686C20.1652 42.2729 19.6566 42.1727 19.1431 42.1738ZM19.1431 48.2676C18.7101 48.2676 18.2868 48.1392 17.9268 47.8987C17.5668 47.6581 17.2862 47.3162 17.1205 46.9161C16.9548 46.5161 16.9114 46.0759 16.9959 45.6512C17.0804 45.2266 17.2889 44.8365 17.595 44.5303C17.9012 44.2241 18.2913 44.0156 18.716 43.9311C19.1407 43.8467 19.5809 43.89 19.9809 44.0557C20.3809 44.2214 20.7228 44.502 20.9634 44.862C21.204 45.2221 21.3324 45.6453 21.3324 46.0783C21.3324 46.659 21.1017 47.2158 20.6911 47.6264C20.2806 48.037 19.7237 48.2676 19.1431 48.2676Z" fill="#CE2127"/>
<path d="M34.908 42.174C34.1323 42.1671 33.372 42.391 32.7238 42.8172C32.0756 43.2434 31.5687 43.8527 31.2675 44.5676C30.9663 45.2825 30.8843 46.0708 31.0321 46.8323C31.1799 47.5939 31.5507 48.2944 32.0974 48.8447C32.6441 49.3951 33.3421 49.7705 34.1027 49.9234C34.8632 50.0762 35.6521 49.9995 36.369 49.7031C37.0859 49.4066 37.6984 48.9037 38.1289 48.2584C38.5594 47.613 38.7884 46.8542 38.7867 46.0785C38.7867 45.0474 38.3789 44.0582 37.6522 43.3267C36.9256 42.5952 35.9391 42.1808 34.908 42.174ZM34.908 48.2678C34.4736 48.2746 34.047 48.152 33.6825 47.9157C33.318 47.6793 33.032 47.3398 32.861 46.9404C32.69 46.5411 32.6417 46.0998 32.7222 45.6729C32.8028 45.246 33.0085 44.8527 33.3133 44.543C33.618 44.2334 34.008 44.0214 34.4336 43.9341C34.8592 43.8468 35.3012 43.8881 35.7032 44.0528C36.1053 44.2174 36.4492 44.4979 36.6913 44.8587C36.9335 45.2194 37.0628 45.644 37.0628 46.0785C37.0629 46.6532 36.837 47.2049 36.4339 47.6145C36.0307 48.0241 35.4827 48.2587 34.908 48.2678Z" fill="#CE2127"/>
<path d="M15.6094 13.1184V25.3922C15.6094 26.0948 15.8879 26.7687 16.3839 27.2663C16.8799 27.7639 17.5529 28.0446 18.2555 28.0469H36.7954C37.498 28.0446 38.171 27.7639 38.667 27.2663C39.163 26.7687 39.4415 26.0948 39.4415 25.3922V13.1184C39.9949 12.963 40.4826 12.6317 40.8309 12.1745C41.1793 11.7173 41.3693 11.1591 41.3722 10.5844V9.40355C41.3722 8.70097 41.0937 8.02703 40.5977 7.52942C40.1017 7.03182 39.4287 6.75112 38.7261 6.74884H34.5458C34.9328 6.1536 35.1393 5.45914 35.1405 4.74918V3.7235C35.1383 2.73666 34.7452 1.7909 34.0474 1.0931C33.3496 0.395303 32.4039 0.00227644 31.417 0H30.3913C29.8414 0.00230285 29.2988 0.12639 28.8026 0.363346C28.3063 0.600302 27.8687 0.944243 27.5212 1.37045C27.1762 0.943523 26.7403 0.598954 26.2452 0.361869C25.7502 0.124783 25.2085 0.00115633 24.6596 0H23.6339C22.6471 0.00227644 21.7013 0.395303 21.0035 1.0931C20.3057 1.7909 19.9127 2.73666 19.9104 3.7235V4.74918C19.9116 5.45914 20.1182 6.1536 20.5051 6.74884H16.3248C15.6222 6.75112 14.9492 7.03182 14.4532 7.52942C13.9572 8.02703 13.6787 8.70097 13.6787 9.40355V10.5844C13.6816 11.1591 13.8716 11.7173 14.22 12.1745C14.5683 12.6317 15.056 12.963 15.6094 13.1184ZM17.3333 25.3922V13.2305H23.5649V26.323H18.2555C18.1337 26.3231 18.013 26.2989 17.9006 26.252C17.7881 26.2051 17.6861 26.1364 17.6003 26.0499C17.5146 25.9633 17.4468 25.8606 17.401 25.7478C17.3551 25.6349 17.3321 25.514 17.3333 25.3922ZM25.2888 26.323V13.2305H29.7621V26.323H25.2888ZM25.2888 8.47268H29.7621V11.5066H25.2888V8.47268ZM37.7177 25.3922C37.7188 25.514 37.6958 25.6349 37.65 25.7478C37.6041 25.8606 37.5364 25.9633 37.4506 26.0499C37.3649 26.1364 37.2628 26.2051 37.1503 26.252C37.0379 26.2989 36.9173 26.3231 36.7954 26.323H31.486V13.2305H37.7177V25.3922ZM39.6484 9.40355V10.5844C39.6484 10.829 39.5512 11.0636 39.3782 11.2365C39.2053 11.4095 38.9707 11.5066 38.7261 11.5066H31.486V8.47268H38.7261C38.848 8.47267 38.9686 8.49681 39.081 8.54369C39.1935 8.59058 39.2956 8.65929 39.3813 8.74584C39.4671 8.83239 39.5348 8.93508 39.5807 9.04797C39.6265 9.16086 39.6495 9.28172 39.6484 9.40355ZM30.3913 1.72384H31.417C31.9474 1.72384 32.456 1.93452 32.831 2.30953C33.206 2.68453 33.4167 3.19315 33.4167 3.7235V4.74918C33.4167 5.27952 33.206 5.78814 32.831 6.16315C32.456 6.53816 31.9474 6.74884 31.417 6.74884H28.3917V3.7235C28.3917 3.19315 28.6024 2.68453 28.9774 2.30953C29.3524 1.93452 29.861 1.72384 30.3913 1.72384ZM21.6342 4.74918V3.7235C21.6342 3.4609 21.686 3.20087 21.7864 2.95826C21.8869 2.71565 22.0342 2.49521 22.2199 2.30953C22.4056 2.12384 22.626 1.97655 22.8687 1.87606C23.1113 1.77556 23.3713 1.72384 23.6339 1.72384H24.6596C25.1907 1.72384 25.7002 1.93424 26.0766 2.309C26.453 2.68376 26.6656 3.19236 26.6678 3.7235V6.74884H23.6339C23.3713 6.74884 23.1113 6.69711 22.8687 6.59662C22.626 6.49613 22.4056 6.34884 22.2199 6.16315C22.0342 5.97747 21.8869 5.75703 21.7864 5.51442C21.686 5.27181 21.6342 5.01178 21.6342 4.74918ZM15.4026 9.40355C15.4014 9.28172 15.4244 9.16086 15.4703 9.04797C15.5161 8.93508 15.5839 8.83239 15.6696 8.74584C15.7554 8.65929 15.8574 8.59058 15.9699 8.54369C16.0823 8.49681 16.203 8.47267 16.3248 8.47268H23.5649V11.5066H16.3248C16.0802 11.5066 15.8456 11.4095 15.6727 11.2365C15.4997 11.0636 15.4026 10.829 15.4026 10.5844V9.40355Z" fill="#CE2127"/>
</svg>
