<svg width="100" height="16" viewBox="0 0 100 16" fill="none" xmlns="http://www.w3.org/2000/svg">
<path d="M6.95927 1.37458C7.25862 0.453267 8.56203 0.453265 8.86138 1.37458L10.0432 5.01186C10.1771 5.42389 10.561 5.70285 10.9943 5.70285H14.8187C15.7875 5.70285 16.1902 6.94246 15.4065 7.51186L12.3125 9.75983C11.962 10.0145 11.8153 10.4658 11.9492 10.8779L13.131 14.5152C13.4304 15.4365 12.3759 16.2026 11.5922 15.6332L8.49811 13.3852C8.14762 13.1306 7.67303 13.1306 7.32254 13.3852L4.22848 15.6332C3.44477 16.2026 2.39029 15.4365 2.68964 14.5152L3.87146 10.8779C4.00534 10.4658 3.85868 10.0145 3.50819 9.75983L0.414132 7.51186C-0.369582 6.94246 0.0331929 5.70285 1.00192 5.70285H4.82639C5.25961 5.70285 5.64357 5.42389 5.77744 5.01186L6.95927 1.37458Z" fill="#CE2127"/>
<path d="M27.7801 1.37458C28.0794 0.453267 29.3828 0.453265 29.6822 1.37458L30.864 5.01186C30.9979 5.42389 31.3818 5.70285 31.8151 5.70285H35.6395C36.6083 5.70285 37.011 6.94246 36.2273 7.51186L33.1333 9.75983C32.7828 10.0145 32.6361 10.4658 32.77 10.8779L33.9518 14.5152C34.2512 15.4365 33.1967 16.2026 32.413 15.6332L29.3189 13.3852C28.9684 13.1306 28.4938 13.1306 28.1433 13.3852L25.0493 15.6332C24.2656 16.2026 23.2111 15.4365 23.5104 14.5152L24.6923 10.8779C24.8261 10.4658 24.6795 10.0145 24.329 9.75983L21.2349 7.51186C20.4512 6.94246 20.854 5.70285 21.8227 5.70285H25.6472C26.0804 5.70285 26.4644 5.42389 26.5982 5.01186L27.7801 1.37458Z" fill="#CE2127"/>
<path d="M48.6004 1.37458C48.8997 0.453267 50.2031 0.453265 50.5025 1.37458L51.6843 5.01186C51.8182 5.42389 52.2022 5.70285 52.6354 5.70285H56.4598C57.4286 5.70285 57.8313 6.94246 57.0476 7.51186L53.9536 9.75983C53.6031 10.0145 53.4564 10.4658 53.5903 10.8779L54.7721 14.5152C55.0715 15.4365 54.017 16.2026 53.2333 15.6332L50.1392 13.3852C49.7887 13.1306 49.3141 13.1306 48.9637 13.3852L45.8696 15.6332C45.0859 16.2026 44.0314 15.4365 44.3308 14.5152L45.5126 10.8779C45.6465 10.4658 45.4998 10.0145 45.1493 9.75983L42.0552 7.51186C41.2715 6.94246 41.6743 5.70285 42.643 5.70285H46.4675C46.9007 5.70285 47.2847 5.42389 47.4186 5.01186L48.6004 1.37458Z" fill="#CE2127"/>
<path d="M69.4212 1.37458C69.7205 0.453267 71.0239 0.453265 71.3233 1.37458L72.5051 5.01186C72.639 5.42389 73.023 5.70285 73.4562 5.70285H77.2806C78.2494 5.70285 78.6521 6.94246 77.8684 7.51186L74.7744 9.75983C74.4239 10.0145 74.2772 10.4658 74.4111 10.8779L75.5929 14.5152C75.8923 15.4365 74.8378 16.2026 74.0541 15.6332L70.96 13.3852C70.6095 13.1306 70.1349 13.1306 69.7845 13.3852L66.6904 15.6332C65.9067 16.2026 64.8522 15.4365 65.1516 14.5152L66.3334 10.8779C66.4673 10.4658 66.3206 10.0145 65.9701 9.75983L62.876 7.51186C62.0923 6.94246 62.4951 5.70285 63.4638 5.70285H67.2883C67.7215 5.70285 68.1055 5.42389 68.2394 5.01186L69.4212 1.37458Z" fill="#C4C4C4"/>
<path d="M90.242 1.37458C90.5413 0.453267 91.8447 0.453265 92.1441 1.37458L93.3259 5.01186C93.4598 5.42389 93.8438 5.70285 94.277 5.70285H98.1014C99.0702 5.70285 99.4729 6.94246 98.6892 7.51186L95.5952 9.75983C95.2447 10.0145 95.098 10.4658 95.2319 10.8779L96.4137 14.5152C96.7131 15.4365 95.6586 16.2026 94.8749 15.6332L91.7808 13.3852C91.4303 13.1306 90.9557 13.1306 90.6053 13.3852L87.5112 15.6332C86.7275 16.2026 85.673 15.4365 85.9724 14.5152L87.1542 10.8779C87.2881 10.4658 87.1414 10.0145 86.7909 9.75983L83.6968 7.51186C82.9131 6.94246 83.3159 5.70285 84.2846 5.70285H88.1091C88.5423 5.70285 88.9263 5.42389 89.0602 5.01186L90.242 1.37458Z" fill="#C4C4C4"/>
</svg>
