<svg width="100" height="17" viewBox="0 0 100 17" fill="none" xmlns="http://www.w3.org/2000/svg">
<path d="M6.95927 1.61847C7.25862 0.697164 8.56203 0.697161 8.86138 1.61847L10.0432 5.25576C10.1771 5.66778 10.561 5.94674 10.9943 5.94674H14.8187C15.7875 5.94674 16.1902 7.18636 15.4065 7.75576L12.3125 10.0037C11.962 10.2584 11.8153 10.7097 11.9492 11.1218L13.131 14.759C13.4304 15.6804 12.3759 16.4465 11.5922 15.8771L8.49811 13.6291C8.14762 13.3745 7.67303 13.3745 7.32254 13.6291L4.22848 15.8771C3.44477 16.4465 2.39029 15.6804 2.68964 14.7591L3.87146 11.1218C4.00534 10.7097 3.85868 10.2584 3.50819 10.0037L0.414132 7.75576C-0.369582 7.18636 0.0331929 5.94674 1.00192 5.94674H4.82639C5.25961 5.94674 5.64357 5.66778 5.77744 5.25576L6.95927 1.61847Z" fill="#CE2127"/>
<path d="M27.7801 1.61847C28.0794 0.697164 29.3828 0.697161 29.6822 1.61847L30.864 5.25576C30.9979 5.66778 31.3818 5.94674 31.8151 5.94674H35.6395C36.6083 5.94674 37.011 7.18636 36.2273 7.75576L33.1333 10.0037C32.7828 10.2584 32.6361 10.7097 32.77 11.1218L33.9518 14.759C34.2512 15.6804 33.1967 16.4465 32.413 15.8771L29.3189 13.6291C28.9684 13.3745 28.4938 13.3745 28.1433 13.6291L25.0493 15.8771C24.2656 16.4465 23.2111 15.6804 23.5104 14.7591L24.6923 11.1218C24.8261 10.7097 24.6795 10.2584 24.329 10.0037L21.2349 7.75576C20.4512 7.18636 20.854 5.94674 21.8227 5.94674H25.6472C26.0804 5.94674 26.4644 5.66778 26.5982 5.25576L27.7801 1.61847Z" fill="#CE2127"/>
<path d="M48.6004 1.61847C48.8997 0.697164 50.2031 0.697161 50.5025 1.61847L51.6843 5.25576C51.8182 5.66778 52.2022 5.94674 52.6354 5.94674H56.4598C57.4286 5.94674 57.8313 7.18636 57.0476 7.75576L53.9536 10.0037C53.6031 10.2584 53.4564 10.7097 53.5903 11.1218L54.7721 14.759C55.0715 15.6804 54.017 16.4465 53.2333 15.8771L50.1392 13.6291C49.7887 13.3745 49.3141 13.3745 48.9637 13.6291L45.8696 15.8771C45.0859 16.4465 44.0314 15.6804 44.3308 14.7591L45.5126 11.1218C45.6465 10.7097 45.4998 10.2584 45.1493 10.0037L42.0552 7.75576C41.2715 7.18636 41.6743 5.94674 42.643 5.94674H46.4675C46.9007 5.94674 47.2847 5.66778 47.4186 5.25576L48.6004 1.61847Z" fill="#CE2127"/>
<path d="M69.4212 1.61847C69.7205 0.697164 71.0239 0.697161 71.3233 1.61847L72.5051 5.25576C72.639 5.66778 73.023 5.94674 73.4562 5.94674H77.2806C78.2494 5.94674 78.6521 7.18636 77.8684 7.75576L74.7744 10.0037C74.4239 10.2584 74.2772 10.7097 74.4111 11.1218L75.5929 14.759C75.8923 15.6804 74.8378 16.4465 74.0541 15.8771L70.96 13.6291C70.6095 13.3745 70.1349 13.3745 69.7845 13.6291L66.6904 15.8771C65.9067 16.4465 64.8522 15.6804 65.1516 14.7591L66.3334 11.1218C66.4673 10.7097 66.3206 10.2584 65.9701 10.0037L62.876 7.75576C62.0923 7.18636 62.4951 5.94674 63.4638 5.94674H67.2883C67.7215 5.94674 68.1055 5.66778 68.2394 5.25576L69.4212 1.61847Z" fill="#CE2127"/>
<path d="M90.242 1.61847C90.5413 0.697164 91.8447 0.697161 92.1441 1.61847L93.3259 5.25576C93.4598 5.66778 93.8438 5.94674 94.277 5.94674H98.1014C99.0702 5.94674 99.4729 7.18636 98.6892 7.75576L95.5952 10.0037C95.2447 10.2584 95.098 10.7097 95.2319 11.1218L96.4137 14.759C96.7131 15.6804 95.6586 16.4465 94.8749 15.8771L91.7808 13.6291C91.4303 13.3745 90.9557 13.3745 90.6053 13.6291L87.5112 15.8771C86.7275 16.4465 85.673 15.6804 85.9724 14.7591L87.1542 11.1218C87.2881 10.7097 87.1414 10.2584 86.7909 10.0037L83.6968 7.75576C82.9131 7.18636 83.3159 5.94674 84.2846 5.94674H88.1091C88.5423 5.94674 88.9263 5.66778 89.0602 5.25576L90.242 1.61847Z" fill="#C4C4C4"/>
</svg>
