<svg width="100" height="16" viewBox="0 0 100 16" fill="none" xmlns="http://www.w3.org/2000/svg">
<path d="M6.95927 0.874578C7.25862 -0.0467328 8.56203 -0.046735 8.86138 0.874576L10.0432 4.51186C10.1771 4.92389 10.561 5.20285 10.9943 5.20285H14.8187C15.7875 5.20285 16.1902 6.44246 15.4065 7.01186L12.3125 9.25983C11.962 9.51448 11.8153 9.96584 11.9492 10.3779L13.131 14.0152C13.4304 14.9365 12.3759 15.7026 11.5922 15.1332L8.49811 12.8852C8.14762 12.6306 7.67303 12.6306 7.32254 12.8852L4.22848 15.1332C3.44477 15.7026 2.39029 14.9365 2.68964 14.0152L3.87146 10.3779C4.00534 9.96584 3.85868 9.51448 3.50819 9.25983L0.414132 7.01186C-0.369582 6.44246 0.0331929 5.20285 1.00192 5.20285H4.82639C5.25961 5.20285 5.64357 4.92389 5.77744 4.51186L6.95927 0.874578Z" fill="#CE2127"/>
<path d="M27.7801 0.874578C28.0794 -0.0467328 29.3828 -0.046735 29.6822 0.874576L30.864 4.51186C30.9979 4.92389 31.3818 5.20285 31.8151 5.20285H35.6395C36.6083 5.20285 37.011 6.44246 36.2273 7.01186L33.1333 9.25983C32.7828 9.51448 32.6361 9.96584 32.77 10.3779L33.9518 14.0152C34.2512 14.9365 33.1967 15.7026 32.413 15.1332L29.3189 12.8852C28.9684 12.6306 28.4938 12.6306 28.1433 12.8852L25.0493 15.1332C24.2656 15.7026 23.2111 14.9365 23.5104 14.0152L24.6923 10.3779C24.8261 9.96584 24.6795 9.51448 24.329 9.25983L21.2349 7.01186C20.4512 6.44246 20.854 5.20285 21.8227 5.20285H25.6472C26.0804 5.20285 26.4644 4.92389 26.5982 4.51186L27.7801 0.874578Z" fill="#CE2127"/>
<path d="M48.6004 0.874578C48.8997 -0.0467328 50.2031 -0.046735 50.5025 0.874576L51.6843 4.51186C51.8182 4.92389 52.2022 5.20285 52.6354 5.20285H56.4598C57.4286 5.20285 57.8313 6.44246 57.0476 7.01186L53.9536 9.25983C53.6031 9.51448 53.4564 9.96584 53.5903 10.3779L54.7721 14.0152C55.0715 14.9365 54.017 15.7026 53.2333 15.1332L50.1392 12.8852C49.7887 12.6306 49.3141 12.6306 48.9637 12.8852L45.8696 15.1332C45.0859 15.7026 44.0314 14.9365 44.3308 14.0152L45.5126 10.3779C45.6465 9.96584 45.4998 9.51448 45.1493 9.25983L42.0552 7.01186C41.2715 6.44246 41.6743 5.20285 42.643 5.20285H46.4675C46.9007 5.20285 47.2847 4.92389 47.4186 4.51186L48.6004 0.874578Z" fill="#CE2127"/>
<path d="M69.4212 0.874578C69.7205 -0.0467328 71.0239 -0.046735 71.3233 0.874576L72.5051 4.51186C72.639 4.92389 73.023 5.20285 73.4562 5.20285H77.2806C78.2494 5.20285 78.6521 6.44246 77.8684 7.01186L74.7744 9.25983C74.4239 9.51448 74.2772 9.96584 74.4111 10.3779L75.5929 14.0152C75.8923 14.9365 74.8378 15.7026 74.0541 15.1332L70.96 12.8852C70.6095 12.6306 70.1349 12.6306 69.7845 12.8852L66.6904 15.1332C65.9067 15.7026 64.8522 14.9365 65.1516 14.0152L66.3334 10.3779C66.4673 9.96584 66.3206 9.51448 65.9701 9.25983L62.876 7.01186C62.0923 6.44246 62.4951 5.20285 63.4638 5.20285H67.2883C67.7215 5.20285 68.1055 4.92389 68.2394 4.51186L69.4212 0.874578Z" fill="#CE2127"/>
<path d="M90.242 0.874578C90.5413 -0.0467328 91.8447 -0.046735 92.1441 0.874576L93.3259 4.51186C93.4598 4.92389 93.8438 5.20285 94.277 5.20285H98.1014C99.0702 5.20285 99.4729 6.44246 98.6892 7.01186L95.5952 9.25983C95.2447 9.51448 95.098 9.96584 95.2319 10.3779L96.4137 14.0152C96.7131 14.9365 95.6586 15.7026 94.8749 15.1332L91.7808 12.8852C91.4303 12.6306 90.9557 12.6306 90.6053 12.8852L87.5112 15.1332C86.7275 15.7026 85.673 14.9365 85.9724 14.0152L87.1542 10.3779C87.2881 9.96584 87.1414 9.51448 86.7909 9.25983L83.6968 7.01186C82.9131 6.44246 83.3159 5.20285 84.2846 5.20285H88.1091C88.5423 5.20285 88.9263 4.92389 89.0602 4.51186L90.242 0.874578Z" fill="#C4C4C4"/>
</svg>
