<svg width="80" height="80" viewBox="0 0 80 80" fill="none" xmlns="http://www.w3.org/2000/svg">
<rect width="80" height="80" rx="40" fill="#CE2127"/>
<path d="M40.2426 58.028C47.2986 58.028 52.0506 53.804 52.0506 47.804C52.0506 43.964 49.8426 41.276 47.2986 40.076C49.2666 38.732 51.0906 36.044 51.0906 32.732C51.0906 27.356 47.0586 22.844 40.0506 22.844C34.0506 22.844 28.1946 27.02 28.1946 34.124H34.8186C34.7706 31.292 36.9786 29.324 40.0506 29.324C42.5466 29.324 44.5146 30.908 44.4666 33.26C44.4186 35.708 42.7866 37.34 39.5706 37.34H36.9786V42.716H39.8586C43.2666 42.716 45.4266 44.396 45.4266 47.276C45.3786 49.916 43.2666 51.548 40.2426 51.548C36.8346 51.548 34.4346 49.772 34.0986 46.46H27.5706C27.8106 53.948 33.7626 58.028 40.2426 58.028Z" fill="white"/>
</svg>
