<svg width="80" height="80" viewBox="0 0 80 80" fill="none" xmlns="http://www.w3.org/2000/svg">
<rect width="80" height="80" rx="40" fill="#CE2127"/>
<path d="M39.8976 58.028C47.0016 58.028 51.8016 53.612 51.8016 46.796C51.8016 39.884 47.6736 35.036 41.1936 35.036C39.2736 35.036 37.6416 35.468 36.4896 36.188L37.7856 29.804H49.3056V23.42H32.6976L28.8576 42.764L34.6656 44.54C35.4336 42.476 37.3056 40.988 39.9936 40.988C43.0656 40.988 45.2256 43.244 45.2256 46.268C45.2256 49.196 43.3056 51.548 39.8976 51.548C37.2576 51.548 35.1456 49.868 34.5696 47.612H27.7536C27.9936 53.708 33.6576 58.028 39.8976 58.028Z" fill="white"/>
</svg>
