<svg width="61" height="60" viewBox="0 0 61 60" fill="none" xmlns="http://www.w3.org/2000/svg">
<path d="M30.7204 11.8938C29.8496 11.8926 29.0149 11.5461 28.3993 10.9303C27.7837 10.3144 27.4374 9.4796 27.4365 8.60885V3.28385C27.4365 2.41292 27.7825 1.57766 28.3983 0.961817C29.0142 0.345976 29.8494 0 30.7204 0C31.5913 0 32.4266 0.345976 33.0424 0.961817C33.6582 1.57766 34.0042 2.41292 34.0042 3.28385V8.60885C34.0033 9.4796 33.6571 10.3144 33.0415 10.9303C32.4258 11.5461 31.5911 11.8926 30.7204 11.8938ZM30.7204 2.30769C30.4615 2.30769 30.2132 2.41054 30.0301 2.5936C29.8471 2.77667 29.7442 3.02495 29.7442 3.28385V8.60885C29.7442 8.73704 29.7695 8.86397 29.8185 8.9824C29.8676 9.10084 29.9395 9.20845 30.0301 9.29909C30.1208 9.38974 30.2284 9.46164 30.3468 9.5107C30.4652 9.55975 30.5922 9.585 30.7204 9.585C30.8486 9.585 30.9755 9.55975 31.0939 9.5107C31.2124 9.46164 31.32 9.38974 31.4106 9.29909C31.5013 9.20845 31.5732 9.10084 31.6222 8.9824C31.6713 8.86397 31.6965 8.73704 31.6965 8.60885V3.28385C31.6965 3.02495 31.5937 2.77667 31.4106 2.5936C31.2276 2.41054 30.9793 2.30769 30.7204 2.30769Z" fill="white"/>
<path d="M9.33022 33.2835H4.00406C3.13313 33.2835 2.29787 32.9375 1.68203 32.3217C1.06619 31.7059 0.720215 30.8706 0.720215 29.9997C0.720215 29.1287 1.06619 28.2935 1.68203 27.6776C2.29787 27.0618 3.13313 26.7158 4.00406 26.7158H9.33022C10.2011 26.7158 11.0364 27.0618 11.6522 27.6776C12.2681 28.2935 12.6141 29.1287 12.6141 29.9997C12.6141 30.8706 12.2681 31.7059 11.6522 32.3217C11.0364 32.9375 10.2011 33.2835 9.33022 33.2835ZM4.00406 29.0235C3.87587 29.0235 3.74894 29.0488 3.6305 29.0978C3.51207 29.1469 3.40446 29.2188 3.31382 29.3094C3.22317 29.4001 3.15127 29.5077 3.10221 29.6261C3.05316 29.7445 3.02791 29.8715 3.02791 29.9997C3.02791 30.1279 3.05316 30.2548 3.10221 30.3732C3.15127 30.4917 3.22317 30.5993 3.31382 30.6899C3.40446 30.7806 3.51207 30.8525 3.6305 30.9015C3.74894 30.9506 3.87587 30.9758 4.00406 30.9758H9.33022C9.58911 30.9758 9.8374 30.873 10.0205 30.6899C10.2035 30.5068 10.3064 30.2586 10.3064 29.9997C10.3064 29.7408 10.2035 29.4925 10.0205 29.3094C9.8374 29.1264 9.58911 29.0235 9.33022 29.0235H4.00406Z" fill="white"/>
<path d="M30.7204 60.0001C29.8498 59.9989 29.0153 59.6525 28.3997 59.037C27.7841 58.4214 27.4377 57.5868 27.4365 56.7163V51.3913C27.4365 50.5203 27.7825 49.6851 28.3983 49.0692C29.0142 48.4534 29.8494 48.1074 30.7204 48.1074C31.5913 48.1074 32.4266 48.4534 33.0424 49.0692C33.6582 49.6851 34.0042 50.5203 34.0042 51.3913V56.7163C34.003 57.5868 33.6566 58.4214 33.0411 59.037C32.4255 59.6525 31.5909 59.9989 30.7204 60.0001ZM30.7204 50.414C30.4614 50.4143 30.2131 50.5174 30.0301 50.7006C29.847 50.8839 29.7442 51.1323 29.7442 51.3913V56.7163C29.7442 56.8445 29.7695 56.9714 29.8185 57.0898C29.8676 57.2083 29.9395 57.3159 30.0301 57.4065C30.1208 57.4972 30.2284 57.5691 30.3468 57.6181C30.4652 57.6672 30.5922 57.6924 30.7204 57.6924C30.8486 57.6924 30.9755 57.6672 31.0939 57.6181C31.2124 57.5691 31.32 57.4972 31.4106 57.4065C31.5013 57.3159 31.5732 57.2083 31.6222 57.0898C31.6713 56.9714 31.6965 56.8445 31.6965 56.7163V51.3913C31.6965 51.1323 31.5937 50.8839 31.4107 50.7006C31.2277 50.5174 30.9794 50.4143 30.7204 50.414Z" fill="white"/>
<path d="M57.4362 33.2835H52.11C51.2391 33.2835 50.4038 32.9375 49.788 32.3217C49.1721 31.7059 48.8262 30.8706 48.8262 29.9997C48.8262 29.1287 49.1721 28.2935 49.788 27.6776C50.4038 27.0618 51.2391 26.7158 52.11 26.7158H57.4362C58.3071 26.7158 59.1424 27.0618 59.7582 27.6776C60.374 28.2935 60.72 29.1287 60.72 29.9997C60.72 30.8706 60.374 31.7059 59.7582 32.3217C59.1424 32.9375 58.3071 33.2835 57.4362 33.2835ZM52.11 29.0235C51.8511 29.0235 51.6028 29.1264 51.4198 29.3094C51.2367 29.4925 51.1339 29.7408 51.1339 29.9997C51.1339 30.2586 51.2367 30.5068 51.4198 30.6899C51.6028 30.873 51.8511 30.9758 52.11 30.9758H57.4362C57.6951 30.9758 57.9434 30.873 58.1264 30.6899C58.3095 30.5068 58.4123 30.2586 58.4123 29.9997C58.4123 29.7408 58.3095 29.4925 58.1264 29.3094C57.9434 29.1264 57.6951 29.0235 57.4362 29.0235H52.11Z" fill="white"/>
<path d="M32.6355 52.1537C32.3295 52.1673 32.0306 52.0588 31.8046 51.8521C31.5786 51.6453 31.444 51.3572 31.4303 51.0512C31.4167 50.7452 31.5252 50.4463 31.732 50.2203C31.9387 49.9943 32.2268 49.8596 32.5328 49.846C37.1763 49.4307 41.5264 47.3977 44.8236 44.1019C48.1209 40.8061 50.1559 36.457 50.5732 31.8137C50.6039 31.5102 50.7523 31.2308 50.9865 31.0354C51.2208 30.84 51.5222 30.7441 51.8263 30.7683C52.1309 30.7959 52.4121 30.9432 52.6081 31.1779C52.8041 31.4127 52.8989 31.7156 52.8717 32.0202C52.4078 37.2034 50.1379 42.0589 46.4584 45.7389C42.7789 49.4188 37.9237 51.6892 32.7405 52.1537C32.7059 52.1537 32.6701 52.1537 32.6355 52.1537Z" fill="white"/>
<path d="M33.0115 56.7754C32.7055 56.789 32.4066 56.6805 32.1806 56.4737C31.9546 56.267 31.8199 55.9789 31.8063 55.6729C31.7927 55.3669 31.9012 55.068 32.108 54.842C32.3147 54.6159 32.6028 54.4813 32.9088 54.4677C38.6439 53.9532 44.0164 51.4413 48.0886 47.3703C52.1609 43.2993 54.6745 37.9277 55.1907 32.1927C55.2212 31.8891 55.3695 31.6095 55.6038 31.4141C55.8381 31.2186 56.1397 31.1228 56.4438 31.1473C56.5947 31.1609 56.7415 31.2042 56.8757 31.2745C57.0099 31.3449 57.129 31.441 57.2261 31.5573C57.3231 31.6737 57.3963 31.808 57.4415 31.9527C57.4866 32.0973 57.5028 32.2495 57.4892 32.4004C56.9251 38.6741 54.176 44.5506 49.7216 49.0043C45.2672 53.4581 39.3903 56.2064 33.1165 56.7696C33.0819 56.7696 33.0473 56.7754 33.0115 56.7754Z" fill="white"/>
<path d="M51.7203 29.2363C51.4324 29.236 51.1551 29.1282 50.9427 28.9339C50.7302 28.7396 50.5981 28.473 50.5722 28.1863C50.1562 23.5419 48.1221 19.1912 44.825 15.8939C41.5279 12.5966 37.1773 10.5622 32.533 10.1459C32.3821 10.1323 32.2353 10.0891 32.1011 10.0187C31.9669 9.94834 31.8478 9.85224 31.7508 9.73589C31.6537 9.61953 31.5805 9.48519 31.5353 9.34054C31.4902 9.19589 31.474 9.04376 31.4876 8.89284C31.5012 8.74192 31.5445 8.59517 31.6148 8.46095C31.6852 8.32674 31.7813 8.2077 31.8976 8.11063C32.014 8.01356 32.1483 7.94035 32.293 7.8952C32.4376 7.85004 32.5897 7.83382 32.7407 7.84746C37.9239 8.31183 42.7793 10.582 46.4591 14.2617C50.139 17.9413 52.4095 22.7966 52.8741 27.9798C52.9014 28.2844 52.8066 28.5873 52.6105 28.8221C52.4145 29.0568 52.1333 29.2042 51.8287 29.2317C51.7918 29.2352 51.7561 29.2363 51.7203 29.2363Z" fill="white"/>
<path d="M56.3355 28.8605C56.0466 28.8617 55.7678 28.7544 55.5542 28.56C55.3406 28.3656 55.2076 28.0982 55.1816 27.8105C54.6684 22.076 52.1576 16.7038 48.0875 12.6316C44.0175 8.55947 38.6466 6.04592 32.9124 5.52971C32.6076 5.50217 32.3262 5.35467 32.1302 5.11968C31.9341 4.88468 31.8394 4.58143 31.867 4.27663C31.8945 3.97184 32.042 3.69047 32.277 3.49442C32.512 3.29837 32.8153 3.20371 33.1201 3.23125C39.3936 3.79533 45.2699 6.54428 49.7237 10.9984C54.1774 15.4526 56.9258 21.3292 57.4893 27.6028C57.5029 27.7537 57.4867 27.9058 57.4416 28.0505C57.3964 28.1951 57.3232 28.3295 57.2261 28.4459C57.1291 28.5622 57.01 28.6583 56.8758 28.7287C56.7416 28.799 56.5948 28.8422 56.4439 28.8559C56.4093 28.8593 56.3735 28.8605 56.3355 28.8605Z" fill="white"/>
<path d="M9.7204 29.2365C9.68579 29.2365 9.65002 29.2365 9.6154 29.2365C9.31082 29.209 9.02962 29.0616 8.83361 28.8269C8.63759 28.5921 8.54278 28.2892 8.57002 27.9846C9.03302 22.801 11.3022 17.9448 14.9813 14.264C18.6604 10.5833 23.5155 8.31186 28.6989 7.84648C29.0037 7.81894 29.3069 7.91361 29.5419 8.10965C29.7769 8.3057 29.9244 8.58707 29.9519 8.89187C29.9795 9.19666 29.8848 9.49991 29.6888 9.73491C29.4927 9.96991 29.2114 10.1174 28.9066 10.1449C24.2618 10.561 19.9109 12.5955 16.6135 15.8931C13.3161 19.1906 11.2819 23.5417 10.8662 28.1865C10.8403 28.4728 10.7085 28.7391 10.4966 28.9333C10.2846 29.1275 10.0079 29.2356 9.7204 29.2365Z" fill="white"/>
<path d="M5.10473 28.8604C5.07011 28.8604 5.03434 28.8604 4.99973 28.8604C4.84808 28.8472 4.70053 28.8041 4.5656 28.7337C4.43066 28.6632 4.311 28.5667 4.2135 28.4498C4.11601 28.3329 4.04261 28.1979 3.99754 28.0525C3.95247 27.9071 3.93661 27.7542 3.95088 27.6027C4.51445 21.3287 7.26318 15.4518 11.7174 10.9976C16.1716 6.54341 22.0485 3.79468 28.3224 3.23112C28.6266 3.20726 28.9281 3.30341 29.1623 3.499C29.3964 3.69459 29.5448 3.97408 29.5755 4.27766C29.5891 4.42858 29.5729 4.58071 29.5278 4.72536C29.4826 4.87001 29.4094 5.00436 29.3123 5.12072C29.2153 5.23708 29.0962 5.33318 28.962 5.40353C28.8278 5.47388 28.681 5.5171 28.5301 5.53073C22.7943 6.04426 17.4212 8.55618 13.3489 12.6279C9.27652 16.6996 6.76376 22.0724 6.24934 27.808C6.22404 28.0946 6.09264 28.3613 5.8809 28.5559C5.66916 28.7506 5.39235 28.8592 5.10473 28.8604Z" fill="white"/>
<path d="M28.8039 52.1537C28.7693 52.1537 28.7335 52.1537 28.6989 52.1537C23.5157 51.6893 18.6603 49.4189 14.9806 45.739C11.3009 42.0591 9.03075 37.2035 8.5666 32.0202C8.53936 31.7156 8.63417 31.4127 8.83019 31.1779C9.02621 30.9432 9.3074 30.7959 9.61198 30.7683C9.91606 30.7441 10.2175 30.84 10.4517 31.0354C10.686 31.2308 10.8343 31.5102 10.8651 31.8137C11.2811 36.4584 13.3156 40.8094 16.6132 44.1068C19.9107 47.4041 24.2618 49.4383 28.9066 49.8541C29.2126 49.8677 29.5007 50.0023 29.7075 50.2284C29.9142 50.4544 30.0227 50.7533 30.0091 51.0593C29.9955 51.3653 29.8609 51.6534 29.6348 51.8601C29.4088 52.0669 29.1099 52.1754 28.8039 52.1618V52.1537Z" fill="white"/>
<path d="M28.4264 56.7689C28.3914 56.7707 28.3563 56.7707 28.3214 56.7689C22.0476 56.2051 16.171 53.4562 11.717 49.0021C7.26307 44.5479 4.5145 38.6711 3.95098 32.3974C3.93733 32.2465 3.95355 32.0943 3.9987 31.9497C4.04385 31.805 4.11705 31.6707 4.21413 31.5543C4.3112 31.438 4.43025 31.3419 4.56446 31.2715C4.69868 31.2011 4.84544 31.1579 4.99636 31.1443C5.30044 31.1201 5.60189 31.216 5.83612 31.4114C6.07035 31.6068 6.21872 31.8862 6.24944 32.1897C6.76432 37.9251 9.27683 43.2977 13.3485 47.3698C17.4202 51.4419 22.7925 53.955 28.5279 54.4705C28.8339 54.4841 29.122 54.6187 29.3288 54.8447C29.5355 55.0707 29.644 55.3696 29.6304 55.6756C29.6168 55.9817 29.4822 56.2697 29.2561 56.4765C29.0301 56.6833 28.7312 56.7918 28.4252 56.7781L28.4264 56.7689Z" fill="white"/>
<path d="M30.7201 31.6815C29.6574 31.6815 28.6185 31.3663 27.7348 30.7759C26.8511 30.1855 26.1624 29.3462 25.7557 28.3644C25.349 27.3825 25.2426 26.3021 25.4499 25.2597C25.6573 24.2174 26.169 23.2599 26.9205 22.5084C27.672 21.7569 28.6295 21.2452 29.6718 21.0378C30.7142 20.8305 31.7946 20.9369 32.7765 21.3436C33.7584 21.7503 34.5976 22.439 35.188 23.3227C35.7785 24.2064 36.0936 25.2453 36.0936 26.308C36.0921 27.7327 35.5255 29.0986 34.5181 30.106C33.5107 31.1133 32.1448 31.68 30.7201 31.6815ZM30.7201 23.2423C30.1138 23.2423 29.5211 23.4221 29.0169 23.7589C28.5127 24.0958 28.1198 24.5746 27.8877 25.1348C27.6557 25.695 27.595 26.3114 27.7133 26.9061C27.8316 27.5008 28.1236 28.0471 28.5523 28.4759C28.9811 28.9046 29.5273 29.1966 30.122 29.3149C30.7167 29.4332 31.3332 29.3725 31.8934 29.1404C32.4536 28.9084 32.9324 28.5154 33.2692 28.0113C33.6061 27.5071 33.7859 26.9144 33.7859 26.308C33.785 25.4952 33.4617 24.716 32.887 24.1412C32.3122 23.5665 31.533 23.2432 30.7201 23.2423Z" fill="white"/>
<path d="M30.7204 44.3415C27.6655 44.3481 24.66 43.5706 21.9915 42.0835C21.7247 41.9343 21.528 41.6853 21.4446 41.3912C21.2268 40.6021 21.12 39.7866 21.1273 38.9681C21.1273 36.4238 22.138 33.9838 23.9371 32.1847C25.7361 30.3857 28.1761 29.375 30.7204 29.375C33.2646 29.375 35.7047 30.3857 37.5037 32.1847C39.3028 33.9838 40.3135 36.4238 40.3135 38.9681C40.3208 39.7866 40.214 40.6021 39.9962 41.3912C39.9128 41.6853 39.716 41.9343 39.4492 42.0835C36.7807 43.5706 33.7753 44.3481 30.7204 44.3415ZM23.5573 40.3031C25.7804 41.4184 28.2332 41.9992 30.7204 41.9992C33.2076 41.9992 35.6604 41.4184 37.8835 40.3031C37.9675 39.8612 38.0084 39.4121 38.0058 38.9623C38.0058 37.0301 37.2382 35.177 35.8719 33.8108C34.5057 32.4445 32.6526 31.6769 30.7204 31.6769C28.7882 31.6769 26.9351 32.4445 25.5688 33.8108C24.2026 35.177 23.435 37.0301 23.435 38.9623C23.4321 39.4137 23.473 39.8643 23.5573 40.3077V40.3031Z" fill="white"/>
<path d="M24.1271 29.0438C23.1071 29.0449 22.1079 28.7556 21.2462 28.2098C20.3845 27.664 19.696 26.8842 19.261 25.9616C18.8261 25.039 18.6628 24.0116 18.7901 22.9996C18.9174 21.9876 19.3301 21.0327 19.98 20.2466C20.6299 19.4604 21.4902 18.8755 22.4602 18.5601C23.4302 18.2448 24.4699 18.212 25.4579 18.4657C26.4458 18.7194 27.3412 19.249 28.0393 19.9927C28.7374 20.7363 29.2094 21.6633 29.4002 22.6653C29.4343 22.8165 29.4377 22.973 29.41 23.1255C29.3824 23.278 29.3243 23.4234 29.2393 23.5529C29.1542 23.6825 29.0439 23.7936 28.915 23.8796C28.7861 23.9656 28.6412 24.0247 28.4889 24.0535C28.3366 24.0823 28.1801 24.0801 28.0286 24.047C27.8772 24.014 27.734 23.9508 27.6076 23.8611C27.4811 23.7715 27.374 23.6574 27.2927 23.5255C27.2113 23.3936 27.1573 23.2466 27.134 23.0934C27.0101 22.4409 26.678 21.8461 26.1875 21.3984C25.697 20.9506 25.0745 20.6739 24.4134 20.6099C23.7523 20.5459 23.0883 20.698 22.521 21.0433C21.9536 21.3887 21.5136 21.9087 21.2668 22.5253C21.0201 23.142 20.98 23.822 21.1524 24.4634C21.3249 25.1048 21.7007 25.6729 22.2235 26.0826C22.7462 26.4923 23.3877 26.7215 24.0518 26.7357C24.7158 26.7499 25.3665 26.5484 25.9063 26.1615C26.1553 25.9831 26.4649 25.9109 26.7671 25.9607C27.0692 26.0106 27.3392 26.1785 27.5177 26.4274C27.6961 26.6764 27.7683 26.986 27.7184 27.2882C27.6685 27.5904 27.5006 27.8604 27.2517 28.0388C26.3419 28.6943 25.2484 29.046 24.1271 29.0438Z" fill="white"/>
<path d="M30.2715 31.7076C30.0936 31.7132 29.9168 31.6785 29.7541 31.6062C29.5915 31.534 29.4473 31.4259 29.3322 31.2901C29.2171 31.1544 29.1342 30.9944 29.0896 30.8221C29.0449 30.6498 29.0397 30.4697 29.0744 30.2951C29.1091 30.1206 29.1827 29.9561 29.2898 29.8139C29.3968 29.6718 29.5346 29.5556 29.6928 29.4741C29.851 29.3926 30.0256 29.3478 30.2035 29.3432C30.3814 29.3385 30.5581 29.3741 30.7203 29.4472C30.9258 29.5524 31.0997 29.7103 31.2241 29.9047C31.3486 30.0991 31.4192 30.3231 31.4288 30.5537C31.4288 30.7055 31.3988 30.8559 31.3406 30.9961C31.2824 31.1363 31.1971 31.2637 31.0896 31.3709C30.9821 31.478 30.8545 31.563 30.7141 31.6207C30.5737 31.6785 30.4233 31.708 30.2715 31.7076Z" fill="white"/>
<path d="M22.4126 41.5973C22.378 41.5973 22.3422 41.5973 22.3076 41.5973C19.8783 41.3803 17.523 40.6487 15.3983 39.4511C15.1361 39.3035 14.9419 39.0592 14.8572 38.7704C14.6314 37.9785 14.5222 37.158 14.533 36.3346C14.5354 33.791 15.5468 31.3523 17.3453 29.5536C19.1438 27.7549 21.5824 26.7431 24.126 26.7404C25.2796 26.734 26.4241 26.9446 27.4999 27.3611C27.6438 27.4143 27.7757 27.4956 27.8878 27.6003C27.9999 27.705 28.09 27.831 28.1529 27.971C28.2157 28.111 28.25 28.262 28.2537 28.4154C28.2575 28.5688 28.2306 28.7214 28.1746 28.8642C28.1187 29.0071 28.0349 29.1373 27.928 29.2474C27.8211 29.3575 27.6933 29.4451 27.5522 29.5052C27.411 29.5653 27.2593 29.5966 27.1059 29.5974C26.9525 29.5982 26.8005 29.5683 26.6587 29.5096C25.849 29.1981 24.9879 29.0415 24.1203 29.0481C22.1886 29.0505 20.3368 29.819 18.971 31.185C17.6052 32.551 16.837 34.403 16.8349 36.3346C16.8294 36.7831 16.868 37.231 16.9503 37.6719C18.677 38.5737 20.5645 39.1265 22.5049 39.2988C22.8109 39.3125 23.099 39.4471 23.3057 39.6731C23.5125 39.8991 23.621 40.198 23.6074 40.504C23.5938 40.8101 23.4591 41.0981 23.2331 41.3049C23.0071 41.5116 22.7082 41.6201 22.4022 41.6065L22.4126 41.5973Z" fill="white"/>
<path d="M37.3132 29.0437C36.1916 29.0452 35.0981 28.6927 34.1886 28.0364C34.0655 27.9481 33.9609 27.8363 33.881 27.7076C33.8011 27.5789 33.7473 27.4357 33.7227 27.2862C33.673 26.9842 33.7454 26.6749 33.9238 26.4262C34.1022 26.1776 34.372 26.01 34.674 25.9603C34.976 25.9107 35.2853 25.983 35.534 26.1614C36.0515 26.5363 36.6741 26.7382 37.3132 26.7383C37.895 26.7391 38.4651 26.5743 38.9567 26.2632C39.4484 25.952 39.8413 25.5074 40.0897 24.9812C40.338 24.4551 40.4316 23.8691 40.3593 23.2918C40.287 22.7144 40.052 22.1696 39.6816 21.7209C39.3112 21.2722 38.8207 20.9382 38.2676 20.7578C37.7144 20.5774 37.1213 20.5582 36.5576 20.7024C35.9939 20.8466 35.4829 21.1481 35.0843 21.5719C34.6856 21.9957 34.4158 22.5242 34.3063 23.0956C34.2829 23.2488 34.229 23.3958 34.1476 23.5277C34.0662 23.6596 33.9591 23.7738 33.8327 23.8634C33.7062 23.953 33.563 24.0162 33.4116 24.0492C33.2602 24.0823 33.1037 24.0845 32.9514 24.0557C32.7991 24.027 32.6542 23.9678 32.5252 23.8818C32.3963 23.7958 32.286 23.6847 32.201 23.5551C32.1159 23.4256 32.0579 23.2802 32.0302 23.1277C32.0026 22.9752 32.0059 22.8187 32.0401 22.6676C32.2313 21.6663 32.7034 20.7402 33.4013 19.9973C34.0992 19.2543 34.9942 18.7254 35.9815 18.4721C36.9689 18.2189 38.0079 18.2518 38.9772 18.5671C39.9466 18.8824 40.8062 19.4669 41.4557 20.2526C42.1051 21.0382 42.5177 21.9924 42.645 23.0037C42.7724 24.0151 42.6093 25.0418 42.1749 25.9639C41.7405 26.886 41.0527 27.6655 40.1918 28.2112C39.3309 28.757 38.3325 29.0465 37.3132 29.046V29.0437Z" fill="white"/>
<path d="M39.0277 41.5977C38.8761 41.6045 38.7248 41.5813 38.5822 41.5296C38.4396 41.4778 38.3086 41.3985 38.1967 41.2961C37.9707 41.0893 37.8361 40.8013 37.8225 40.4952C37.8088 40.1892 37.9174 39.8903 38.1241 39.6643C38.3309 39.4383 38.6189 39.3037 38.925 39.29C40.8654 39.1178 42.7528 38.5649 44.4796 37.6631C44.5618 37.2222 44.6005 36.7743 44.595 36.3258C44.5928 34.3942 43.8246 32.5422 42.4588 31.1762C41.0931 29.8102 39.2412 29.0417 37.3096 29.0393C36.442 29.0327 35.5809 29.1893 34.7711 29.5008C34.6294 29.5595 34.4774 29.5894 34.3239 29.5886C34.1705 29.5878 34.0188 29.5565 33.8776 29.4964C33.7365 29.4363 33.6087 29.3487 33.5019 29.2386C33.395 29.1286 33.3111 28.9983 33.2552 28.8554C33.1993 28.7126 33.1724 28.56 33.1761 28.4066C33.1799 28.2533 33.2142 28.1022 33.277 27.9622C33.3398 27.8223 33.4299 27.6962 33.542 27.5915C33.6542 27.4868 33.786 27.4055 33.93 27.3524C35.0057 26.9358 36.1502 26.7252 37.3038 26.7316C39.8474 26.7343 42.286 27.7461 44.0845 29.5448C45.883 31.3435 46.8944 33.7822 46.8969 36.3258C46.9077 37.1492 46.7985 37.9697 46.5727 38.7616C46.488 39.0504 46.2938 39.2947 46.0315 39.4424C43.9068 40.6399 41.5515 41.3715 39.1223 41.5885C39.0969 41.5966 39.0611 41.5977 39.0277 41.5977Z" fill="white"/>
<path d="M31.169 31.7079C30.863 31.7079 30.5695 31.5863 30.3531 31.3699C30.1367 31.1535 30.0151 30.86 30.0151 30.554C30.0244 30.3237 30.0945 30.1 30.2183 29.9056C30.3422 29.7112 30.5153 29.5532 30.7201 29.4475C30.8801 29.3833 31.0523 29.3553 31.2244 29.3653C31.3965 29.3753 31.5643 29.4231 31.7158 29.5054C31.8673 29.5876 31.9988 29.7023 32.1009 29.8412C32.203 29.9801 32.2733 30.1398 32.3066 30.309C32.3399 30.4781 32.3355 30.6525 32.2937 30.8198C32.2519 30.987 32.1738 31.143 32.0648 31.2766C31.9559 31.4102 31.8188 31.5181 31.6633 31.5926C31.5079 31.6672 31.3379 31.7065 31.1655 31.7079H31.169Z" fill="white"/>
</svg>
