<svg width="65" height="64" viewBox="0 0 65 64" fill="none" xmlns="http://www.w3.org/2000/svg">
<path d="M36.3311 50.7886L24.3451 55.8526C23.6991 55.2087 23.2158 54.4203 22.9351 53.5526C24.4671 51.8996 32.7261 46.2896 35.7201 44.9256C35.8396 44.8711 35.9473 44.7937 36.0369 44.6976C36.1266 44.6016 36.1964 44.4888 36.2425 44.3658C36.2885 44.2427 36.3099 44.1118 36.3054 43.9805C36.3008 43.8492 36.2705 43.7201 36.2161 43.6006C36.1616 43.481 36.0842 43.3733 35.9881 43.2837C35.8921 43.194 35.7793 43.1242 35.6563 43.0781C35.5332 43.0321 35.4023 43.0107 35.271 43.0152C35.1397 43.0198 35.0106 43.0501 34.8911 43.1046C32.3851 44.2466 23.8981 49.6666 21.5021 52.2046C18.4591 51.1266 15.2021 51.5996 12.0341 52.0786C10.3413 52.3876 8.62565 52.5548 6.90506 52.5786H6.70506C6.63706 52.5786 6.52406 52.5786 6.44206 52.5786C6.07165 52.2436 5.60626 52.0321 5.11034 51.9733C4.61441 51.9146 4.11249 52.0115 3.67406 52.2506C3.35462 52.4436 3.1023 52.7302 2.95132 53.0715C2.80034 53.4128 2.758 53.7924 2.83006 54.1586C2.70306 56.0666 2.52306 60.2766 3.29406 61.4916C3.38766 61.6359 3.51556 61.7548 3.66632 61.8377C3.81708 61.9206 3.98602 61.9649 4.15806 61.9666H4.18106C4.81906 61.9506 5.06006 61.5266 5.59006 60.5976C7.11606 57.9176 7.76006 57.4916 7.99006 57.4746C8.04499 57.4868 8.10085 57.4945 8.15706 57.4976C20.7261 58.1586 20.9011 58.1636 20.9461 58.1636C22.1576 58.2015 23.37 58.1184 24.5651 57.9156C24.5931 57.9086 24.6131 57.8896 24.6401 57.8806C24.667 57.8771 24.6937 57.8721 24.7201 57.8656L37.1111 52.6306C37.2347 52.5814 37.3473 52.508 37.4422 52.4147C37.5371 52.3214 37.6125 52.2101 37.6639 52.0874C37.7152 51.9646 37.7416 51.8328 37.7413 51.6997C37.7411 51.5666 37.7143 51.4349 37.6625 51.3123C37.6108 51.1897 37.535 51.0787 37.4398 50.9858C37.3445 50.8928 37.2317 50.8198 37.1079 50.771C36.9841 50.7222 36.8517 50.6987 36.7187 50.7017C36.5857 50.7047 36.4545 50.7342 36.3331 50.7886H36.3311ZM8.33106 55.5046C6.87906 55.2506 5.66806 56.6586 4.72606 58.1286C4.70006 56.9346 4.74006 55.4696 4.82606 54.1556C4.83083 54.0888 4.82848 54.0218 4.81906 53.9556C4.97084 53.9864 5.11005 54.0615 5.21906 54.1716C5.43275 54.3354 5.67663 54.4554 5.93675 54.5249C6.19688 54.5944 6.46815 54.612 6.73506 54.5766H6.85906C8.69284 54.5578 10.5217 54.3835 12.3261 54.0556C15.4491 53.5816 18.4041 53.1556 21.0261 54.1556C21.2719 54.8514 21.5942 55.5178 21.9871 56.1426C21.6291 56.1526 21.2761 56.1586 20.9671 56.1616C20.7121 56.1546 12.6331 55.7306 8.33206 55.5046H8.33106Z" fill="white"/>
<path d="M62.2492 41.6513C61.4242 40.1653 60.1192 40.3033 59.1492 40.4003L53.5282 40.9793C52.2282 41.1133 50.8282 41.3793 49.4782 41.6413C48.7622 41.7793 48.0382 41.9133 47.3252 42.0323C47.8959 40.6667 48.1754 39.1969 48.1458 37.7171C48.1161 36.2373 47.7781 34.78 47.1532 33.4383C45.8942 30.8853 43.9362 29.2543 41.7932 28.9163L41.7792 28.7043C42.854 26.5779 43.1437 24.1404 42.5972 21.8213C42.5972 21.8063 42.6092 21.7923 42.6132 21.7763C42.8198 21.0081 42.7129 20.1893 42.3159 19.4999C41.9189 18.8106 41.2643 18.3071 40.4962 18.1003C40.3322 18.0585 40.1649 18.0311 39.9962 18.0183C39.6664 17.8664 39.3278 17.7345 38.9822 17.6233C42.1972 15.4822 45.6542 13.729 49.2812 12.4003C49.4206 12.3526 49.5477 12.2746 49.6535 12.1721C49.7593 12.0695 49.8411 11.9448 49.8931 11.8069C49.9451 11.6691 49.9659 11.5214 49.9542 11.3745C49.9425 11.2276 49.8984 11.0852 49.8252 10.9573L44.9792 2.50029C44.8597 2.29153 44.669 2.13284 44.4419 2.05331C44.2149 1.97378 43.9668 1.97874 43.7432 2.06729C39.6774 3.84889 35.762 5.95573 32.0352 8.36729C31.9183 8.44149 31.818 8.53917 31.7408 8.65413C31.6636 8.7691 31.6111 8.89886 31.5866 9.03517C31.5622 9.17149 31.5663 9.3114 31.5988 9.44603C31.6312 9.58066 31.6913 9.70709 31.7752 9.81729L37.4412 17.2573C35.9464 17.0365 34.4197 17.2299 33.0272 17.8163C32.4269 17.7329 31.8153 17.8333 31.2732 18.1043C28.9402 19.2713 27.3092 22.6283 27.5162 25.4883C26.9321 25.6773 26.4034 26.0071 25.9768 26.4487C25.5503 26.8902 25.2389 27.43 25.0702 28.0203C24.5702 29.9203 25.4972 31.7103 26.3962 33.4393C27.1962 34.9733 27.9462 36.4213 27.7312 37.8513C27.7097 37.9936 27.7193 38.1389 27.7591 38.2772C27.799 38.4155 27.8682 38.5436 27.9621 38.6527C28.056 38.7617 28.1724 38.8493 28.3032 38.9093C28.434 38.9693 28.5763 39.0003 28.7202 39.0003C28.758 39.0005 28.7957 38.9981 28.8332 38.9933C29.6891 38.918 30.5077 38.6081 31.199 38.0977C31.8902 37.5873 32.4273 36.8962 32.7512 36.1003C33.3555 34.4199 33.2961 32.5724 32.5852 30.9343C33.4812 31.381 34.4376 31.6946 35.4242 31.8653C35.3592 31.9783 35.2862 32.0823 35.2242 32.2003C34.7006 33.2667 34.5936 34.4902 34.9242 35.6313C35.3177 36.7213 35.8715 37.7465 36.5672 38.6733C37.0401 39.3274 37.4499 40.0248 37.7912 40.7563L39.4182 53.4063L39.7202 57.9003C39.732 58.082 39.7932 58.2569 39.8972 58.4064C40.0012 58.5558 40.144 58.674 40.3102 58.7483C44.1272 60.4483 45.8522 60.9193 46.7172 60.9193C46.8958 60.9362 47.0758 60.9085 47.2411 60.8387C47.4064 60.7689 47.5518 60.6591 47.6642 60.5193C47.8354 60.3288 47.9407 60.0882 47.9645 59.8331C47.9883 59.5781 47.9293 59.3222 47.7962 59.1033C47.0443 57.6384 45.9775 56.3581 44.6722 55.3543C44.4386 55.1937 44.2482 54.978 44.1177 54.7264C43.9872 54.4747 43.9208 54.1947 43.9242 53.9113L43.9042 52.0183H43.9602C44.1242 52.0103 44.2832 52.0023 44.4252 51.9993C44.757 51.9803 45.0867 51.9349 45.4112 51.8633C45.2832 51.9993 45.1662 52.1273 45.0712 52.2393L44.8002 52.5573C44.6278 52.7589 44.5425 53.0206 44.5632 53.2851C44.5838 53.5495 44.7086 53.7949 44.9102 53.9673C45.1118 54.1397 45.3735 54.2249 45.638 54.2043C45.9024 54.1837 46.1478 54.0589 46.3202 53.8573L46.5952 53.5373C47.5012 52.5688 48.4564 51.6476 49.4572 50.7773C51.6702 50.0973 54.2342 49.2123 56.4852 48.3323C56.0052 48.6493 55.5212 48.9583 55.0402 49.2533C52.6212 50.7393 50.2292 52.3533 47.9152 53.9183L46.6052 54.8023C46.4276 54.9221 46.2932 55.0958 46.2217 55.2977C46.1503 55.4997 46.1455 55.7192 46.2083 55.9241C46.271 56.1289 46.3978 56.3082 46.5701 56.4355C46.7424 56.5628 46.951 56.6315 47.1652 56.6313C47.3635 56.6303 47.5568 56.5697 47.7202 56.4573L49.0322 55.5723C51.3322 54.0213 53.7022 52.4183 56.0852 50.9543C57.6237 50.0721 59.0612 49.0246 60.3722 47.8303C60.4362 47.7693 60.5172 47.6943 60.6092 47.6113C61.4419 47.0057 62.0495 46.1402 62.3362 45.1513C62.6042 44.6039 62.7362 43.9999 62.7211 43.3906C62.7059 42.7814 62.544 42.1847 62.2492 41.6513ZM43.6812 4.26129L47.4982 10.9203C44.3972 12.1593 41.4222 13.693 38.6142 15.5003L34.0302 9.47929C37.1285 7.52894 40.3526 5.7858 43.6812 4.26129ZM38.7932 25.0003L40.8442 23.8163C40.9671 25.2203 40.6558 26.6281 39.9522 27.8493C39.8168 28.0375 39.7511 28.2669 39.7662 28.4983L39.7952 28.9473C39.6372 28.9723 39.4852 29.0083 39.3322 29.0423C39.4072 27.6731 39.2244 26.302 38.7932 25.0003ZM40.5862 20.5003C40.7185 20.7299 40.7542 21.0026 40.6856 21.2585C40.617 21.5145 40.4496 21.7327 40.2202 21.8653L36.7552 23.8653C36.5257 23.9977 36.2531 24.0336 35.9972 23.9651C35.7413 23.8967 35.523 23.7295 35.3902 23.5003C35.2576 23.2706 35.2217 22.9977 35.2903 22.7415C35.3589 22.4853 35.5265 22.2669 35.7562 22.1343L39.2202 20.1343C39.3721 20.0463 39.5446 20 39.7202 20.0003C39.8079 20.0008 39.8953 20.0122 39.9802 20.0343C40.2359 20.1032 40.4539 20.2708 40.5862 20.5003ZM36.8312 19.2003L36.0162 19.6713C35.8662 19.4983 35.7162 19.3473 35.5602 19.1983C35.9829 19.158 36.4086 19.1586 36.8312 19.2003ZM32.1672 19.8923C32.8932 19.5303 33.6922 20.1143 34.2852 20.7373C33.9211 21.0566 33.6395 21.4591 33.4642 21.9105C33.2889 22.3619 33.2251 22.849 33.2782 23.3303L29.5352 24.4683C29.7202 22.6113 30.7942 20.5813 32.1672 19.9003V19.8923ZM30.9032 35.3383C30.6777 35.9044 30.2613 36.3738 29.7262 36.6653C29.4603 35.2013 28.9336 33.797 28.1712 32.5193C27.4132 31.0623 26.6992 29.6873 26.9962 28.5573C27.0957 28.2048 27.3063 27.8939 27.5968 27.6709C27.8873 27.4478 28.242 27.3245 28.6082 27.3193H28.6402C28.7955 27.3179 28.9489 27.2838 29.0902 27.2193C29.06 27.2428 29.0316 27.2685 29.0052 27.2963C28.8344 27.4709 28.7334 27.7019 28.7213 27.9458C28.7091 28.1897 28.7866 28.4296 28.9392 28.6203C31.2412 31.5003 31.4632 33.9793 30.9032 35.3383ZM30.3272 27.2053C30.1811 27.0938 30.0071 27.0248 29.8244 27.0058C29.6416 26.9867 29.4571 27.0184 29.2912 27.0973C29.3487 27.0507 29.4007 26.9977 29.4462 26.9393C29.5397 26.8195 29.6047 26.68 29.6362 26.5313L34.1812 25.1503C34.5417 25.5092 34.9896 25.7678 35.4807 25.9004C35.9718 26.0329 36.4891 26.035 36.9812 25.9063C37.5982 28.1153 37.4002 29.5333 37.0542 29.7423C35.8202 30.4923 32.6662 28.9933 30.3272 27.2053ZM36.8582 35.1003C36.6591 34.4376 36.7143 33.7244 37.0132 33.1003C37.3694 32.39 37.9248 31.7989 38.6116 31.3993C39.2984 30.9997 40.0867 30.809 40.8802 30.8503C43.4532 30.7643 44.9542 33.4933 45.3632 34.3223C45.8923 35.4766 46.1632 36.7324 46.1572 38.0022C46.1511 39.2719 45.8682 40.5251 45.3282 41.6743C44.8082 42.8673 44.3102 43.9113 43.8282 44.8323L43.7202 34.5123C43.7237 34.185 43.6589 33.8606 43.5299 33.5598C43.401 33.259 43.2107 32.9884 42.9712 32.7653C42.2288 32.1694 41.2807 31.8919 40.3342 31.9933C38.2792 32.1323 37.0132 33.1863 37.0342 34.7443C37.0349 34.7831 37.0375 34.8218 37.0422 34.8603L37.1652 35.8173C37.0403 35.5886 36.9375 35.3485 36.8582 35.1003ZM45.0262 58.4843C44.0592 58.1503 42.8262 57.6613 41.6752 57.1643L41.4142 53.2173L39.0322 34.6803C39.0792 34.1113 40.2322 34.0053 40.4672 33.9893C40.8657 33.9301 41.2721 34.0164 41.6122 34.2323C41.6518 34.2708 41.6821 34.3179 41.7008 34.3698C41.7195 34.4218 41.7261 34.4774 41.7202 34.5323L41.9202 53.9323C41.9201 54.5434 42.0704 55.1452 42.358 55.6845C42.6456 56.2238 43.0616 56.6839 43.5692 57.0243C44.1298 57.4288 44.6217 57.9207 45.0262 58.4813V58.4843ZM44.3862 50.0003C44.2312 50.0003 44.0592 50.0113 43.8862 50.0213L43.8722 48.6473C44.835 47.2349 45.6761 45.7432 46.3862 44.1883C47.5232 44.0433 48.7052 43.8293 49.8632 43.6073C51.1722 43.3563 52.5242 43.0973 53.7402 42.9723L59.3742 42.3913C60.3212 42.2913 60.3442 42.3363 60.5042 42.6243C60.6298 42.8566 60.7037 43.1133 60.721 43.3769C60.7382 43.6404 60.6984 43.9046 60.6042 44.1513C60.5665 44.1947 60.533 44.2416 60.5042 44.2913C59.5132 45.1413 53.1692 47.5473 48.6542 48.9503C48.6277 48.9568 48.6017 48.9648 48.5762 48.9743C47.2165 49.4527 45.8131 49.7964 44.3862 50.0003Z" fill="white"/>
<path d="M44.8502 18.9445C44.6581 19.0984 44.5296 19.3178 44.4892 19.5606C44.4487 19.8034 44.4993 20.0526 44.6312 20.2605L50.4632 29.4715C50.5383 29.5901 50.6377 29.6916 50.7546 29.7693C50.8716 29.847 51.0037 29.8992 51.1422 29.9225C51.1967 29.9315 51.2519 29.9362 51.3072 29.9365C51.5345 29.9363 51.7549 29.8587 51.9322 29.7164C60.3682 22.9645 64.3502 16.2794 62.0572 12.6574L56.3202 4.25145C56.1576 4.0038 55.9637 3.77825 55.7432 3.58045C54.4592 2.84957 53.0677 2.32644 51.6202 2.03045C51.2396 1.96676 50.8487 2.01416 50.4943 2.16696C50.1399 2.31975 49.8371 2.57148 49.6222 2.89197C49.4072 3.21246 49.2892 3.58812 49.2823 3.97397C49.2754 4.35981 49.3798 4.73946 49.5832 5.06745L51.8832 8.55245C52.0343 8.76102 52.2601 8.90322 52.5135 8.94943C52.7669 8.99563 53.0284 8.94226 53.2434 8.80045C53.4585 8.65865 53.6105 8.43933 53.6678 8.18821C53.7252 7.93709 53.6834 7.67353 53.5512 7.45245L51.2732 4.00045C52.3533 4.24775 53.405 4.60633 54.4112 5.07045C54.4849 5.13559 54.5519 5.20795 54.6112 5.28645L54.6202 5.30045L54.6722 5.37645C54.8245 5.61408 54.8948 5.89509 54.8722 6.17645C54.5702 9.32945 50.7322 14.2234 44.8502 18.9445ZM56.4882 8.04445L60.3882 13.7584C61.7232 15.8664 59.0882 21.1905 51.5512 27.4505L46.7972 19.9415C51.8942 15.7234 55.3662 11.4404 56.4882 8.04245V8.04445Z" fill="white"/>
<path d="M26.7321 2H26.7201C26.4569 1.99998 26.2044 2.10369 26.0172 2.28864C25.83 2.47359 25.7232 2.72487 25.7201 2.988L25.7081 3.988C25.7065 4.11941 25.7308 4.24984 25.7797 4.37184C25.8285 4.49383 25.901 4.605 25.9928 4.69899C26.0847 4.79298 26.1941 4.86794 26.315 4.91959C26.4358 4.97124 26.5657 4.99856 26.6971 5H26.7081C26.9712 5.00002 27.2238 4.89631 27.411 4.71136C27.5982 4.52641 27.7049 4.27513 27.7081 4.012L27.7201 3.012C27.7217 2.88068 27.6974 2.75033 27.6486 2.62839C27.5998 2.50646 27.5274 2.39533 27.4357 2.30136C27.3439 2.20738 27.2346 2.1324 27.1139 2.08069C26.9931 2.02899 26.8634 2.00157 26.7321 2Z" fill="white"/>
<path d="M25.7204 6.02302C25.7233 5.75797 25.6209 5.5026 25.4356 5.31302C25.2504 5.12345 24.9974 5.01518 24.7324 5.01202L23.7324 5.00002H23.7204C23.5891 4.99923 23.4589 5.02432 23.3372 5.07384C23.2156 5.12337 23.1049 5.19637 23.0115 5.28867C22.9181 5.38097 22.8438 5.49077 22.7928 5.61179C22.7418 5.73282 22.7152 5.8627 22.7144 5.99402C22.7136 6.12534 22.7387 6.25553 22.7882 6.37716C22.8377 6.49879 22.9107 6.60947 23.003 6.70288C23.0953 6.7963 23.2051 6.87062 23.3261 6.9216C23.4472 6.97258 23.5771 6.99923 23.7084 7.00002L24.7084 7.01202H24.7204C24.9837 7.01203 25.2364 6.90819 25.4236 6.72302C25.6108 6.53786 25.7175 6.28632 25.7204 6.02302Z" fill="white"/>
<path d="M28.7084 6.9883L29.7084 7.0003H29.7204C29.8517 7.00109 29.9819 6.976 30.1035 6.92647C30.2251 6.87695 30.3358 6.80395 30.4292 6.71165C30.5227 6.61935 30.597 6.50955 30.648 6.38853C30.6989 6.2675 30.7256 6.13762 30.7264 6.0063C30.7272 5.87498 30.7021 5.74479 30.6525 5.62316C30.603 5.50153 30.53 5.39085 30.4377 5.29744C30.3454 5.20402 30.2356 5.1297 30.1146 5.07872C29.9936 5.02773 29.8637 5.00109 29.7324 5.0003L28.7324 4.9883H28.7204C28.5891 4.98751 28.4589 5.0126 28.3372 5.06212C28.2156 5.11165 28.1049 5.18465 28.0115 5.27695C27.9181 5.36925 27.8438 5.47905 27.7928 5.60007C27.7418 5.7211 27.7152 5.85098 27.7144 5.9823C27.7136 6.11362 27.7387 6.24381 27.7882 6.36544C27.8377 6.48707 27.9107 6.59775 28.003 6.69116C28.0953 6.78458 28.2051 6.8589 28.3261 6.90988C28.4472 6.96087 28.5771 6.98751 28.7084 6.9883Z" fill="white"/>
<path d="M26.6971 10H26.7081C26.9712 10 27.2238 9.89631 27.411 9.71136C27.5982 9.52641 27.7049 9.27513 27.7081 9.012L27.7201 8.012C27.7217 7.88068 27.6974 7.75033 27.6486 7.62839C27.5998 7.50646 27.5274 7.39533 27.4357 7.30136C27.3439 7.20738 27.2346 7.1324 27.1139 7.08069C26.9931 7.02899 26.8634 7.00157 26.7321 7H26.7201C26.4569 6.99998 26.2044 7.10369 26.0172 7.28864C25.83 7.47359 25.7232 7.72487 25.7201 7.988L25.7081 8.988C25.7065 9.11941 25.7308 9.24984 25.7797 9.37184C25.8285 9.49383 25.901 9.605 25.9928 9.69899C26.0847 9.79298 26.1941 9.86794 26.315 9.91959C26.4358 9.97124 26.5657 9.99856 26.6971 10Z" fill="white"/>
<path d="M20.7321 14.0117H20.7201C20.4569 14.0117 20.2044 14.1154 20.0172 14.3004C19.83 14.4853 19.7232 14.7366 19.7201 14.9997L19.7081 15.9997C19.7065 16.1311 19.7308 16.2616 19.7797 16.3836C19.8285 16.5056 19.901 16.6167 19.9928 16.7107C20.0847 16.8047 20.1941 16.8797 20.315 16.9313C20.4358 16.983 20.5657 17.0103 20.6971 17.0117H20.7081C20.9714 17.0117 21.2241 16.9079 21.4113 16.7227C21.5985 16.5376 21.7052 16.286 21.7081 16.0227L21.7201 15.0227C21.723 14.7577 21.6206 14.5023 21.4353 14.3127C21.2501 14.1231 20.9971 14.0149 20.7321 14.0117Z" fill="white"/>
<path d="M18.7323 17.0231L17.7323 17.0121C17.6004 17.0085 17.4692 17.0314 17.3463 17.0794C17.2235 17.1275 17.1116 17.1998 17.0172 17.2919C16.9228 17.3841 16.8479 17.4942 16.7969 17.6159C16.7459 17.7375 16.7198 17.8682 16.7203 18.0001C16.7187 18.1314 16.743 18.2618 16.7918 18.3837C16.8406 18.5056 16.9129 18.6168 17.0047 18.7107C17.0964 18.8047 17.2058 18.8797 17.3265 18.9314C17.4472 18.9831 17.577 19.0105 17.7083 19.0121L18.7083 19.0231H18.7203C18.8516 19.0239 18.9818 18.9988 19.1034 18.9493C19.2251 18.8997 19.3357 18.8267 19.4292 18.7344C19.5226 18.6421 19.5969 18.5323 19.6479 18.4113C19.6989 18.2903 19.7255 18.1604 19.7263 18.0291C19.7271 17.8978 19.702 17.7676 19.6525 17.646C19.6029 17.5243 19.5299 17.4136 19.4376 17.3202C19.3453 17.2268 19.2355 17.1525 19.1145 17.1015C18.9935 17.0505 18.8636 17.0239 18.7323 17.0231Z" fill="white"/>
<path d="M22.7084 19L23.7084 19.012H23.7204C23.8518 19.0128 23.982 18.9877 24.1036 18.9382C24.2252 18.8887 24.3359 18.8157 24.4293 18.7234C24.5227 18.6311 24.597 18.5213 24.648 18.4003C24.699 18.2792 24.7257 18.1494 24.7264 18.018C24.7272 17.8867 24.7021 17.7565 24.6526 17.6349C24.6031 17.5133 24.5301 17.4026 24.4378 17.3092C24.3455 17.2158 24.2357 17.1414 24.1147 17.0905C23.9936 17.0395 23.8638 17.0128 23.7324 17.012L22.7324 17C22.6 16.994 22.4677 17.0152 22.3437 17.0624C22.2198 17.1096 22.1069 17.1817 22.012 17.2744C21.9171 17.367 21.8423 17.4782 21.7921 17.6009C21.742 17.7237 21.7176 17.8555 21.7204 17.988C21.7189 18.1194 21.7432 18.2497 21.792 18.3716C21.8407 18.4936 21.9131 18.6047 22.0048 18.6987C22.0966 18.7927 22.2059 18.8676 22.3267 18.9193C22.4474 18.971 22.5771 18.9985 22.7084 19Z" fill="white"/>
<path d="M20.6971 22.0121H20.7081C20.9714 22.0121 21.2241 21.9083 21.4113 21.7231C21.5985 21.538 21.7052 21.2864 21.7081 21.0231L21.7201 20.0231C21.723 19.7581 21.6206 19.5027 21.4353 19.3131C21.2501 19.1235 20.9971 19.0153 20.7321 19.0121C20.5993 19.005 20.4666 19.0255 20.3422 19.0723C20.2178 19.1191 20.1044 19.1913 20.0093 19.2841C19.9142 19.377 19.8394 19.4885 19.7896 19.6118C19.7398 19.735 19.7162 19.8673 19.7201 20.0001L19.7081 21.0001C19.7065 21.1315 19.7308 21.262 19.7797 21.384C19.8285 21.506 19.901 21.6171 19.9928 21.7111C20.0847 21.8051 20.1941 21.8801 20.315 21.9317C20.4358 21.9834 20.5657 22.0107 20.6971 22.0121Z" fill="white"/>
<path d="M55.058 21.841C55.1469 21.9889 55.2725 22.1113 55.4227 22.1963C55.5729 22.2813 55.7425 22.326 55.915 22.326C55.9518 22.326 55.9885 22.324 56.025 22.32C56.2151 22.2993 56.3953 22.2245 56.5442 22.1045C56.693 21.9845 56.8044 21.8243 56.865 21.643L58.64 16.316C58.6901 16.1657 58.7037 16.0058 58.6798 15.8492C58.6559 15.6926 58.5952 15.544 58.5027 15.4155C58.4101 15.287 58.2883 15.1823 58.1474 15.1101C58.0065 15.0379 57.8504 15.0001 57.692 15H52.72C52.543 15 52.3692 15.047 52.2163 15.1362C52.0634 15.2254 51.937 15.3536 51.8498 15.5076C51.7627 15.6617 51.718 15.8361 51.7203 16.0131C51.7226 16.1901 51.7719 16.3633 51.863 16.515L55.058 21.841ZM56.304 17L55.655 18.947L54.486 17H56.304Z" fill="white"/>
</svg>
