<svg width="61" height="60" viewBox="0 0 61 60" fill="none" xmlns="http://www.w3.org/2000/svg">
<g clip-path="url(#clip0_1_668)">
<path d="M2.28315 38.4534H38.1087C38.4437 38.4535 38.7655 38.3225 39.0052 38.0885C39.245 37.8544 39.3838 37.536 39.3918 37.201V1.34467C39.3918 1.00436 39.2566 0.677989 39.016 0.437342C38.7754 0.196706 38.449 0.0615234 38.1087 0.0615234H2.28315C1.94284 0.0615234 1.61647 0.196706 1.37583 0.437342C1.13519 0.677989 1 1.00436 1 1.34467V37.201C1.00804 37.536 1.14677 37.8544 1.38655 38.0885C1.62631 38.3225 1.9481 38.4535 2.28315 38.4534ZM3.5663 2.62782H36.8255V35.8871H3.5663V2.62782Z" fill="white"/>
<path d="M38.2626 42.128C37.9224 42.128 37.5959 42.2632 37.3553 42.5038C37.1147 42.7444 36.9795 43.0707 36.9795 43.4111V50.2888L29.7939 45.536C29.5507 45.3838 29.2639 45.3167 28.9784 45.3453C28.6929 45.3739 28.4251 45.4966 28.217 45.6941C28.009 45.8916 27.8725 46.1527 27.829 46.4363C27.7856 46.7198 27.8376 47.0098 27.9769 47.2606L30.4303 51.3666H10.2079L12.651 47.4659C12.7956 47.2185 12.854 46.93 12.817 46.6458C12.7799 46.3616 12.6496 46.0978 12.4464 45.8957C12.2432 45.6937 11.9785 45.5649 11.6942 45.5295C11.4097 45.494 11.1217 45.5542 10.8751 45.7003L3.5663 50.3401V43.4111C3.5663 43.0707 3.43111 42.7444 3.19047 42.5038C2.94983 42.2632 2.62346 42.128 2.28315 42.128C1.94284 42.128 1.61647 42.2632 1.37583 42.5038C1.13519 42.7444 1 43.0707 1 43.4111V52.6498C1.0125 52.853 1.07068 53.051 1.1702 53.2287C1.26973 53.4063 1.40804 53.5594 1.57485 53.6763L10.7109 59.7841C10.9204 59.9245 11.167 59.9996 11.4192 59.9997C11.6425 59.9982 11.8617 59.939 12.0554 59.8277C12.249 59.7165 12.4106 59.5569 12.5243 59.3647C12.638 59.1724 12.7 58.954 12.7042 58.7307C12.7084 58.5073 12.6547 58.2867 12.5483 58.0903L10.095 53.9843H30.3482L27.9461 57.8645C27.7946 58.1104 27.7305 58.4002 27.764 58.687C27.7976 58.9738 27.9269 59.2409 28.1311 59.4452C28.3353 59.6493 28.6025 59.7787 28.8893 59.8122C29.1761 59.8458 29.4659 59.7816 29.7117 59.6301L38.9504 53.7687C39.1816 53.6246 39.3585 53.408 39.4534 53.1528C39.5178 52.9998 39.5526 52.8361 39.5561 52.6703V43.4317C39.5588 43.2605 39.5273 43.0906 39.4634 42.9318C39.3995 42.7731 39.3045 42.6288 39.1839 42.5073C39.0634 42.3858 38.9198 42.2897 38.7616 42.2246C38.6035 42.1594 38.4338 42.1265 38.2626 42.128Z" fill="white"/>
<path d="M60.7024 27.2438C60.4996 27.0354 60.2333 26.9001 59.9453 26.8593C59.6574 26.8184 59.364 26.8743 59.1113 27.018L55.0052 29.4816V9.26946L58.906 11.7126C59.1517 11.8641 59.4415 11.9283 59.7284 11.8948C60.0153 11.8612 60.2824 11.7318 60.4866 11.5276C60.6908 11.3234 60.8201 11.0562 60.8537 10.7694C60.8873 10.4826 60.8231 10.1928 60.6716 9.94696L54.9128 0.81095C54.8171 0.572931 54.6528 0.368736 54.4407 0.224335C54.2288 0.079935 53.9786 0.00184773 53.7221 0H44.4834C44.143 0 43.8167 0.135193 43.5761 0.375829C43.3354 0.616466 43.2003 0.942837 43.2003 1.28315C43.2003 1.62346 43.3354 1.94983 43.5761 2.19047C43.8167 2.43111 44.143 2.5663 44.4834 2.5663H51.3508L46.557 9.75192C46.4093 9.99428 46.3461 10.2787 46.3774 10.5608C46.4086 10.8429 46.5325 11.1066 46.7296 11.3108C46.9267 11.515 47.186 11.648 47.4668 11.6892C47.7476 11.7302 48.0341 11.6772 48.2815 11.5381L52.3876 9.08469V29.3071L48.4766 26.9359C48.23 26.7898 47.9418 26.7297 47.6575 26.7651C47.3731 26.8005 47.1085 26.9293 46.9053 27.1314C46.702 27.3334 46.5716 27.5972 46.5346 27.8815C46.4976 28.1656 46.5559 28.4541 46.7007 28.7015L51.32 36.0205H44.4321C44.0917 36.0205 43.7654 36.1557 43.5247 36.3964C43.2841 36.637 43.1489 36.9634 43.1489 37.3037C43.1489 37.644 43.2841 37.9704 43.5247 38.211C43.7654 38.4517 44.0917 38.5868 44.4321 38.5868H53.6707C53.8254 38.5819 53.9782 38.5506 54.1224 38.4945C54.3818 38.4081 54.6056 38.2386 54.7589 38.012L60.7948 28.8349C60.961 28.5981 61.0423 28.3121 61.0256 28.0232C61.0087 27.7345 60.8949 27.4598 60.7024 27.2438Z" fill="white"/>
</g>
<defs>
<clipPath id="clip0_1_668">
<rect width="60" height="60" fill="white" transform="translate(0.720215)"/>
</clipPath>
</defs>
</svg>
