<svg width="80" height="80" viewBox="0 0 80 80" fill="none" xmlns="http://www.w3.org/2000/svg">
<path d="M23.3335 30.833C23.7755 30.833 24.1995 30.6573 24.512 30.3448C24.8245 30.0323 25.0002 29.6083 25.0002 29.1663C25.0002 28.7243 24.8245 28.3003 24.512 27.9878C24.1995 27.6753 23.7755 27.4997 23.3335 27.4997H20.8335V24.9997C20.8335 24.5577 20.6578 24.1337 20.3453 23.8212C20.0328 23.5087 19.6088 23.333 19.1668 23.333C18.7248 23.333 18.3008 23.5087 17.9883 23.8212C17.6758 24.1337 17.5002 24.5577 17.5002 24.9997V27.4997H15.0002C14.5581 27.4997 14.1342 27.6753 13.8216 27.9878C13.5091 28.3003 13.3335 28.7243 13.3335 29.1663C13.3335 29.6083 13.5091 30.0323 13.8216 30.3448C14.1342 30.6573 14.5581 30.833 15.0002 30.833H17.5002V33.333C17.5002 33.775 17.6758 34.199 17.9883 34.5115C18.3008 34.824 18.7248 34.9997 19.1668 34.9997C19.6088 34.9997 20.0328 34.824 20.3453 34.5115C20.6578 34.199 20.8335 33.775 20.8335 33.333V30.833H23.3335Z" fill="#CE2127"/>
<path d="M60.8332 26.6663C61.7537 26.6663 62.4998 25.9202 62.4998 24.9997C62.4998 24.0792 61.7537 23.333 60.8332 23.333C59.9127 23.333 59.1665 24.0792 59.1665 24.9997C59.1665 25.9202 59.9127 26.6663 60.8332 26.6663Z" fill="#CE2127"/>
<path d="M60.8332 35.0003C61.7537 35.0003 62.4998 34.2542 62.4998 33.3337C62.4998 32.4132 61.7537 31.667 60.8332 31.667C59.9127 31.667 59.1665 32.4132 59.1665 33.3337C59.1665 34.2542 59.9127 35.0003 60.8332 35.0003Z" fill="#CE2127"/>
<path d="M65.0002 30.8333C65.9207 30.8333 66.6668 30.0872 66.6668 29.1667C66.6668 28.2462 65.9207 27.5 65.0002 27.5C64.0797 27.5 63.3335 28.2462 63.3335 29.1667C63.3335 30.0872 64.0797 30.8333 65.0002 30.8333Z" fill="#CE2127"/>
<path d="M56.6667 30.8333C57.5872 30.8333 58.3333 30.0872 58.3333 29.1667C58.3333 28.2462 57.5872 27.5 56.6667 27.5C55.7462 27.5 55 28.2462 55 29.1667C55 30.0872 55.7462 30.8333 56.6667 30.8333Z" fill="#CE2127"/>
<path d="M27.4998 36.667C26.3462 36.667 25.2183 37.0092 24.259 37.6502C23.2997 38.291 22.552 39.2022 22.1105 40.268C21.669 41.3338 21.5535 42.5068 21.7787 43.6383C22.0037 44.7698 22.5592 45.8093 23.375 46.6252C24.1908 47.441 25.2303 47.9965 26.3618 48.2215C27.4933 48.4467 28.6663 48.3312 29.7322 47.8897C30.798 47.4482 31.7092 46.7005 32.35 45.7412C32.991 44.7818 33.3332 43.654 33.3332 42.5003C33.3332 40.9532 32.7187 39.4695 31.6247 38.3755C30.5307 37.2815 29.047 36.667 27.4998 36.667ZM27.4998 45.0003C27.0053 45.0003 26.522 44.8537 26.1108 44.579C25.6998 44.3043 25.3793 43.9138 25.1902 43.457C25.001 43.0002 24.9513 42.4975 25.0478 42.0127C25.1443 41.5277 25.3825 41.0822 25.732 40.7325C26.0817 40.383 26.5272 40.1448 27.0122 40.0483C27.497 39.9518 27.9997 40.0015 28.4565 40.1907C28.9133 40.3798 29.3038 40.7003 29.5785 41.1113C29.8532 41.5225 29.9998 42.0058 29.9998 42.5003C29.9998 43.1633 29.7365 43.7993 29.2677 44.2682C28.7988 44.737 28.1628 45.0003 27.4998 45.0003Z" fill="#CE2127"/>
<path d="M52.4998 36.667C51.3462 36.667 50.2183 37.0092 49.259 37.6502C48.2997 38.291 47.552 39.2022 47.1105 40.268C46.669 41.3338 46.5535 42.5068 46.7787 43.6383C47.0037 44.7698 47.5592 45.8093 48.375 46.6252C49.1908 47.441 50.2303 47.9965 51.3618 48.2215C52.4933 48.4467 53.6663 48.3312 54.7322 47.8897C55.798 47.4482 56.7092 46.7005 57.35 45.7412C57.991 44.7818 58.3332 43.654 58.3332 42.5003C58.3332 40.9532 57.7185 39.4695 56.6247 38.3755C55.5307 37.2815 54.047 36.667 52.4998 36.667ZM52.4998 45.0003C52.0053 45.0003 51.522 44.8537 51.1108 44.579C50.6998 44.3043 50.3793 43.9138 50.1902 43.457C50.0008 43.0002 49.9513 42.4975 50.0478 42.0127C50.1443 41.5277 50.3825 41.0822 50.732 40.7325C51.0817 40.383 51.5272 40.1448 52.0122 40.0483C52.497 39.9518 52.9997 40.0015 53.4565 40.1907C53.9133 40.3798 54.3038 40.7003 54.5785 41.1113C54.8532 41.5225 54.9998 42.0058 54.9998 42.5003C54.9998 43.1633 54.7365 43.7993 54.2677 44.2682C53.7988 44.737 53.1628 45.0003 52.4998 45.0003Z" fill="#CE2127"/>
<path d="M36.6668 31.667H35.0002C34.5582 31.667 34.1342 31.8427 33.8217 32.1552C33.5092 32.4677 33.3335 32.8917 33.3335 33.3337C33.3335 33.7757 33.5092 34.1997 33.8217 34.5122C34.1342 34.8247 34.5582 35.0003 35.0002 35.0003H36.6668C37.1088 35.0003 37.5328 34.8247 37.8453 34.5122C38.1578 34.1997 38.3335 33.7757 38.3335 33.3337C38.3335 32.8917 38.1578 32.4677 37.8453 32.1552C37.5328 31.8427 37.1088 31.667 36.6668 31.667Z" fill="#CE2127"/>
<path d="M44.9998 31.667H43.3332C42.8912 31.667 42.4672 31.8427 42.1547 32.1552C41.8422 32.4677 41.6665 32.8917 41.6665 33.3337C41.6665 33.7757 41.8422 34.1997 42.1547 34.5122C42.4672 34.8247 42.8912 35.0003 43.3332 35.0003H44.9998C45.4418 35.0003 45.8658 34.8247 46.1783 34.5122C46.4908 34.1997 46.6665 33.7757 46.6665 33.3337C46.6665 32.8917 46.4908 32.4677 46.1783 32.1552C45.8658 31.8427 45.4418 31.667 44.9998 31.667Z" fill="#CE2127"/>
<path d="M74.1365 24.5714C73.6217 22.6484 72.733 20.8457 71.5213 19.2662C70.3095 17.6867 68.7985 16.3615 67.0745 15.3661C65.3505 14.3708 63.4472 13.7248 61.4735 13.4652C59.4998 13.2056 57.4943 13.3374 55.5715 13.853C52.4027 14.8743 49.5987 16.7937 47.4998 19.378C47.3362 19.578 47.1292 19.7379 46.8943 19.8457C46.6595 19.9534 46.4032 20.006 46.1448 19.9997H33.8615C33.6033 20.0057 33.347 19.9529 33.1123 19.8452C32.8775 19.7374 32.6703 19.5777 32.5065 19.378C30.4068 16.7932 27.6015 14.8737 24.4315 13.853C22.5085 13.3369 20.5027 13.2047 18.5285 13.4641C16.5545 13.7235 14.6508 14.3693 12.9264 15.3647C11.202 16.3601 9.69066 17.6855 8.47872 19.2652C7.26677 20.845 6.37799 22.648 5.86317 24.5714C-0.953497 50.0147 0.521505 63.6664 10.3732 66.3047C16.4848 67.9447 22.0398 64.138 26.9248 54.983C27.1215 54.9947 27.3115 54.9997 27.4998 54.9997C30.65 55.0095 33.6852 53.8174 35.9865 51.6664H44.0132C46.3145 53.8174 49.3497 55.0095 52.4998 54.9997C52.6882 54.9997 52.8782 54.9997 53.0748 54.983C57.2198 62.7564 61.8582 66.6747 66.9082 66.6747C67.8272 66.6714 68.7417 66.547 69.6282 66.3047C79.4782 63.6664 80.9532 50.0147 74.1365 24.5714ZM68.7632 63.0864C64.1615 64.318 59.7115 60.7414 55.5198 52.4597C55.3625 52.1494 55.1122 51.8962 54.8037 51.7354C54.4953 51.5745 54.1442 51.5144 53.7998 51.563C53.3695 51.6277 52.935 51.6622 52.4998 51.6664C51.2652 51.6697 50.0428 51.4212 48.9073 50.936C47.772 50.4509 46.7475 49.7392 45.8965 48.8447C45.7408 48.6827 45.5538 48.5539 45.3472 48.4659C45.1403 48.378 44.9178 48.3329 44.6932 48.333H35.3065C35.0818 48.3329 34.8593 48.378 34.6525 48.4659C34.4458 48.5539 34.2588 48.6827 34.1032 48.8447C33.2522 49.7392 32.2277 50.4509 31.0923 50.936C29.9568 51.4212 28.7345 51.6697 27.4998 51.6664C27.0647 51.6622 26.6302 51.6277 26.1998 51.563C25.8555 51.5144 25.5043 51.5745 25.196 51.7354C24.8875 51.8962 24.6372 52.1494 24.4798 52.4597C20.2882 60.7414 15.8315 64.3197 11.2365 63.0864C3.76484 61.0864 3.01984 48.063 9.08151 25.4347C9.75646 22.9242 11.2387 20.7055 13.2995 19.121C15.3603 17.5364 17.8852 16.6739 20.4848 16.6664C21.525 16.667 22.5605 16.8044 23.5648 17.0747C26.0272 17.901 28.2078 19.4025 29.8582 21.408C30.3342 22.0125 30.942 22.5002 31.6352 22.8339C32.3285 23.1674 33.0888 23.3382 33.8582 23.333H46.1415C46.9112 23.3379 47.6717 23.1667 48.365 22.8325C49.0583 22.4982 49.666 22.0099 50.1415 21.4047C51.7922 19.3995 53.9727 17.898 56.4348 17.0714C59.4642 16.2618 62.691 16.6877 65.4067 18.2554C68.1222 19.8232 70.1045 22.4047 70.9182 25.433C76.9798 48.063 76.2348 61.083 68.7632 63.0864Z" fill="#CE2127"/>
</svg>
