<svg width="80" height="80" viewBox="0 0 80 80" fill="none" xmlns="http://www.w3.org/2000/svg">
<path d="M2.08391 51.2712H49.8513C50.298 51.2713 50.7271 51.0967 51.0467 50.7846C51.3664 50.4725 51.5515 50.048 51.5621 49.6014V1.7929C51.5621 1.33915 51.3819 0.903986 51.0611 0.583123C50.7402 0.262274 50.305 0.0820312 49.8513 0.0820312H2.08391C1.63016 0.0820312 1.195 0.262274 0.874153 0.583123C0.553304 0.903986 0.373047 1.33915 0.373047 1.7929V49.6014C0.383764 50.048 0.568742 50.4725 0.888442 50.7846C1.20813 51.0967 1.63718 51.2713 2.08391 51.2712ZM3.79478 3.50376H48.1404V47.8494H3.79478V3.50376Z" fill="#CE2127"/>
<path d="M50.0566 56.171C49.6029 56.171 49.1676 56.3512 48.8468 56.672C48.526 56.9929 48.3457 57.428 48.3457 57.8818V67.0521L38.7649 60.715C38.4406 60.512 38.0582 60.4225 37.6776 60.4607C37.2969 60.4989 36.9399 60.6625 36.6624 60.9258C36.385 61.1891 36.2031 61.5372 36.1451 61.9154C36.0872 62.2934 36.1566 62.68 36.3423 63.0144L39.6135 68.4892H12.6502L15.9077 63.2882C16.1006 62.9583 16.1784 62.5737 16.129 62.1947C16.0796 61.8159 15.9058 61.4641 15.6349 61.1946C15.3639 60.9253 15.0111 60.7535 14.6319 60.7063C14.2527 60.659 13.8686 60.7392 13.5399 60.934L3.79478 67.1205V57.8818C3.79478 57.428 3.61452 56.9929 3.29367 56.672C2.97282 56.3512 2.53766 56.171 2.08391 56.171C1.63016 56.171 1.195 56.3512 0.874153 56.672C0.553304 56.9929 0.373047 57.428 0.373047 57.8818V70.2001C0.389718 70.4711 0.467281 70.7349 0.599976 70.9719C0.732685 71.2088 0.917102 71.4129 1.13951 71.5687L13.3209 79.7125C13.6002 79.8997 13.929 79.9998 14.2653 79.9999C14.5631 79.998 14.8553 79.919 15.1136 79.7706C15.3717 79.6223 15.5872 79.4096 15.7388 79.1532C15.8903 78.8969 15.973 78.6056 15.9786 78.3079C15.9842 78.0101 15.9126 77.716 15.7708 77.4541L12.4997 71.9794H39.504L36.3012 77.153C36.0992 77.4808 36.0137 77.8672 36.0584 78.2496C36.1032 78.632 36.2756 78.9882 36.5479 79.2605C36.8201 79.5328 37.1764 79.7052 37.5588 79.75C37.9412 79.7947 38.3276 79.7092 38.6554 79.5072L50.9736 71.6919C51.2818 71.4998 51.5177 71.211 51.6443 70.8707C51.7301 70.6668 51.7765 70.4485 51.7811 70.2274V57.9092C51.7848 57.681 51.7428 57.4545 51.6575 57.2428C51.5724 57.0312 51.4457 56.8387 51.285 56.6767C51.1243 56.5148 50.9328 56.3865 50.7219 56.2998C50.511 56.2128 50.2847 56.169 50.0566 56.171Z" fill="#CE2127"/>
<path d="M79.9764 36.3251C79.706 36.0472 79.3509 35.8668 78.967 35.8124C78.5831 35.7579 78.1919 35.8324 77.8549 36.024L72.3802 39.3088V12.3593L77.5812 15.6168C77.9089 15.8188 78.2952 15.9045 78.6778 15.8597C79.0602 15.815 79.4163 15.6424 79.6887 15.3701C79.961 15.0979 80.1334 14.7416 80.1782 14.3592C80.2229 13.9768 80.1374 13.5904 79.9354 13.2626L72.257 1.08127C72.1293 0.763908 71.9103 0.491648 71.6275 0.299114C71.3449 0.10658 71.0113 0.00246365 70.6693 0H58.3511C57.8972 0 57.4621 0.180257 57.1413 0.501106C56.8205 0.821955 56.6402 1.25712 56.6402 1.71087C56.6402 2.16461 56.8205 2.59978 57.1413 2.92063C57.4621 3.24147 57.8972 3.42173 58.3511 3.42173H67.5076L61.1158 13.0026C60.9189 13.3257 60.8347 13.705 60.8765 14.0811C60.9181 14.4572 61.0833 14.8088 61.3461 15.0811C61.6088 15.3533 61.9546 15.5307 62.3289 15.5856C62.7034 15.6403 63.0854 15.5695 63.4152 15.3841L68.89 12.1129V39.0762L63.6753 35.9145C63.3465 35.7197 62.9623 35.6396 62.5832 35.6869C62.2039 35.7339 61.8512 35.9057 61.5802 36.1752C61.3092 36.4446 61.1354 36.7963 61.086 37.1753C61.0367 37.5542 61.1145 37.9388 61.3075 38.2686L67.4666 48.0274H58.2826C57.8288 48.0274 57.3937 48.2077 57.0729 48.5285C56.752 48.8493 56.5718 49.2845 56.5718 49.7383C56.5718 50.192 56.752 50.6272 57.0729 50.9481C57.3937 51.2689 57.8288 51.4491 58.2826 51.4491H70.6009C70.8071 51.4426 71.0108 51.4008 71.2031 51.326C71.549 51.2108 71.8473 50.9847 72.0517 50.6827L80.0996 38.4466C80.3212 38.1308 80.4296 37.7495 80.4073 37.3643C80.3848 36.9793 80.233 36.6131 79.9764 36.3251Z" fill="#CE2127"/>
</svg>
