<svg width="735" height="2291" viewBox="0 0 735 2291" fill="none" xmlns="http://www.w3.org/2000/svg">
<circle cx="1131" cy="1150.82" r="1131" fill="#CE2127"/>
<path opacity="0.15" fill-rule="evenodd" clip-rule="evenodd" d="M1256.87 152.596L1169.8 203.106L1084.31 149.836L1172.88 0L1256.87 152.596ZM1166.54 412.384C1157.9 427.928 1148.76 444.469 1139.18 461.931C1068.99 589.838 975.209 766.788 880.735 963.172C786.147 1159.79 691.535 1374.5 619.181 1578.16C546.177 1783.65 498.656 1970.24 492.835 2113L293 2104.41C300.128 1929.58 356.191 1719.16 431.28 1507.8C507.019 1294.61 605.009 1072.62 701.405 872.239C797.914 671.624 893.504 491.274 964.927 361.13C1000.66 296.018 1030.4 243.375 1051.25 206.93C1061.68 188.706 1069.89 174.526 1075.52 164.856C1078.33 160.021 1080.5 156.313 1081.98 153.791C1082.72 152.529 1083.29 151.564 1083.68 150.903C1083.87 150.572 1084.02 150.317 1084.13 150.139L1084.29 149.868C1084.3 149.85 1084.31 149.836 1169.8 203.106C1256.87 152.596 1256.88 152.61 1256.89 152.629L1257.46 153.671C1257.82 154.335 1258.35 155.303 1259.04 156.567C1260.42 159.095 1262.44 162.809 1265.06 167.65C1270.31 177.331 1277.94 191.524 1287.63 209.761C1307.01 246.231 1334.62 298.904 1367.72 364.049C1433.87 494.253 1522.15 674.692 1610.52 875.414C1698.8 1075.89 1787.8 1298.05 1854.91 1511.43C1921.46 1723.02 1969 1933.71 1969 2108.71H1768.99C1768.99 1966.11 1729.13 1779.8 1664.58 1574.53C1600.59 1371.06 1514.8 1156.52 1428.27 959.998C1341.85 763.719 1255.33 586.858 1190.38 459.013C1182.06 442.638 1174.1 427.075 1166.54 412.384Z" fill="#EEEEEE"/>
<path opacity="0.15" fill-rule="evenodd" clip-rule="evenodd" d="M1005.1 2142.01L1092.16 2092.82L1177.65 2144.7L1089.08 2290.64L1005.1 2142.01ZM1095.42 1888.99C1104.05 1873.85 1113.19 1857.74 1122.78 1840.73C1192.97 1716.15 1286.74 1543.81 1381.21 1352.54C1475.79 1161.03 1570.4 951.912 1642.75 753.553C1715.75 553.411 1763.27 371.685 1769.09 232.637L1968.91 241.001C1961.79 411.287 1905.73 616.227 1830.64 822.085C1754.9 1029.73 1656.92 1245.94 1560.53 1441.1C1464.02 1636.5 1368.44 1812.15 1297.02 1938.91C1261.29 2002.32 1231.55 2053.6 1210.7 2089.09C1200.27 2106.84 1192.06 2120.66 1186.44 2130.07C1183.62 2134.78 1181.45 2138.39 1179.97 2140.85C1179.23 2142.08 1178.66 2143.02 1178.27 2143.66C1178.08 2143.99 1177.93 2144.23 1177.82 2144.41L1177.66 2144.67C1177.65 2144.69 1177.65 2144.7 1092.16 2092.82C1005.1 2142.01 1005.09 2142 1005.08 2141.98L1004.51 2140.97C1004.14 2140.32 1003.61 2139.38 1002.92 2138.15C1001.54 2135.68 999.519 2132.07 996.899 2127.35C991.658 2117.92 984.021 2104.1 974.331 2086.34C954.952 2050.82 927.344 1999.51 894.25 1936.07C828.105 1809.25 739.83 1633.51 651.457 1438.01C563.191 1242.75 474.187 1026.38 407.081 818.546C340.542 612.47 293 407.264 293 236.819H493C493 375.707 532.853 557.168 597.406 757.092C661.392 955.261 747.178 1164.22 833.701 1355.63C920.118 1546.8 1006.63 1719.06 1071.58 1843.57C1079.9 1859.52 1087.86 1874.68 1095.42 1888.99Z" fill="#EEEEEE"/>
</svg>
