<svg width="60" height="60" viewBox="0 0 60 60" fill="none" xmlns="http://www.w3.org/2000/svg">
<rect width="60" height="60" rx="30" fill="white"/>
<path d="M25.0718 41.3598L39.4718 18.6398H34.9278L20.5278 41.3598H25.0718ZM38.4798 41.6158C41.9358 41.6158 44.7838 38.7678 44.7838 35.3118C44.7838 31.8238 41.9358 29.0078 38.4798 29.0078C34.9918 29.0078 32.1758 31.8238 32.1758 35.3118C32.1758 38.7678 34.9918 41.6158 38.4798 41.6158ZM38.4798 37.9038C37.0398 37.9038 35.9198 36.7198 35.9198 35.3118C35.9198 33.9038 37.0398 32.7198 38.4798 32.7198C39.9198 32.7198 41.0078 33.9038 41.0078 35.3118C41.0078 36.7198 39.9198 37.9038 38.4798 37.9038ZM21.5198 30.9918C24.9758 30.9918 27.8238 28.1438 27.8238 24.6878C27.8238 21.1998 24.9758 18.3838 21.5198 18.3838C18.0318 18.3838 15.2158 21.1998 15.2158 24.6878C15.2158 28.1438 18.0318 30.9918 21.5198 30.9918ZM21.5198 27.2798C20.0798 27.2798 18.9598 26.0958 18.9598 24.6878C18.9598 23.2798 20.0798 22.0958 21.5198 22.0958C22.9598 22.0958 24.0798 23.2798 24.0798 24.6878C24.0798 26.0958 22.9598 27.2798 21.5198 27.2798Z" fill="#CE2127"/>
</svg>
